<?xml version="1.0" encoding="UTF-8" standalone="no"?>
<svg
   xmlns:dc="http://purl.org/dc/elements/1.1/"
   xmlns:cc="http://creativecommons.org/ns#"
   xmlns:rdf="http://www.w3.org/1999/02/22-rdf-syntax-ns#"
   xmlns:svg="http://www.w3.org/2000/svg"
   xmlns="http://www.w3.org/2000/svg"
   xmlns:sodipodi="http://sodipodi.sourceforge.net/DTD/sodipodi-0.dtd"
   xmlns:inkscape="http://www.inkscape.org/namespaces/inkscape"
   width="20.32mm"
   height="128.5mm"
   version="1.1"
   viewBox="0 0 20.32 128.5"
   id="svg1327"
   sodipodi:docname="FXLD.svg"
   inkscape:version="1.0 (4035a4fb49, 2020-05-01)">
  <metadata
     id="metadata1333">
    <rdf:RDF>
      <cc:Work
         rdf:about="">
        <dc:format>image/svg+xml</dc:format>
        <dc:type
           rdf:resource="http://purl.org/dc/dcmitype/StillImage" />
        <dc:title />
      </cc:Work>
    </rdf:RDF>
  </metadata>
  <defs
     id="defs1331" />
  <sodipodi:namedview
     inkscape:document-rotation="0"
     pagecolor="#ffffff"
     bordercolor="#666666"
     borderopacity="1"
     objecttolerance="10"
     gridtolerance="10"
     guidetolerance="10"
     inkscape:pageopacity="0"
     inkscape:pageshadow="2"
     inkscape:window-width="1920"
     inkscape:window-height="1001"
     id="namedview1329"
     showgrid="false"
     inkscape:document-units="mm"
     inkscape:zoom="1.7089818"
     inkscape:cx="30.989947"
     inkscape:cy="286.22383"
     inkscape:window-x="-9"
     inkscape:window-y="-9"
     inkscape:window-maximized="1"
     inkscape:current-layer="g1325" />
  <g
     transform="translate(167.5 9.146)"
     id="g1325">
    <path
       id="rect1137"
       style="fill:#f9f9f9;paint-order:markers stroke fill"
       d="m -167.5,-9.1459999 h 20.32 V 119.354 h -20.32 z" />
    <g
       transform="translate(-167.47761,-15.545994)"
       stroke-width="3.615"
       id="g1285">
      <rect
         transform="scale(1,-1)"
         x="5.369"
         y="-134.89999"
         width="0.2448"
         height="128.5"
         fill="#90a2a8"
         style="paint-order:markers stroke fill"
         id="rect1119" />
      <rect
         transform="scale(1,-1)"
         x="5.6139998"
         y="-134.89999"
         width="0.2448"
         height="128.5"
         fill="#919699"
         style="paint-order:markers stroke fill"
         id="rect1121" />
      <rect
         transform="scale(1,-1)"
         x="5.8579998"
         y="-134.89999"
         width="0.2448"
         height="128.5"
         fill="#959698"
         style="paint-order:markers stroke fill"
         id="rect1123" />
      <rect
         transform="scale(1,-1)"
         x="6.1030002"
         y="-134.89999"
         width="0.2448"
         height="128.5"
         fill="#99989a"
         style="paint-order:markers stroke fill"
         id="rect1125" />
      <rect
         transform="scale(1,-1)"
         x="6.348"
         y="-134.89999"
         width="0.2448"
         height="128.5"
         fill="#95989a"
         style="paint-order:markers stroke fill"
         id="rect1127" />
      <rect
         transform="scale(1,-1)"
         x="6.5929999"
         y="-134.89999"
         width="0.2448"
         height="128.5"
         fill="#929596"
         style="paint-order:markers stroke fill"
         id="rect1129" />
      <rect
         transform="scale(1,-1)"
         x="6.8379998"
         y="-134.89999"
         width="0.2448"
         height="128.5"
         fill="#9c9c9d"
         style="paint-order:markers stroke fill"
         id="rect1131" />
      <rect
         transform="scale(1,-1)"
         x="7.0819998"
         y="-134.89999"
         width="0.2448"
         height="128.5"
         fill="#a4a2a4"
         style="paint-order:markers stroke fill"
         id="rect1133" />
      <rect
         transform="scale(1,-1)"
         x="7.3270001"
         y="-134.89999"
         width="0.2448"
         height="128.5"
         fill="#9fa1a3"
         style="paint-order:markers stroke fill"
         id="rect1135" />
      <rect
         transform="scale(1,-1)"
         x="7.573"
         y="-134.89999"
         width="0.2448"
         height="128.5"
         fill="#9a9c9e"
         style="paint-order:markers stroke fill"
         id="rect1137-6" />
      <rect
         transform="scale(1,-1)"
         x="7.8179998"
         y="-134.89999"
         width="0.2448"
         height="128.5"
         fill="#929294"
         style="paint-order:markers stroke fill"
         id="rect1139" />
      <rect
         transform="scale(1,-1)"
         x="8.0620003"
         y="-134.89999"
         width="0.2448"
         height="128.5"
         fill="#9b9c9e"
         style="paint-order:markers stroke fill"
         id="rect1141" />
      <rect
         transform="scale(1,-1)"
         x="8.3070002"
         y="-134.89999"
         width="0.2448"
         height="128.5"
         fill="#9c9c9d"
         style="paint-order:markers stroke fill"
         id="rect1143" />
      <rect
         transform="scale(1,-1)"
         x="8.552"
         y="-134.89999"
         width="0.2448"
         height="128.5"
         fill="#a0a1a3"
         style="paint-order:markers stroke fill"
         id="rect1145" />
      <rect
         transform="scale(1,-1)"
         x="8.7969999"
         y="-134.89999"
         width="0.2448"
         height="128.5"
         fill="#a2a1a3"
         style="paint-order:markers stroke fill"
         id="rect1147" />
      <rect
         transform="scale(1,-1)"
         x="9.0419998"
         y="-134.89999"
         width="0.2448"
         height="128.5"
         fill="#a2a0a1"
         style="paint-order:markers stroke fill"
         id="rect1149" />
      <rect
         transform="scale(1,-1)"
         x="9.2860003"
         y="-134.89999"
         width="0.2448"
         height="128.5"
         fill="#8f9395"
         style="paint-order:markers stroke fill"
         id="rect1151" />
      <rect
         transform="scale(1,-1)"
         x="9.5310001"
         y="-134.89999"
         width="0.2448"
         height="128.5"
         fill="#93999b"
         style="paint-order:markers stroke fill"
         id="rect1153" />
      <rect
         transform="scale(1,-1)"
         x="9.776"
         y="-134.89999"
         width="0.2448"
         height="128.5"
         fill="#a6a1a1"
         style="paint-order:markers stroke fill"
         id="rect1155" />
      <rect
         transform="scale(1,-1)"
         x="10.02"
         y="-134.89999"
         width="0.2448"
         height="128.5"
         fill="#9b9a9b"
         style="paint-order:markers stroke fill"
         id="rect1157" />
      <rect
         transform="scale(1,-1)"
         x="10.27"
         y="-134.89999"
         width="0.2448"
         height="128.5"
         fill="#a4a1a2"
         style="paint-order:markers stroke fill"
         id="rect1159" />
      <rect
         transform="scale(1,-1)"
         x="10.51"
         y="-134.89999"
         width="0.2448"
         height="128.5"
         fill="#969a9c"
         style="paint-order:markers stroke fill"
         id="rect1161" />
      <rect
         transform="scale(1,-1)"
         x="10.76"
         y="-134.89999"
         width="0.2448"
         height="128.5"
         fill="#8d8d8f"
         style="paint-order:markers stroke fill"
         id="rect1163" />
      <rect
         transform="scale(1,-1)"
         x="11"
         y="-134.89999"
         width="0.2448"
         height="128.5"
         fill="#939395"
         style="paint-order:markers stroke fill"
         id="rect1165" />
      <rect
         transform="scale(1,-1)"
         x="11.24"
         y="-134.89999"
         width="0.2448"
         height="128.5"
         fill="#909092"
         style="paint-order:markers stroke fill"
         id="rect1167" />
      <rect
         transform="scale(1,-1)"
         x="11.49"
         y="-134.89999"
         width="0.2448"
         height="128.5"
         fill="#9b9a9c"
         style="paint-order:markers stroke fill"
         id="rect1169" />
      <rect
         transform="scale(1,-1)"
         x="11.73"
         y="-134.89999"
         width="0.2448"
         height="128.5"
         fill="#959395"
         style="paint-order:markers stroke fill"
         id="rect1171" />
      <rect
         transform="scale(1,-1)"
         x="11.98"
         y="-134.89999"
         width="0.2448"
         height="128.5"
         fill="#8e8f90"
         style="paint-order:markers stroke fill"
         id="rect1173" />
      <rect
         transform="scale(1,-1)"
         x="12.22"
         y="-134.89999"
         width="0.2448"
         height="128.5"
         fill="#909092"
         style="paint-order:markers stroke fill"
         id="rect1175" />
      <rect
         transform="scale(1,-1)"
         x="12.47"
         y="-134.89999"
         width="0.2448"
         height="128.5"
         fill="#9b9b9c"
         style="paint-order:markers stroke fill"
         id="rect1177" />
      <rect
         transform="scale(1,-1)"
         x="12.71"
         y="-134.89999"
         width="0.2448"
         height="128.5"
         fill="#a29fa0"
         style="paint-order:markers stroke fill"
         id="rect1179" />
      <rect
         transform="scale(1,-1)"
         x="12.96"
         y="-134.89999"
         width="0.2448"
         height="128.5"
         fill="#96999b"
         style="paint-order:markers stroke fill"
         id="rect1181" />
      <rect
         transform="scale(1,-1)"
         x="13.2"
         y="-134.89999"
         width="0.2448"
         height="128.5"
         fill="#8e9395"
         style="paint-order:markers stroke fill"
         id="rect1183" />
      <rect
         transform="scale(1,-1)"
         x="13.45"
         y="-134.89999"
         width="0.2448"
         height="128.5"
         fill="#a5a1a1"
         style="paint-order:markers stroke fill"
         id="rect1185" />
      <rect
         transform="scale(1,-1)"
         x="13.69"
         y="-134.89999"
         width="0.2448"
         height="128.5"
         fill="#9b999b"
         style="paint-order:markers stroke fill"
         id="rect1187" />
      <rect
         transform="scale(1,-1)"
         x="13.94"
         y="-134.89999"
         width="0.2448"
         height="128.5"
         fill="#8d9294"
         style="paint-order:markers stroke fill"
         id="rect1189" />
      <rect
         transform="scale(1,-1)"
         x="14.18"
         y="-134.89999"
         width="0.2448"
         height="128.5"
         fill="#a5a3a4"
         style="paint-order:markers stroke fill"
         id="rect1191" />
      <rect
         transform="scale(1,-1)"
         x="14.43"
         y="-134.89999"
         width="0.2448"
         height="128.5"
         fill="#a1a2a4"
         style="paint-order:markers stroke fill"
         id="rect1193" />
      <rect
         transform="scale(1,-1)"
         x="14.67"
         y="-134.89999"
         width="0.2448"
         height="128.5"
         fill="#95989b"
         style="paint-order:markers stroke fill"
         id="rect1195" />
      <rect
         transform="scale(1,-1)"
         x="14.92"
         y="-134.89999"
         width="0.2448"
         height="128.5"
         fill="#969798"
         style="paint-order:markers stroke fill"
         id="rect1197" />
      <rect
         transform="scale(1,-1)"
         x="15.16"
         y="-134.89999"
         width="0.2448"
         height="128.5"
         fill="#929395"
         style="paint-order:markers stroke fill"
         id="rect1199" />
      <rect
         transform="scale(1,-1)"
         x="15.41"
         y="-134.89999"
         width="0.2448"
         height="128.5"
         fill="#999b9c"
         style="paint-order:markers stroke fill"
         id="rect1201" />
      <rect
         transform="scale(1,-1)"
         x="15.65"
         y="-134.89999"
         width="0.2448"
         height="128.5"
         fill="#a2a2a3"
         style="paint-order:markers stroke fill"
         id="rect1203" />
      <rect
         transform="scale(1,-1)"
         x="15.9"
         y="-134.89999"
         width="0.2448"
         height="128.5"
         fill="#a0a3a5"
         style="paint-order:markers stroke fill"
         id="rect1205" />
      <rect
         transform="scale(1,-1)"
         x="16.139999"
         y="-134.89999"
         width="0.2448"
         height="128.5"
         fill="#919395"
         style="paint-order:markers stroke fill"
         id="rect1207" />
      <rect
         transform="scale(1,-1)"
         x="16.389999"
         y="-134.89999"
         width="0.2448"
         height="128.5"
         fill="#a19d9e"
         style="paint-order:markers stroke fill"
         id="rect1209" />
      <rect
         transform="scale(1,-1)"
         x="16.629999"
         y="-134.89999"
         width="0.2448"
         height="128.5"
         fill="#8d8f91"
         style="paint-order:markers stroke fill"
         id="rect1211" />
      <rect
         transform="scale(1,-1)"
         x="16.879999"
         y="-134.89999"
         width="0.2448"
         height="128.5"
         fill="#8e8f90"
         style="paint-order:markers stroke fill"
         id="rect1213" />
      <rect
         transform="scale(1,-1)"
         x="17.120001"
         y="-134.89999"
         width="0.2448"
         height="128.5"
         fill="#929597"
         style="paint-order:markers stroke fill"
         id="rect1215" />
      <rect
         transform="scale(1,-1)"
         x="17.370001"
         y="-134.89999"
         width="0.2448"
         height="128.5"
         fill="#9b9a9c"
         style="paint-order:markers stroke fill"
         id="rect1217" />
      <rect
         transform="scale(1,-1)"
         x="17.610001"
         y="-134.89999"
         width="0.2448"
         height="128.5"
         fill="#999698"
         style="paint-order:markers stroke fill"
         id="rect1219" />
      <rect
         transform="scale(1,-1)"
         x="17.860001"
         y="-134.89999"
         width="0.2448"
         height="128.5"
         fill="#8f9293"
         style="paint-order:markers stroke fill"
         id="rect1221" />
      <rect
         transform="scale(1,-1)"
         x="18.1"
         y="-134.89999"
         width="0.2448"
         height="128.5"
         fill="#8f9293"
         style="paint-order:markers stroke fill"
         id="rect1223" />
      <rect
         transform="scale(1,-1)"
         x="18.35"
         y="-134.89999"
         width="0.2448"
         height="128.5"
         fill="#a09c9c"
         style="paint-order:markers stroke fill"
         id="rect1225" />
      <rect
         transform="scale(1,-1)"
         x="18.59"
         y="-134.89999"
         width="0.2448"
         height="128.5"
         fill="#919496"
         style="paint-order:markers stroke fill"
         id="rect1227" />
      <rect
         transform="scale(1,-1)"
         x="18.84"
         y="-134.89999"
         width="0.2448"
         height="128.5"
         fill="#919496"
         style="paint-order:markers stroke fill"
         id="rect1229" />
      <rect
         transform="scale(1,-1)"
         x="19.08"
         y="-134.89999"
         width="0.2448"
         height="128.5"
         fill="#8d9092"
         style="paint-order:markers stroke fill"
         id="rect1231" />
      <rect
         transform="scale(1,-1)"
         x="19.33"
         y="-134.89999"
         width="0.2448"
         height="128.5"
         fill="#9b9a9c"
         style="paint-order:markers stroke fill"
         id="rect1233" />
      <rect
         transform="scale(1,-1)"
         x="19.58"
         y="-134.89999"
         width="0.2448"
         height="128.5"
         fill="#9d9d9f"
         style="paint-order:markers stroke fill"
         id="rect1235" />
      <rect
         transform="scale(1,-1)"
         x="19.82"
         y="-134.89999"
         width="0.2448"
         height="128.5"
         fill="#949799"
         style="paint-order:markers stroke fill"
         id="rect1237" />
      <rect
         transform="scale(1,-1)"
         x="20.1"
         y="-134.89999"
         width="0.2448"
         height="128.5"
         fill="#999d9f"
         style="paint-order:markers stroke fill"
         id="rect1239" />
      <rect
         transform="scale(1,-1)"
         x="-0.022390001"
         y="-134.89999"
         width="0.2448"
         height="128.5"
         fill="#babcbd"
         style="paint-order:markers stroke fill"
         id="rect1241" />
      <rect
         transform="scale(1,-1)"
         x="0.22239999"
         y="-134.89999"
         width="0.2448"
         height="128.5"
         fill="#93999b"
         style="paint-order:markers stroke fill"
         id="rect1243" />
      <rect
         transform="scale(1,-1)"
         x="0.47279999"
         y="-134.89999"
         width="0.2448"
         height="128.5"
         fill="#a6a1a1"
         style="paint-order:markers stroke fill"
         id="rect1245" />
      <rect
         transform="scale(1,-1)"
         x="0.71759999"
         y="-134.89999"
         width="0.2448"
         height="128.5"
         fill="#9b9a9b"
         style="paint-order:markers stroke fill"
         id="rect1247" />
      <rect
         transform="scale(1,-1)"
         x="0.96240002"
         y="-134.89999"
         width="0.2448"
         height="128.5"
         fill="#a4a1a2"
         style="paint-order:markers stroke fill"
         id="rect1249" />
      <rect
         transform="scale(1,-1)"
         x="1.207"
         y="-134.89999"
         width="0.2448"
         height="128.5"
         fill="#969a9c"
         style="paint-order:markers stroke fill"
         id="rect1251" />
      <rect
         transform="scale(1,-1)"
         x="1.452"
         y="-134.89999"
         width="0.2448"
         height="128.5"
         fill="#8d8d8f"
         style="paint-order:markers stroke fill"
         id="rect1253" />
      <rect
         transform="scale(1,-1)"
         x="1.697"
         y="-134.89999"
         width="0.2448"
         height="128.5"
         fill="#939395"
         style="paint-order:markers stroke fill"
         id="rect1255" />
      <rect
         transform="scale(1,-1)"
         x="1.942"
         y="-134.89999"
         width="0.2448"
         height="128.5"
         fill="#909092"
         style="paint-order:markers stroke fill"
         id="rect1257" />
      <rect
         transform="scale(1,-1)"
         x="2.1860001"
         y="-134.89999"
         width="0.2448"
         height="128.5"
         fill="#9b9a9c"
         style="paint-order:markers stroke fill"
         id="rect1259" />
      <rect
         transform="scale(1,-1)"
         x="2.431"
         y="-134.89999"
         width="0.2448"
         height="128.5"
         fill="#959395"
         style="paint-order:markers stroke fill"
         id="rect1261" />
      <rect
         transform="scale(1,-1)"
         x="2.6760001"
         y="-134.89999"
         width="0.2448"
         height="128.5"
         fill="#8e8f90"
         style="paint-order:markers stroke fill"
         id="rect1263" />
      <rect
         transform="scale(1,-1)"
         x="2.921"
         y="-134.89999"
         width="0.2448"
         height="128.5"
         fill="#909092"
         style="paint-order:markers stroke fill"
         id="rect1265" />
      <rect
         transform="scale(1,-1)"
         x="3.1659999"
         y="-134.89999"
         width="0.2448"
         height="128.5"
         fill="#9b9b9c"
         style="paint-order:markers stroke fill"
         id="rect1267" />
      <rect
         transform="scale(1,-1)"
         x="3.4100001"
         y="-134.89999"
         width="0.2448"
         height="128.5"
         fill="#a29fa0"
         style="paint-order:markers stroke fill"
         id="rect1269" />
      <rect
         transform="scale(1,-1)"
         x="3.655"
         y="-134.89999"
         width="0.2448"
         height="128.5"
         fill="#96999b"
         style="paint-order:markers stroke fill"
         id="rect1271" />
      <rect
         transform="scale(1,-1)"
         x="3.9000001"
         y="-134.89999"
         width="0.2448"
         height="128.5"
         fill="#8e9395"
         style="paint-order:markers stroke fill"
         id="rect1273" />
      <rect
         transform="scale(1,-1)"
         x="4.145"
         y="-134.89999"
         width="0.2448"
         height="128.5"
         fill="#a5a1a1"
         style="paint-order:markers stroke fill"
         id="rect1275" />
      <rect
         transform="scale(1,-1)"
         x="4.3899999"
         y="-134.89999"
         width="0.2448"
         height="128.5"
         fill="#9b999b"
         style="paint-order:markers stroke fill"
         id="rect1277" />
      <rect
         transform="scale(1,-1)"
         x="4.6339998"
         y="-134.89999"
         width="0.2448"
         height="128.5"
         fill="#8d9294"
         style="paint-order:markers stroke fill"
         id="rect1279" />
      <rect
         transform="scale(1,-1)"
         x="4.8790002"
         y="-134.89999"
         width="0.2448"
         height="128.5"
         fill="#a5a3a4"
         style="paint-order:markers stroke fill"
         id="rect1281" />
      <rect
         transform="scale(1,-1)"
         x="5.1240001"
         y="-134.89999"
         width="0.2448"
         height="128.5"
         fill="#a1a2a4"
         style="paint-order:markers stroke fill"
         id="rect1283" />
    </g>
    <path
       id="rect1307"
       style="fill:#28727b;stroke-width:0.5757;paint-order:stroke fill markers"
       d="m -167.5,1.863 h 20.32 v 106.5 h -20.32 z" />
    <path
       d="m-157.4 109.3a2.15 2.15 0 0 0-2.149 2.149 2.15 2.15 0 0 0 2.149 2.15 2.15 2.15 0 0 0 2.15-2.15 2.15 2.15 0 0 0-2.15-2.149zm4e-3 0.1969 0.3416 1.068 0.9508-0.5938-0.4248 1.038 1.111 0.1561-0.9922 0.5219 0.7498 0.8335-1.096-0.2382 0.0388 1.12-0.6863-0.8862-0.6904 0.8832 0.0439-1.12-1.097 0.2331 0.754-0.8299-0.9896-0.5266 1.111-0.1509-0.4201-1.04 0.9483 0.5984zm0.3344 1.067-0.3406 0.2739-0.3416-0.2723-0.0847 0.4289-0.4372 0.0109 0.2108 0.3829-0.3276 0.2894 0.4072 0.1581-0.0646 0.432 0.4139-0.1406 0.2279 0.3726 0.2264-0.3736 0.4144 0.139-0.0672-0.432 0.4067-0.1602-0.3287-0.2878 0.2088-0.384-0.4367-9e-3z"
       fill="#ccc"
       style="paint-order:markers fill stroke"
       id="path1309" />
    <path
       d="m-157.4 109.4a2.15 2.15 0 0 0-2.149 2.149 2.15 2.15 0 0 0 2.149 2.15 2.15 2.15 0 0 0 2.15-2.15 2.15 2.15 0 0 0-2.15-2.149zm4e-3 0.1969 0.3416 1.068 0.9508-0.5938-0.4248 1.038 1.111 0.1561-0.9922 0.5219 0.7498 0.8335-1.096-0.2382 0.0388 1.12-0.6863-0.8862-0.6904 0.8832 0.0439-1.12-1.097 0.2331 0.754-0.8299-0.9896-0.5266 1.111-0.1509-0.4201-1.04 0.9483 0.5984zm0.3344 1.067-0.3406 0.2739-0.3416-0.2723-0.0847 0.4289-0.4372 0.0109 0.2108 0.3829-0.3276 0.2894 0.4072 0.1581-0.0646 0.432 0.4139-0.1406 0.2279 0.3726 0.2264-0.3736 0.4144 0.139-0.0672-0.432 0.4067-0.1602-0.3287-0.2878 0.2088-0.384-0.4367-9e-3z"
       fill="#333"
       style="paint-order:markers fill stroke"
       id="path1311" />
    <g
       aria-label="FXLD"
       id="text1315"
       style="font-weight:800;font-size:5.514px;line-height:1.25;font-family:Urbanist;font-variant-ligatures:normal;font-variant-caps:normal;font-variant-numeric:normal;font-feature-settings:normal;letter-spacing:0px;word-spacing:0px;fill:#cccccc;stroke-width:0.1378">
      <path
         d="m -163.74865,-3.5358854 h 2.28003 v 0.66168 h -1.61835 v 0.79953 h 1.35368 v 0.6616799 h -1.35368 v 1.73691003 h -0.66168 z"
         style="font-weight:800;font-size:5.514px;font-family:Urbanist;font-variant-ligatures:normal;font-variant-caps:normal;font-variant-numeric:normal;font-feature-settings:normal;text-align:center;text-anchor:middle;fill:#cccccc;stroke-width:0.1378"
         id="path1951" />
      <path
         d="m -159.82889,-1.6170135 -1.40331,-1.9243859 h 0.81607 l 0.99528,1.364715 0.99527,-1.364715 h 0.81607 l -1.40055,1.9243859 1.41158,1.94092803 h -0.81883 l -1.00354,-1.37574303 -1.0008,1.37574303 h -0.82158 z"
         style="font-weight:800;font-size:5.514px;font-family:Urbanist;font-variant-ligatures:normal;font-variant-caps:normal;font-variant-numeric:normal;font-feature-settings:normal;text-align:center;text-anchor:middle;fill:#cccccc;stroke-width:0.1378"
         id="path1953" />
      <path
         d="m -157.06078,-3.5358854 h 0.66168 v 3.19811994 h 1.61285 v 0.66167999 h -2.27453 z"
         style="font-weight:800;font-size:5.514px;font-family:Urbanist;font-variant-ligatures:normal;font-variant-caps:normal;font-variant-numeric:normal;font-feature-settings:normal;text-align:center;text-anchor:middle;fill:#cccccc;stroke-width:0.1378"
         id="path1955" />
      <path
         d="m -152.89529,-3.5358854 q 0.52383,0 0.96495,0.261915 0.44387,0.259158 0.70303,0.703035 0.26192,0.44112 0.26192,0.9649499 0,0.52383 -0.26192,0.96770704 -0.25916,0.44111999 -0.70303,0.70303499 -0.44112,0.259158 -0.96495,0.259158 h -1.27925 V -3.5358854 Z m 0,3.19811994 q 0.34186,0 0.63135,-0.170934 0.29224,-0.170934 0.46318,-0.460419 0.17369,-0.29224204 0.17369,-0.63686704 0,-0.3446249 -0.17369,-0.6341099 -0.17094,-0.292242 -0.46318,-0.463176 -0.28949,-0.170934 -0.63135,-0.170934 h -0.61757 v 2.53643994 z"
         style="font-weight:800;font-size:5.514px;font-family:Urbanist;font-variant-ligatures:normal;font-variant-caps:normal;font-variant-numeric:normal;font-feature-settings:normal;text-align:center;text-anchor:middle;fill:#cccccc;stroke-width:0.1378"
         id="path1957" />
    </g>
    <g
       aria-label="FXLD"
       id="text1319"
       style="font-weight:800;font-size:5.514px;line-height:1.25;font-family:Urbanist;font-variant-ligatures:normal;font-variant-caps:normal;font-variant-numeric:normal;font-feature-settings:normal;text-align:center;letter-spacing:0px;word-spacing:0px;text-anchor:middle;fill:#333333;stroke-width:0.1378">
      <path
         d="m -163.74865,-3.4607159 h 2.28003 v 0.66168 h -1.61835 v 0.79953 h 1.35368 v 0.66168 h -1.35368 v 1.73690999 h -0.66168 z"
         style="font-weight:800;font-size:5.514px;font-family:Urbanist;font-variant-ligatures:normal;font-variant-caps:normal;font-variant-numeric:normal;font-feature-settings:normal;text-align:center;text-anchor:middle;fill:#333333;stroke-width:0.1378"
         id="path1942" />
      <path
         d="m -159.82889,-1.5418439 -1.40331,-1.924386 h 0.81607 l 0.99528,1.364715 0.99527,-1.364715 h 0.81607 l -1.40055,1.924386 1.41158,1.94092799 h -0.81883 l -1.00354,-1.37574298 -1.0008,1.37574298 h -0.82158 z"
         style="font-weight:800;font-size:5.514px;font-family:Urbanist;font-variant-ligatures:normal;font-variant-caps:normal;font-variant-numeric:normal;font-feature-settings:normal;text-align:center;text-anchor:middle;fill:#333333;stroke-width:0.1378"
         id="path1944" />
      <path
         d="m -157.06078,-3.4607159 h 0.66168 v 3.19812 h 1.61285 v 0.66167999 h -2.27453 z"
         style="font-weight:800;font-size:5.514px;font-family:Urbanist;font-variant-ligatures:normal;font-variant-caps:normal;font-variant-numeric:normal;font-feature-settings:normal;text-align:center;text-anchor:middle;fill:#333333;stroke-width:0.1378"
         id="path1946" />
      <path
         d="m -152.89529,-3.4607159 q 0.52383,0 0.96495,0.261915 0.44387,0.259158 0.70303,0.703035 0.26192,0.44112 0.26192,0.96495 0,0.52383 -0.26192,0.967707 -0.25916,0.44112 -0.70303,0.70303499 -0.44112,0.259158 -0.96495,0.259158 h -1.27925 V -3.4607159 Z m 0,3.19812 q 0.34186,0 0.63135,-0.170934 0.29224,-0.170934 0.46318,-0.46041899 0.17369,-0.29224201 0.17369,-0.63686701 0,-0.344625 -0.17369,-0.63411 -0.17094,-0.292242 -0.46318,-0.463176 -0.28949,-0.170934 -0.63135,-0.170934 h -0.61757 v 2.53644 z"
         style="font-weight:800;font-size:5.514px;font-family:Urbanist;font-variant-ligatures:normal;font-variant-caps:normal;font-variant-numeric:normal;font-feature-settings:normal;text-align:center;text-anchor:middle;fill:#333333;stroke-width:0.1378"
         id="path1948" />
    </g>
    <g
       aria-label="Folds"
       id="text1323"
       style="font-weight:bold;font-size:3.447px;line-height:1.25;font-family:Urbanist;font-variant-ligatures:normal;font-variant-caps:normal;font-variant-numeric:normal;font-feature-settings:normal;letter-spacing:0px;word-spacing:0px;fill:#e6ebef;stroke-width:0.08618">
      <path
         d="m -161.09492,33.526351 h 1.42016 v 0.3447 h -1.07546 v 0.603225 h 0.91001 v 0.3447 h -0.91001 v 1.120275 h -0.3447 z"
         style="font-weight:bold;font-size:3.447px;font-family:Urbanist;font-variant-ligatures:normal;font-variant-caps:normal;font-variant-numeric:normal;font-feature-settings:normal;text-align:center;text-anchor:middle;fill:#e6ebef;stroke-width:0.08618"
         id="path1931" />
      <path
         d="m -158.82179,35.984062 q -0.23439,0 -0.4326,-0.122369 -0.19647,-0.122368 -0.31367,-0.329188 -0.11548,-0.208544 -0.11548,-0.455004 0,-0.248184 0.11548,-0.456728 0.1172,-0.208543 0.31367,-0.330912 0.19821,-0.122368 0.4326,-0.122368 0.2344,0 0.43088,0.122368 0.1982,0.122369 0.31368,0.330912 0.11719,0.208544 0.11719,0.456728 0,0.24646 -0.11719,0.455004 -0.11548,0.20682 -0.31368,0.329188 -0.19648,0.122369 -0.43088,0.122369 z m 0,-0.3447 q 0.14305,0 0.26198,-0.07583 0.11892,-0.07756 0.18613,-0.20682 0.0689,-0.129263 0.0689,-0.279207 0,-0.151668 -0.0707,-0.280931 -0.0689,-0.130986 -0.18786,-0.20682 -0.11892,-0.07756 -0.25853,-0.07756 -0.14305,0 -0.26197,0.07756 -0.1172,0.07756 -0.18614,0.208544 -0.0689,0.129262 -0.0689,0.279207 0,0.155115 0.0707,0.284377 0.0707,0.127539 0.18786,0.203373 0.11892,0.07411 0.25852,0.07411 z"
         style="font-weight:bold;font-size:3.447px;font-family:Urbanist;font-variant-ligatures:normal;font-variant-caps:normal;font-variant-numeric:normal;font-feature-settings:normal;text-align:center;text-anchor:middle;fill:#e6ebef;stroke-width:0.08618"
         id="path1933" />
      <path
         d="m -157.66591,33.354001 h 0.3447 v 2.583526 h -0.3447 z"
         style="font-weight:bold;font-size:3.447px;font-family:Urbanist;font-variant-ligatures:normal;font-variant-caps:normal;font-variant-numeric:normal;font-feature-settings:normal;text-align:center;text-anchor:middle;fill:#e6ebef;stroke-width:0.08618"
         id="path1935" />
      <path
         d="m -155.19123,35.939251 h -0.3447 v -0.260249 q -0.0879,0.143051 -0.22751,0.224055 -0.1396,0.08101 -0.32057,0.08101 -0.24646,0 -0.455,-0.122369 -0.20682,-0.122368 -0.32919,-0.329188 -0.12237,-0.208544 -0.12237,-0.455004 0,-0.246461 0.12237,-0.455004 0.12237,-0.208544 0.32919,-0.330912 0.20854,-0.122369 0.455,-0.122369 0.18097,0 0.32057,0.08101 0.13961,0.081 0.22751,0.224055 v -1.120275 h 0.3447 z m -0.88933,-0.287825 q 0.15167,0 0.26887,-0.07583 0.11719,-0.07756 0.18096,-0.208543 0.0655,-0.130986 0.0655,-0.289548 0,-0.160286 -0.0655,-0.291272 -0.0638,-0.130986 -0.18269,-0.20682 -0.1172,-0.07756 -0.26714,-0.07756 -0.14994,0 -0.27921,0.07756 -0.12754,0.07756 -0.20337,0.210267 -0.0741,0.130986 -0.0741,0.287825 0,0.156838 0.0758,0.289548 0.0758,0.130986 0.20338,0.208543 0.12926,0.07583 0.27748,0.07583 z"
         style="font-weight:bold;font-size:3.447px;font-family:Urbanist;font-variant-ligatures:normal;font-variant-caps:normal;font-variant-numeric:normal;font-feature-settings:normal;text-align:center;text-anchor:middle;fill:#e6ebef;stroke-width:0.08618"
         id="path1937" />
      <path
         d="m -154.19236,35.973721 q -0.1465,0 -0.2861,-0.04481 -0.13788,-0.04653 -0.24474,-0.130986 -0.10513,-0.08445 -0.15339,-0.196479 l 0.293,-0.125816 q 0.0241,0.04998 0.0827,0.09652 0.0586,0.04653 0.13788,0.07583 0.0793,0.02758 0.16028,0.02758 0.13271,0 0.22578,-0.0586 0.0948,-0.06032 0.0948,-0.162009 0,-0.07239 -0.0483,-0.115474 -0.0465,-0.04309 -0.10685,-0.06377 -0.0603,-0.02068 -0.18269,-0.05343 -0.28783,-0.06722 -0.45328,-0.191309 -0.16374,-0.125815 -0.16374,-0.337806 0,-0.158562 0.0879,-0.28093 0.0879,-0.122369 0.2344,-0.187862 0.14649,-0.06722 0.31367,-0.06722 0.20855,0 0.37917,0.0879 0.17235,0.0879 0.2637,0.24129 l -0.27404,0.162009 q -0.0431,-0.08273 -0.14649,-0.13788 -0.10169,-0.05515 -0.21199,-0.05515 -0.13961,0 -0.23095,0.06032 -0.0914,0.0586 -0.0914,0.168903 0,0.06032 0.0345,0.09824 0.0362,0.03792 0.0879,0.0586 0.0534,0.02068 0.14822,0.04653 0.0724,0.02068 0.0948,0.02758 0.27404,0.08962 0.4326,0.213714 0.15856,0.122368 0.15339,0.320571 0,0.149944 -0.0879,0.270589 -0.0862,0.118922 -0.23267,0.186138 -0.14477,0.06722 -0.31023,0.06722 z"
         style="font-weight:bold;font-size:3.447px;font-family:Urbanist;font-variant-ligatures:normal;font-variant-caps:normal;font-variant-numeric:normal;font-feature-settings:normal;text-align:center;text-anchor:middle;fill:#e6ebef;stroke-width:0.08618"
         id="path1939" />
    </g>
    <g
       aria-label="Symm"
       id="text1323-7"
       style="font-style:normal;font-variant:normal;font-weight:bold;font-stretch:normal;font-size:3.44699px;line-height:1.25;font-family:Urbanist;-inkscape-font-specification:'Urbanist, Bold';font-variant-ligatures:normal;font-variant-caps:normal;font-variant-numeric:normal;font-variant-east-asian:normal;letter-spacing:0px;word-spacing:0px;fill:#e6ebef;stroke-width:0.0861801">
      <path
         d="m -161.18073,75.851345 q -0.1982,0 -0.38262,-0.06205 -0.18269,-0.06205 -0.31884,-0.179244 -0.13443,-0.117197 -0.19131,-0.274035 l 0.32402,-0.120645 q 0.0293,0.08445 0.11375,0.151668 0.0862,0.06549 0.20509,0.103409 0.11892,0.03619 0.24991,0.03619 0.14305,0 0.26714,-0.04481 0.12409,-0.04653 0.1982,-0.129262 0.0758,-0.08445 0.0758,-0.191308 0,-0.274036 -0.54118,-0.365381 -0.27404,-0.04481 -0.46879,-0.125815 -0.19303,-0.08101 -0.30506,-0.224055 -0.11203,-0.14305 -0.11203,-0.361934 0,-0.206819 0.12065,-0.368828 0.12237,-0.162008 0.32574,-0.25163 0.20337,-0.08962 0.43949,-0.08962 0.19476,0 0.37745,0.06205 0.18441,0.06205 0.32057,0.179244 0.13788,0.117197 0.19647,0.277482 l -0.32574,0.117198 q -0.0293,-0.08445 -0.11547,-0.149944 -0.0845,-0.06722 -0.20337,-0.10341 -0.11892,-0.03619 -0.24991,-0.03619 -0.1396,0 -0.26542,0.04653 -0.12409,0.04654 -0.19992,0.130986 -0.0758,0.08273 -0.0758,0.186137 0,0.124092 0.0672,0.194755 0.0689,0.07066 0.17752,0.10341 0.10858,0.03275 0.29644,0.06549 0.39123,0.06205 0.63769,0.239566 0.24819,0.17752 0.24819,0.473961 0,0.206819 -0.12065,0.368828 -0.12064,0.162008 -0.32401,0.25163 -0.20338,0.08962 -0.44122,0.08962 z"
         id="path1922" />
      <path
         d="m -158.47161,74.083039 -0.94275,2.585242 h -0.36711 l 0.31196,-0.863471 -0.61874,-1.721771 h 0.37745 l 0.41363,1.251257 0.45845,-1.251257 z"
         id="path1924" />
      <path
         d="m -157.87162,74.083039 v 0.198202 q 0.0862,-0.112027 0.18097,-0.165456 0.0948,-0.05515 0.22061,-0.05515 0.18786,0 0.33608,0.08617 0.14994,0.08445 0.25163,0.243013 0.10168,-0.158562 0.2499,-0.243013 0.14995,-0.08617 0.33609,-0.08617 0.21543,0 0.38606,0.110304 0.17062,0.110304 0.26542,0.296441 0.0948,0.186138 0.0948,0.408469 v 0.930687 h -0.3447 v -0.930687 q 0,-0.130986 -0.05,-0.237843 -0.05,-0.106856 -0.14133,-0.168902 -0.0913,-0.06377 -0.21026,-0.06377 -0.11893,0 -0.21372,0.06377 -0.0948,0.06205 -0.14822,0.170626 -0.0517,0.106856 -0.0517,0.236119 v 0.930687 h -0.3447 v -0.930687 q 0,-0.129263 -0.0534,-0.236119 -0.0534,-0.10858 -0.14822,-0.170626 -0.0948,-0.06377 -0.21371,-0.06377 -0.11203,0 -0.2051,0.06722 -0.0914,0.06549 -0.14477,0.17752 -0.0517,0.112027 -0.0517,0.241289 v 0.915176 h -0.3447 v -1.723495 z"
         id="path1926" />
      <path
         d="m -154.90263,74.083039 v 0.198202 q 0.0862,-0.112027 0.18097,-0.165456 0.0948,-0.05515 0.2206,-0.05515 0.18787,0 0.33609,0.08617 0.14994,0.08445 0.25163,0.243013 0.10168,-0.158562 0.2499,-0.243013 0.14995,-0.08617 0.33608,-0.08617 0.21544,0 0.38607,0.110304 0.17062,0.110304 0.26542,0.296441 0.0948,0.186138 0.0948,0.408469 v 0.930687 h -0.3447 v -0.930687 q 0,-0.130986 -0.05,-0.237843 -0.05,-0.106856 -0.14133,-0.168902 -0.0913,-0.06377 -0.21027,-0.06377 -0.11892,0 -0.21371,0.06377 -0.0948,0.06205 -0.14822,0.170626 -0.0517,0.106856 -0.0517,0.236119 v 0.930687 h -0.3447 v -0.930687 q 0,-0.129263 -0.0534,-0.236119 -0.0534,-0.10858 -0.14822,-0.170626 -0.0948,-0.06377 -0.21372,-0.06377 -0.11202,0 -0.20509,0.06722 -0.0914,0.06549 -0.14477,0.17752 -0.0517,0.112027 -0.0517,0.241289 v 0.915176 h -0.3447 v -1.723495 z"
         id="path1928" />
    </g>
  </g>
</svg>
