<?xml version="1.0" encoding="UTF-8" standalone="no"?>
<svg
   xmlns:dc="http://purl.org/dc/elements/1.1/"
   xmlns:cc="http://creativecommons.org/ns#"
   xmlns:rdf="http://www.w3.org/1999/02/22-rdf-syntax-ns#"
   xmlns:svg="http://www.w3.org/2000/svg"
   xmlns="http://www.w3.org/2000/svg"
   xmlns:sodipodi="http://sodipodi.sourceforge.net/DTD/sodipodi-0.dtd"
   xmlns:inkscape="http://www.inkscape.org/namespaces/inkscape"
   inkscape:version="1.0 (4035a4fb49, 2020-05-01)"
   sodipodi:docname="Fxld.svg"
   id="svg851"
   preserveAspectRatio="xMidYMid meet"
   viewBox="0 0 57.599997 364.25198"
   height="128.5mm"
   width="20.32mm"
   version="1.0">
  <defs
     id="defs855" />
  <sodipodi:namedview
     units="mm"
     inkscape:document-units="mm"
     inkscape:current-layer="svg851"
     inkscape:window-maximized="1"
     inkscape:window-y="-9"
     inkscape:window-x="-9"
     inkscape:cy="254.66667"
     inkscape:cx="41.333333"
     inkscape:zoom="1.572644"
     showgrid="false"
     id="namedview853"
     inkscape:window-height="1001"
     inkscape:window-width="1920"
     inkscape:pageshadow="2"
     inkscape:pageopacity="0"
     guidetolerance="10"
     gridtolerance="10"
     objecttolerance="10"
     borderopacity="1"
     bordercolor="#666666"
     pagecolor="#ffffff"
     inkscape:document-rotation="0" />
  <metadata
     id="metadata845">
Created by potrace 1.15, written by Peter Selinger 2001-2017
<rdf:RDF>
  <cc:Work
     rdf:about="">
    <dc:format>image/svg+xml</dc:format>
    <dc:type
       rdf:resource="http://purl.org/dc/dcmitype/StillImage" />
    <dc:title></dc:title>
  </cc:Work>
</rdf:RDF>
</metadata>
  <g
     style="fill:#2f5d68;fill-opacity:1"
     id="g849"
     stroke="none"
     fill="#000000"
     transform="matrix(0.09442623,0,0,-0.09560419,0.05573772,365.25196)">
    <path
       style="fill:#2f5d68;fill-opacity:1"
       id="path847"
       d="M 10,1905 V 0 H 315 620 V 1905 3810 H 315 10 Z" />
  </g>
  <g
     style="font-style:normal;font-variant:normal;font-weight:normal;font-stretch:normal;font-size:16.3471px;line-height:1.25;font-family:'Eras Bold ITC';-inkscape-font-specification:'Eras Bold ITC, Normal';font-variant-ligatures:normal;font-variant-caps:normal;font-variant-numeric:normal;font-variant-east-asian:normal;letter-spacing:0px;word-spacing:0px;fill:#ffee00;fill-opacity:1;stroke-width:0.408675"
     id="text859"
     transform="scale(0.79745135,1.253995)"
     aria-label="FXLD">
    <path
       id="path1427"
       d="m 15.333631,24.50625 q 0.167622,-1.620342 0.231477,-2.602126 0.09578,-1.452721 0.183586,-3.990991 0.0878,-2.546252 0.0878,-3.42427 v -0.878018 q 2.402576,0.01596 4.46991,0.01596 2.083297,0 4.006955,-0.01596 -0.127712,1.835856 -0.127712,2.402576 l -0.694432,-0.02395 -0.558739,-0.008 -0.558739,-0.008 h -1.57245 q -0.271388,0 -1.588415,0.01596 l -0.07184,1.859802 1.157388,0.02395 h 1.293081 q 0.558739,0 1.708144,-0.02395 -0.0878,1.508595 -0.0878,2.362667 -1.285099,-0.03991 -1.907694,-0.03991 -1.053621,0 -2.29881,0.03991 l -0.07982,2.873514 -0.008,1.069585 v 0.351207 l -1.716126,-0.01596 q -0.19955,0 -1.867784,0.01596 z" />
    <path
       id="path1429"
       d="m 23.78655,24.50625 q 0.933892,-1.181333 2.266883,-2.969297 1.340973,-1.787964 2.075315,-2.841586 l -0.941874,-1.588414 q -0.263405,-0.431027 -0.758288,-1.205279 l -0.798198,-1.237208 q -0.295333,-0.462954 -0.662505,-1.053621 1.029676,0.01596 2.107244,0.01596 0.854072,0 1.827874,-0.01596 0.351207,0.694432 0.822144,1.508594 0.478919,0.806181 0.758288,1.404829 0.319279,-0.550756 0.870036,-1.364919 0.550757,-0.822144 0.96582,-1.548504 0.84609,0.01596 1.843838,0.01596 0.64654,0 1.835856,-0.01596 -0.574703,0.822144 -1.708145,2.330739 -1.133441,1.508594 -2.147153,2.977279 1.293081,2.203027 3.512072,5.587387 -1.261153,-0.01596 -1.891729,-0.01596 -1.053622,0 -2.083298,0.01596 -0.311297,-0.638558 -0.878018,-1.61236 -0.558738,-0.981784 -0.973802,-1.803928 -0.311297,0.558739 -1.021693,1.572451 -0.710397,1.013711 -1.253171,1.843837 -1.16537,-0.01596 -1.843838,-0.01596 -0.750307,0 -1.923658,0.01596 z" />
    <path
       id="path1431"
       d="m 36.453956,24.50625 q 0.19955,-1.883747 0.287351,-3.073063 0.167622,-2.171099 0.247442,-4.31027 0.0878,-2.147153 0.0878,-3.512072 1.085549,0.01596 1.923657,0.01596 0.566721,0 1.628325,-0.01596 l -0.191568,2.889477 -0.239459,4.517802 -0.03193,1.109496 q 1.372901,0.02395 1.787964,0.02395 2.099261,0 3.176828,-0.05587 l -0.175603,2.410558 q -2.099261,-0.01596 -3.998973,-0.01596 -2.570198,0 -4.501838,0.01596 z" />
    <path
       id="path1433"
       d="m 46.128118,24.50625 q 0.175604,-1.819892 0.23946,-2.913423 0.09578,-1.628324 0.191567,-4.214487 0.07184,-1.979531 0.07184,-2.833603 v -0.933892 q 0.933892,0.02395 1.612361,0.02395 0.654522,0 1.716126,-0.03193 1.061603,-0.03991 1.995495,-0.03991 1.069586,0 1.875766,0.127712 0.80618,0.127711 1.500613,0.52681 0.702414,0.3991 1.173351,1.04564 0.470937,0.646541 0.718379,1.516577 0.247441,0.862054 0.247441,1.779982 0,0.901964 -0.191568,1.740072 -0.191567,0.830126 -0.534792,1.500612 -0.343226,0.670487 -0.806181,1.157388 -0.454973,0.478919 -1.045639,0.822144 -0.439009,0.255423 -0.886,0.399099 -0.446991,0.143676 -1.221244,0.231478 -0.862054,0.09578 -1.955585,0.09578 l -3.224721,-0.02395 q -0.454973,0 -1.476667,0.02395 z m 3.448217,-2.402576 q 0.439009,0.03991 0.917928,0.03991 0.814162,0 1.45272,-0.143676 0.638559,-0.143676 1.117478,-0.614613 0.486901,-0.470937 0.718378,-1.205279 0.231478,-0.742324 0.231478,-1.516577 0,-0.949855 -0.343225,-1.596396 -0.343226,-0.654522 -0.917928,-0.909946 -0.566721,-0.255423 -1.548505,-0.255423 -0.574703,0 -1.356937,0.04789 z" />
  </g>
  <g
     style="font-style:normal;font-variant:normal;font-weight:normal;font-stretch:normal;font-size:20.2449px;line-height:1.25;font-family:'Eras Medium ITC';-inkscape-font-specification:'Eras Medium ITC, Normal';font-variant-ligatures:normal;font-variant-caps:normal;font-variant-numeric:normal;font-variant-east-asian:normal;letter-spacing:0px;word-spacing:0px;fill:#ffee00;fill-opacity:1;stroke-width:0.506123"
     id="text1438"
     transform="matrix(0.87942882,0,0,1.0337289,0,-0.7730927)"
     aria-label="Folds">
    <path
       id="path1458"
       style="font-style:normal;font-variant:normal;font-weight:normal;font-stretch:normal;font-size:20.2449px;font-family:'Eras Medium ITC';-inkscape-font-specification:'Eras Medium ITC, Normal';font-variant-ligatures:normal;font-variant-caps:normal;font-variant-numeric:normal;font-variant-east-asian:normal;fill:#ffee00;fill-opacity:1;stroke-width:0.506123"
       d="m 12.385341,88.279381 0.128508,-1.808993 q 0.03954,-0.612882 0.0692,-1.334502 l 0.217475,-5.881697 0.05931,-2.37245 q 0.01977,-0.751275 0.01977,-1.314732 v -0.780931 q 2.342794,0.0099 4.428572,0.0099 l 2.441646,-0.0099 h 1.46301 q -0.07908,0.909439 -0.07908,1.374044 -1.255422,-0.07908 -3.538904,-0.07908 l -2.90625,0.01977 -0.148278,4.665817 1.897959,0.03954 q 2.688776,0 3.904656,-0.03954 -0.05931,0.731505 -0.05931,1.354273 -1.828763,-0.03954 -3.084184,-0.03954 -1.235651,0 -2.738202,0.03954 -0.108737,3.637756 -0.108737,6.158483 l -0.958865,-0.01977 q -0.05931,0 -1.008291,0.01977 z" />
    <path
       id="path1460"
       style="font-style:normal;font-variant:normal;font-weight:normal;font-stretch:normal;font-size:20.2449px;font-family:'Eras Medium ITC';-inkscape-font-specification:'Eras Medium ITC, Normal';font-variant-ligatures:normal;font-variant-caps:normal;font-variant-numeric:normal;font-variant-east-asian:normal;fill:#ffee00;fill-opacity:1;stroke-width:0.506123"
       d="m 27.944653,78.038308 q 1.037947,0 1.977041,0.296557 0.939095,0.296556 1.621174,0.939094 0.691964,0.642538 1.047832,1.621174 0.355867,0.978635 0.355867,2.066008 0,1.176339 -0.385523,2.253826 -0.375638,1.077488 -1.067602,1.828763 -0.682079,0.751276 -1.680485,1.107143 -0.98852,0.345982 -2.125319,0.345982 -1.057717,0 -1.996811,-0.316326 -0.939095,-0.316327 -1.631059,-0.988521 -0.682079,-0.672194 -1.037947,-1.640944 -0.355867,-0.978635 -0.355867,-2.046237 0,-1.611289 0.652423,-2.896365 0.652424,-1.294962 1.91773,-1.927615 1.265306,-0.642539 2.708546,-0.642539 z m -0.03954,1.255421 q -1.008291,0 -1.858419,0.504146 -0.840242,0.504145 -1.245536,1.522322 -0.405293,1.00829 -0.405293,2.2044 0,1.047832 0.336097,1.888074 0.336097,0.830358 1.107143,1.344388 0.771046,0.514031 1.858418,0.514031 0.741391,0 1.403699,-0.24713 0.662309,-0.257016 1.156569,-0.840243 0.494261,-0.583227 0.731505,-1.423469 0.237245,-0.850128 0.237245,-1.779337 0,-0.869898 -0.237245,-1.631059 -0.237244,-0.761161 -0.731505,-1.21588 -0.484375,-0.464605 -1.107143,-0.652424 -0.612882,-0.187819 -1.245535,-0.187819 z" />
    <path
       id="path1462"
       style="font-style:normal;font-variant:normal;font-weight:normal;font-stretch:normal;font-size:20.2449px;font-family:'Eras Medium ITC';-inkscape-font-specification:'Eras Medium ITC, Normal';font-variant-ligatures:normal;font-variant-caps:normal;font-variant-numeric:normal;font-variant-east-asian:normal;fill:#ffee00;fill-opacity:1;stroke-width:0.506123"
       d="m 34.913723,88.279381 q 0.197704,-3.044643 0.385523,-7.2162 0.128508,-3.034758 0.187819,-6.277105 l 0.919324,0.0099 q 0.286671,0 0.879783,-0.0099 l -0.306441,5.802615 -0.217474,5.871812 -0.03954,1.818878 q -0.583227,-0.01977 -0.869898,-0.01977 -0.118623,0 -0.939096,0.01977 z" />
    <path
       id="path1464"
       style="font-style:normal;font-variant:normal;font-weight:normal;font-stretch:normal;font-size:20.2449px;font-family:'Eras Medium ITC';-inkscape-font-specification:'Eras Medium ITC, Normal';font-variant-ligatures:normal;font-variant-caps:normal;font-variant-numeric:normal;font-variant-east-asian:normal;fill:#ffee00;fill-opacity:1;stroke-width:0.506123"
       d="m 48.802435,88.279381 q -0.583227,-0.01977 -0.810586,-0.01977 -0.24713,0 -0.860013,0.01977 l 0.118622,-2.135204 q -0.316326,0.553571 -0.543686,0.860012 -0.22736,0.296557 -0.543686,0.563457 -0.306442,0.266901 -0.72162,0.484375 -0.405294,0.207589 -0.909439,0.326212 -0.504145,0.118622 -1.067602,0.118622 -0.958865,0 -1.799107,-0.345982 -0.830358,-0.345982 -1.413585,-0.98852 -0.583227,-0.642539 -0.840242,-1.492666 -0.257016,-0.860013 -0.257016,-1.789222 0,-1.245536 0.484376,-2.451531 0.484375,-1.205995 1.364158,-1.986926 0.889668,-0.790817 2.006696,-1.097258 1.117029,-0.306442 2.37245,-0.306442 0.869898,0 2.066007,0.197705 0.04943,-1.077488 0.04943,-1.789223 0,-1.028061 -0.0099,-1.660714 l 0.899554,0.0099 q 0.336097,0 0.899554,-0.0099 l -0.286671,5.575256 -0.197705,6.385842 z m -1.423469,-8.797833 q -0.593112,-0.177933 -1.018176,-0.227359 -0.415179,-0.04943 -0.810587,-0.04943 -0.94898,0 -1.818878,0.276785 -0.860012,0.266901 -1.522321,0.889669 -0.652424,0.622768 -1.008291,1.581633 -0.355867,0.958865 -0.355867,1.878189 0,0.919324 0.336096,1.720025 0.336097,0.790817 1.037947,1.245536 0.711735,0.444834 1.650829,0.444834 0.563457,0 1.028062,-0.148278 0.464604,-0.158163 0.840242,-0.454719 0.385523,-0.296556 0.72162,-0.800702 0.336097,-0.504145 0.533801,-1.166454 0.168048,-0.583227 0.24713,-1.571748 0.03954,-0.484375 0.08897,-1.868303 z" />
    <path
       id="path1466"
       style="font-style:normal;font-variant:normal;font-weight:normal;font-stretch:normal;font-size:20.2449px;font-family:'Eras Medium ITC';-inkscape-font-specification:'Eras Medium ITC, Normal';font-variant-ligatures:normal;font-variant-caps:normal;font-variant-numeric:normal;font-variant-east-asian:normal;fill:#ffee00;fill-opacity:1;stroke-width:0.506123"
       d="m 51.006836,88.091562 -0.05931,-0.72162 q 0,-0.118623 -0.07908,-0.751276 1.522321,0.662309 2.807398,0.662309 0.672194,0 1.136799,-0.177934 0.464604,-0.177933 0.691964,-0.523915 0.237245,-0.355868 0.237245,-0.731506 0,-0.207589 -0.0692,-0.415178 -0.05931,-0.20759 -0.187819,-0.395408 -0.128507,-0.197705 -0.385523,-0.425064 -0.24713,-0.237245 -1.047831,-0.879783 -0.790817,-0.642539 -1.205995,-0.998406 -0.405294,-0.365753 -0.70185,-0.741391 -0.286671,-0.385523 -0.425064,-0.771046 -0.138393,-0.385523 -0.138393,-0.780931 0,-0.632653 0.395409,-1.225765 0.405293,-0.593112 1.156569,-0.879783 0.76116,-0.296557 1.779337,-0.296557 1.136798,0 2.500956,0.266901 0.03954,0.771046 0.09885,1.413584 -1.107142,-0.454719 -2.18463,-0.454719 -0.583227,0 -1.087372,0.158163 -0.494261,0.148278 -0.731506,0.45472 -0.227359,0.306441 -0.227359,0.672194 0,0.237244 0.07908,0.454719 0.07908,0.217474 0.276786,0.47449 0.207589,0.24713 0.49426,0.49426 0.286671,0.24713 1.136799,0.929209 0.860013,0.682079 1.176339,1.008291 0.316327,0.326212 0.543687,0.672194 0.227359,0.345982 0.326211,0.691964 0.108738,0.336097 0.108738,0.691965 0,0.691964 -0.415179,1.285076 -0.405293,0.593113 -1.21588,0.919325 -0.810587,0.326211 -1.818878,0.326211 -0.425064,0 -0.998406,-0.05931 -0.573341,-0.04943 -0.978635,-0.128508 -0.395408,-0.0692 -0.98852,-0.217474 z" />
  </g>
  <g
     style="font-style:normal;font-variant:normal;font-weight:normal;font-stretch:normal;font-size:18.201px;line-height:1.25;font-family:'Eras Medium ITC';-inkscape-font-specification:'Eras Medium ITC, Normal';font-variant-ligatures:normal;font-variant-caps:normal;font-variant-numeric:normal;font-variant-east-asian:normal;letter-spacing:0px;word-spacing:0px;fill:#ffee00;fill-opacity:1;stroke-width:0.455025"
     id="text1438-8"
     transform="matrix(0.9781852,0,0,1.0223013,0,-15.265762)"
     aria-label="Symm">
    <path
       id="path1471"
       style="stroke-width:0.455025"
       d="m 7.4862605,218.26314 q -0.035549,-0.84428 -0.1155337,-1.46638 0.9420439,0.44436 1.6885693,0.63099 0.7554126,0.17774 1.4486149,0.17774 0.66654,0 1.235322,-0.22218 0.577668,-0.23107 0.862059,-0.63988 0.293278,-0.4177 0.293278,-0.95093 0,-0.31105 -0.09776,-0.57767 -0.09776,-0.2755 -0.319939,-0.551 -0.213293,-0.28439 -0.755413,-0.75542 -0.533232,-0.47991 -1.519712,-1.3153 l -0.6576535,-0.5599 Q 9.1748298,211.71327 8.8726648,211.40222 8.5704997,211.08228 8.366094,210.79789 8.1616882,210.50461 8.0461545,210.27355 7.939508,210.03359 7.8772976,209.7492 q -0.06221,-0.29328 -0.06221,-0.59544 0,-0.7643 0.4176988,-1.43084 0.4176987,-0.66654 1.2530962,-1.06647 0.8442854,-0.39992 2.2218014,-0.39992 0.98648,0 2.426207,0.26661 0.01778,0.56879 0.124421,1.3953 -1.359742,-0.47991 -2.470642,-0.47991 -0.764301,0 -1.279758,0.25773 -0.5154586,0.24884 -0.7820748,0.64876 -0.2666162,0.39104 -0.2666162,0.80874 0,0.24884 0.071098,0.48879 0.071098,0.23107 0.213293,0.44436 0.2044057,0.31106 0.506571,0.631 0.302165,0.31105 0.835397,0.7643 0.133308,0.10664 1.013142,0.83539 0.888721,0.72875 1.288645,1.12868 0.408812,0.39992 0.648766,0.74652 0.239955,0.33772 0.373263,0.73764 0.133308,0.39104 0.133308,0.85317 0,0.71098 -0.311052,1.31531 -0.302165,0.59544 -0.879834,0.97759 -0.568781,0.38215 -1.27087,0.54212 -0.70209,0.15997 -1.46639,0.15997 -0.613217,0 -1.2708703,-0.0978 -0.6487662,-0.0889 -1.8574263,-0.4177 z" />
    <path
       id="path1473"
       style="stroke-width:0.455025"
       d="m 14.987063,222.69786 q -0.06221,-0.75541 -0.151082,-1.27976 0.44436,0.2133 0.82651,0.28439 0.38215,0.08 0.648766,0.08 0.346601,0 0.675428,-0.12442 0.328826,-0.12442 0.533232,-0.32883 0.204406,-0.2044 0.426586,-0.56878 0.231067,-0.35549 0.479909,-0.84428 0.257729,-0.4888 0.488797,-1.09313 l -1.892975,-5.39454 -1.386405,-3.85704 q 0.648766,0.0178 0.862059,0.0178 0.248842,0 0.808736,-0.0178 0.142195,0.6221 0.239955,0.95093 0.09776,0.32882 0.426586,1.34197 l 1.341968,4.07922 q 0.22218,0.69321 0.44436,1.49305 l 1.004255,-2.45286 1.857426,-4.34585 q 0.07999,-0.19552 0.151083,-0.39992 0.07998,-0.2133 0.239954,-0.66654 0.568781,0.0178 0.790962,0.0178 0.186631,0 0.82651,-0.0178 -0.346601,0.79096 -1.679682,3.68819 l -3.297154,7.33194 q -0.346601,0.73764 -0.630992,1.11979 -0.231067,0.30217 -0.497683,0.52435 -0.213293,0.18663 -0.47991,0.31994 -0.328826,0.15997 -0.710976,0.24884 -0.417699,0.0889 -0.853172,0.0889 -0.684315,0 -1.493051,-0.19552 z" />
    <path
       id="path1475"
       style="stroke-width:0.455025"
       d="m 25.367321,218.58308 0.09776,-1.28864 q 0.02666,-0.40881 0.0711,-1.28865 l 0.213293,-5.41231 q 0.0089,-0.66654 0.0089,-1.01314 0.417699,0.009 0.7643,0.009 0.373263,0 0.737638,-0.009 l -0.07998,1.65302 q 0.302165,-0.49768 0.542119,-0.79096 0.248842,-0.29328 0.648766,-0.54212 0.399925,-0.24884 0.906495,-0.38215 0.515458,-0.14219 1.066465,-0.14219 0.38215,0 0.755413,0.0889 0.373263,0.0889 0.684315,0.24884 0.319939,0.15997 0.542119,0.36438 0.231068,0.2044 0.364376,0.44436 0.142195,0.23995 0.284391,0.6932 0.542119,-1.02203 1.350855,-1.43084 0.817623,-0.40881 1.821878,-0.40881 0.639878,0 1.235321,0.2044 0.60433,0.20441 0.959819,0.58656 0.355488,0.38215 0.471022,0.79985 0.124421,0.40881 0.124421,0.82651 0,0.42658 -0.06221,1.27976 -0.06221,0.85317 -0.142195,2.60395 -0.07999,1.74189 -0.08887,2.90611 -0.471022,-0.0178 -0.737638,-0.0178 -0.284391,0 -0.844285,0.0178 0.09776,-1.19977 0.168857,-2.61283 l 0.115533,-2.20403 q 0.04444,-0.79985 0.04444,-1.37752 0,-0.51546 -0.106647,-0.79985 -0.106646,-0.29328 -0.346601,-0.52434 -0.231067,-0.23107 -0.577669,-0.3466 -0.346601,-0.12443 -0.790961,-0.12443 -0.355488,0 -0.657653,0.08 -0.284391,0.08 -0.551007,0.23995 -0.293278,0.16886 -0.524345,0.4177 -0.231068,0.23996 -0.391037,0.54212 -0.168857,0.31105 -0.275504,0.73764 -0.133308,0.53323 -0.186631,1.30642 -0.06221,0.82651 -0.09776,2.17737 l -0.0711,2.48841 q -0.515458,-0.0178 -0.773187,-0.0178 -0.239955,0 -0.808736,0.0178 0.08887,-1.10201 0.142195,-2.26623 l 0.106647,-2.15071 q 0.04444,-0.99537 0.04444,-1.69745 0,-0.45325 -0.08887,-0.7643 -0.08887,-0.31994 -0.337714,-0.57767 -0.239955,-0.26662 -0.586556,-0.39993 -0.346601,-0.14219 -0.7643,-0.14219 -0.44436,0 -0.844284,0.15997 -0.399925,0.15108 -0.737639,0.45324 -0.337713,0.30217 -0.568781,0.74653 -0.231067,0.43547 -0.364375,1.15534 -0.124421,0.71097 -0.204406,2.48842 -0.0711,1.77744 -0.0711,2.99498 -0.568781,-0.0178 -0.782074,-0.0178 -0.231067,0 -0.808736,0.0178 z" />
    <path
       id="path1477"
       style="stroke-width:0.455025"
       d="m 40.973257,218.58308 0.09776,-1.28864 q 0.02666,-0.40881 0.0711,-1.28865 l 0.213293,-5.41231 q 0.0089,-0.66654 0.0089,-1.01314 0.417699,0.009 0.7643,0.009 0.373263,0 0.737638,-0.009 l -0.07998,1.65302 q 0.302165,-0.49768 0.542119,-0.79096 0.248842,-0.29328 0.648766,-0.54212 0.399925,-0.24884 0.906495,-0.38215 0.515458,-0.14219 1.066465,-0.14219 0.38215,0 0.755413,0.0889 0.373263,0.0889 0.684315,0.24884 0.319939,0.15997 0.542119,0.36438 0.231068,0.2044 0.364376,0.44436 0.142195,0.23995 0.284391,0.6932 0.542119,-1.02203 1.350855,-1.43084 0.817623,-0.40881 1.821878,-0.40881 0.639878,0 1.235321,0.2044 0.60433,0.20441 0.959819,0.58656 0.355488,0.38215 0.471022,0.79985 0.124421,0.40881 0.124421,0.82651 0,0.42658 -0.06221,1.27976 -0.06221,0.85317 -0.142195,2.60395 -0.07998,1.74189 -0.08887,2.90611 -0.471022,-0.0178 -0.737638,-0.0178 -0.284391,0 -0.844285,0.0178 0.09776,-1.19977 0.168857,-2.61283 l 0.115534,-2.20403 q 0.04444,-0.79985 0.04444,-1.37752 0,-0.51546 -0.106647,-0.79985 -0.106646,-0.29328 -0.346601,-0.52434 -0.231067,-0.23107 -0.577668,-0.3466 -0.346602,-0.12443 -0.790962,-0.12443 -0.355488,0 -0.657653,0.08 -0.284391,0.08 -0.551007,0.23995 -0.293278,0.16886 -0.524345,0.4177 -0.231068,0.23996 -0.391037,0.54212 -0.168857,0.31105 -0.275504,0.73764 -0.133308,0.53323 -0.186631,1.30642 -0.06221,0.82651 -0.09776,2.17737 l -0.0711,2.48841 q -0.515458,-0.0178 -0.773187,-0.0178 -0.239955,0 -0.808736,0.0178 0.08887,-1.10201 0.142195,-2.26623 l 0.106647,-2.15071 q 0.04444,-0.99537 0.04444,-1.69745 0,-0.45325 -0.08887,-0.7643 -0.08887,-0.31994 -0.337714,-0.57767 -0.239955,-0.26662 -0.586556,-0.39993 -0.346601,-0.14219 -0.7643,-0.14219 -0.44436,0 -0.844284,0.15997 -0.399925,0.15108 -0.737638,0.45324 -0.337714,0.30217 -0.568782,0.74653 -0.231067,0.43547 -0.364375,1.15534 -0.124421,0.71097 -0.204406,2.48842 -0.0711,1.77744 -0.0711,2.99498 -0.568781,-0.0178 -0.782074,-0.0178 -0.231067,0 -0.808736,0.0178 z" />
  </g>
</svg>
