<?xml version="1.0" encoding="UTF-8" standalone="no"?>
<svg
   xmlns:dc="http://purl.org/dc/elements/1.1/"
   xmlns:cc="http://creativecommons.org/ns#"
   xmlns:rdf="http://www.w3.org/1999/02/22-rdf-syntax-ns#"
   xmlns:svg="http://www.w3.org/2000/svg"
   xmlns="http://www.w3.org/2000/svg"
   xmlns:sodipodi="http://sodipodi.sourceforge.net/DTD/sodipodi-0.dtd"
   xmlns:inkscape="http://www.inkscape.org/namespaces/inkscape"
   inkscape:version="1.0 (4035a4fb49, 2020-05-01)"
   sodipodi:docname="LPFBank.svg"
   id="svg190"
   viewBox="0 0 20.32 128.5"
   version="1.1"
   height="128.5mm"
   width="20.32mm">
  <metadata
     id="metadata196">
    <rdf:RDF>
      <cc:Work
         rdf:about="">
        <dc:format>image/svg+xml</dc:format>
        <dc:type
           rdf:resource="http://purl.org/dc/dcmitype/StillImage" />
      </cc:Work>
    </rdf:RDF>
  </metadata>
  <defs
     id="defs194" />
  <sodipodi:namedview
     inkscape:current-layer="svg190"
     inkscape:window-maximized="0"
     inkscape:window-y="0"
     inkscape:window-x="623"
     inkscape:cy="207.14088"
     inkscape:cx="38.399999"
     inkscape:zoom="1.7089818"
     showgrid="false"
     id="namedview192"
     inkscape:window-height="991"
     inkscape:window-width="1287"
     inkscape:pageshadow="2"
     inkscape:pageopacity="0"
     guidetolerance="10"
     gridtolerance="10"
     objecttolerance="10"
     borderopacity="1"
     bordercolor="#666666"
     pagecolor="#ffffff" />
  <path
     d="M 0,9.155e-8 H 20.32 V 128.5 H 0 Z"
     style="fill:#979799;paint-order:markers stroke fill"
     id="rect2" />
  <g
     id="g170"
     stroke-width="3.615"
     transform="translate(-34.08 2.8)">
    <path
       d="m 34.57,-125.7 h 0.2448 V 2.8000031 H 34.57 Z"
       transform="scale(1,-1)"
       style="fill:#90a2a8;paint-order:markers stroke fill"
       id="rect4" />
    <path
       d="m 34.82,-125.7 h 0.2448 V 2.8000031 H 34.82 Z"
       transform="scale(1,-1)"
       style="fill:#919699;paint-order:markers stroke fill"
       id="rect6" />
    <path
       d="m 35.060001,-125.7 h 0.2448 V 2.8000031 h -0.2448 z"
       transform="scale(1,-1)"
       style="fill:#959698;paint-order:markers stroke fill"
       id="rect8" />
    <path
       d="m 35.310001,-125.7 h 0.2448 V 2.8000031 h -0.2448 z"
       transform="scale(1,-1)"
       style="fill:#99989a;paint-order:markers stroke fill"
       id="rect10" />
    <path
       d="m 35.799999,-125.7 h 0.2448 V 2.8000031 h -0.2448 z"
       transform="scale(1,-1)"
       style="fill:#95989a;paint-order:markers stroke fill"
       id="rect12" />
    <path
       d="m 36.290001,-125.7 h 0.2448 V 2.8000031 h -0.2448 z"
       transform="scale(1,-1)"
       style="fill:#929596;paint-order:markers stroke fill"
       id="rect14" />
    <path
       d="m 36.77,-125.7 h 0.2448 V 2.8000031 H 36.77 Z"
       transform="scale(1,-1)"
       style="fill:#9c9c9d;paint-order:markers stroke fill"
       id="rect16" />
    <path
       d="m 37.259998,-125.7 h 0.2448 V 2.8000031 h -0.2448 z"
       transform="scale(1,-1)"
       style="fill:#a4a2a4;paint-order:markers stroke fill"
       id="rect18" />
    <path
       d="m 37.75,-125.7 h 0.2448 V 2.8000031 H 37.75 Z"
       transform="scale(1,-1)"
       style="fill:#9fa1a3;paint-order:markers stroke fill"
       id="rect20" />
    <path
       d="m 38.240002,-125.7 h 0.2448 V 2.8000031 h -0.2448 z"
       transform="scale(1,-1)"
       style="fill:#9a9c9e;paint-order:markers stroke fill"
       id="rect22" />
    <path
       d="m 38.73,-125.7 h 0.2448 V 2.8000031 H 38.73 Z"
       transform="scale(1,-1)"
       style="fill:#929294;paint-order:markers stroke fill"
       id="rect24" />
    <path
       d="m 39.220001,-125.7 h 0.2448 V 2.8000031 h -0.2448 z"
       transform="scale(1,-1)"
       style="fill:#9b9c9e;paint-order:markers stroke fill"
       id="rect26" />
    <path
       d="m 39.709999,-125.7 h 0.2448 V 2.8000031 h -0.2448 z"
       transform="scale(1,-1)"
       style="fill:#9c9c9d;paint-order:markers stroke fill"
       id="rect28" />
    <path
       d="m 40.200001,-125.7 h 0.2448 V 2.8000031 h -0.2448 z"
       transform="scale(1,-1)"
       style="fill:#a0a1a3;paint-order:markers stroke fill"
       id="rect30" />
    <path
       d="m 40.689999,-125.7 h 0.2448 V 2.8000031 h -0.2448 z"
       transform="scale(1,-1)"
       style="fill:#a2a1a3;paint-order:markers stroke fill"
       id="rect32" />
    <path
       d="m 41.18,-125.7 h 0.2448 V 2.8000031 H 41.18 Z"
       transform="scale(1,-1)"
       style="fill:#a2a0a1;paint-order:markers stroke fill"
       id="rect34" />
    <path
       d="m 41.669998,-125.7 h 0.2448 V 2.8000031 h -0.2448 z"
       transform="scale(1,-1)"
       style="fill:#8f9395;paint-order:markers stroke fill"
       id="rect36" />
    <path
       d="m 42.16,-125.7 h 0.2448 V 2.8000031 H 42.16 Z"
       transform="scale(1,-1)"
       style="fill:#93999b;paint-order:markers stroke fill"
       id="rect38" />
    <path
       d="m 42.650002,-125.7 h 0.2448 V 2.8000031 h -0.2448 z"
       transform="scale(1,-1)"
       style="fill:#a6a1a1;paint-order:markers stroke fill"
       id="rect40" />
    <path
       d="m 43.139999,-125.7 h 0.2448 V 2.8000031 h -0.2448 z"
       transform="scale(1,-1)"
       style="fill:#9b9a9b;paint-order:markers stroke fill"
       id="rect42" />
    <path
       d="m 43.630001,-125.7 h 0.2448 V 2.8000031 h -0.2448 z"
       transform="scale(1,-1)"
       style="fill:#a4a1a2;paint-order:markers stroke fill"
       id="rect44" />
    <path
       d="m 43.869999,-125.7 h 0.2448 V 2.8000031 h -0.2448 z"
       transform="scale(1,-1)"
       style="fill:#969a9c;paint-order:markers stroke fill"
       id="rect46" />
    <path
       d="m 44.360001,-125.7 h 0.2448 V 2.8000031 h -0.2448 z"
       transform="scale(1,-1)"
       style="fill:#8d8d8f;paint-order:markers stroke fill"
       id="rect48" />
    <path
       d="m 44.849998,-125.7 h 0.2448 V 2.8000031 h -0.2448 z"
       transform="scale(1,-1)"
       style="fill:#939395;paint-order:markers stroke fill"
       id="rect50" />
    <path
       d="m 45.34,-125.7 h 0.2448 V 2.8000031 H 45.34 Z"
       transform="scale(1,-1)"
       style="fill:#909092;paint-order:markers stroke fill"
       id="rect52" />
    <path
       d="m 45.59,-125.7 h 0.2448 V 2.8000031 H 45.59 Z"
       transform="scale(1,-1)"
       style="fill:#9b9a9c;paint-order:markers stroke fill"
       id="rect54" />
    <path
       d="m 45.830002,-125.7 h 0.2448 V 2.8000031 h -0.2448 z"
       transform="scale(1,-1)"
       style="fill:#959395;paint-order:markers stroke fill"
       id="rect56" />
    <path
       d="m 46.080002,-125.7 h 0.2448 V 2.8000031 h -0.2448 z"
       transform="scale(1,-1)"
       style="fill:#8e8f90;paint-order:markers stroke fill"
       id="rect58" />
    <path
       d="m 46.32,-125.7 h 0.2448 V 2.8000031 H 46.32 Z"
       transform="scale(1,-1)"
       style="fill:#909092;paint-order:markers stroke fill"
       id="rect60" />
    <path
       d="m 46.57,-125.7 h 0.2448 V 2.8000031 H 46.57 Z"
       transform="scale(1,-1)"
       style="fill:#9b9b9c;paint-order:markers stroke fill"
       id="rect62" />
    <path
       d="m 46.810001,-125.7 h 0.2448 V 2.8000031 h -0.2448 z"
       transform="scale(1,-1)"
       style="fill:#a29fa0;paint-order:markers stroke fill"
       id="rect64" />
    <path
       d="m 47.060001,-125.7 h 0.2448 V 2.8000031 h -0.2448 z"
       transform="scale(1,-1)"
       style="fill:#96999b;paint-order:markers stroke fill"
       id="rect66" />
    <path
       d="m 47.299999,-125.7 h 0.2448 V 2.8000031 h -0.2448 z"
       transform="scale(1,-1)"
       style="fill:#8e9395;paint-order:markers stroke fill"
       id="rect68" />
    <path
       d="m 47.549999,-125.7 h 0.2448 V 2.8000031 h -0.2448 z"
       transform="scale(1,-1)"
       style="fill:#a5a1a1;paint-order:markers stroke fill"
       id="rect70" />
    <path
       d="m 47.790001,-125.7 h 0.2448 V 2.8000031 h -0.2448 z"
       transform="scale(1,-1)"
       style="fill:#9b999b;paint-order:markers stroke fill"
       id="rect72" />
    <path
       d="m 48.040001,-125.7 h 0.2448 V 2.8000031 h -0.2448 z"
       transform="scale(1,-1)"
       style="fill:#8d9294;paint-order:markers stroke fill"
       id="rect74" />
    <path
       d="m 48.279999,-125.7 h 0.2448 V 2.8000031 h -0.2448 z"
       transform="scale(1,-1)"
       style="fill:#a5a3a4;paint-order:markers stroke fill"
       id="rect76" />
    <path
       d="m 48.529999,-125.7 h 0.2448 V 2.8000031 h -0.2448 z"
       transform="scale(1,-1)"
       style="fill:#a1a2a4;paint-order:markers stroke fill"
       id="rect78" />
    <path
       d="m 48.77,-125.7 h 0.2448 V 2.8000031 H 48.77 Z"
       transform="scale(1,-1)"
       style="fill:#95989b;paint-order:markers stroke fill"
       id="rect80" />
    <path
       d="m 49.009998,-125.7 h 0.2448 V 2.8000031 h -0.2448 z"
       transform="scale(1,-1)"
       style="fill:#969798;paint-order:markers stroke fill"
       id="rect82" />
    <path
       d="m 49.259998,-125.7 h 0.2448 V 2.8000031 h -0.2448 z"
       transform="scale(1,-1)"
       style="fill:#929395;paint-order:markers stroke fill"
       id="rect84" />
    <path
       d="m 49.5,-125.7 h 0.2448 V 2.8000031 H 49.5 Z"
       transform="scale(1,-1)"
       style="fill:#999b9c;paint-order:markers stroke fill"
       id="rect86" />
    <path
       d="m 49.75,-125.7 h 0.2448 V 2.8000031 H 49.75 Z"
       transform="scale(1,-1)"
       style="fill:#a2a2a3;paint-order:markers stroke fill"
       id="rect88" />
    <path
       d="m 49.990002,-125.7 h 0.2448 V 2.8000031 h -0.2448 z"
       transform="scale(1,-1)"
       style="fill:#a0a3a5;paint-order:markers stroke fill"
       id="rect90" />
    <path
       d="m 50.240002,-125.7 h 0.2448 V 2.8000031 h -0.2448 z"
       transform="scale(1,-1)"
       style="fill:#919395;paint-order:markers stroke fill"
       id="rect92" />
    <path
       d="m 50.48,-125.7 h 0.2448 V 2.8000031 H 50.48 Z"
       transform="scale(1,-1)"
       style="fill:#a19d9e;paint-order:markers stroke fill"
       id="rect94" />
    <path
       d="m 50.73,-125.7 h 0.2448 V 2.8000031 H 50.73 Z"
       transform="scale(1,-1)"
       style="fill:#8d8f91;paint-order:markers stroke fill"
       id="rect96" />
    <path
       d="m 50.970001,-125.7 h 0.2448 V 2.8000031 h -0.2448 z"
       transform="scale(1,-1)"
       style="fill:#8e8f90;paint-order:markers stroke fill"
       id="rect98" />
    <path
       d="m 51.220001,-125.7 h 0.2448 V 2.8000031 h -0.2448 z"
       transform="scale(1,-1)"
       style="fill:#929597;paint-order:markers stroke fill"
       id="rect100" />
    <path
       d="m 51.459999,-125.7 h 0.2448 V 2.8000031 h -0.2448 z"
       transform="scale(1,-1)"
       style="fill:#9b9a9c;paint-order:markers stroke fill"
       id="rect102" />
    <path
       d="m 51.709999,-125.7 h 0.2448 V 2.8000031 h -0.2448 z"
       transform="scale(1,-1)"
       style="fill:#999698;paint-order:markers stroke fill"
       id="rect104" />
    <path
       d="m 51.950001,-125.7 h 0.2448 V 2.8000031 h -0.2448 z"
       transform="scale(1,-1)"
       style="fill:#8f9293;paint-order:markers stroke fill"
       id="rect106" />
    <path
       d="m 52.200001,-125.7 h 0.2448 V 2.8000031 h -0.2448 z"
       transform="scale(1,-1)"
       style="fill:#8f9293;paint-order:markers stroke fill"
       id="rect108" />
    <path
       d="m 52.439999,-125.7 h 0.2448 V 2.8000031 h -0.2448 z"
       transform="scale(1,-1)"
       style="fill:#a09c9c;paint-order:markers stroke fill"
       id="rect110" />
    <path
       d="m 52.689999,-125.7 h 0.2448 V 2.8000031 h -0.2448 z"
       transform="scale(1,-1)"
       style="fill:#919496;paint-order:markers stroke fill"
       id="rect112" />
    <path
       d="m 52.93,-125.7 h 0.2448 V 2.8000031 H 52.93 Z"
       transform="scale(1,-1)"
       style="fill:#919496;paint-order:markers stroke fill"
       id="rect114" />
    <path
       d="m 53.18,-125.7 h 0.2448 V 2.8000031 H 53.18 Z"
       transform="scale(1,-1)"
       style="fill:#8d9092;paint-order:markers stroke fill"
       id="rect116" />
    <path
       d="m 53.419998,-125.7 h 0.2448 V 2.8000031 h -0.2448 z"
       transform="scale(1,-1)"
       style="fill:#9b9a9c;paint-order:markers stroke fill"
       id="rect118" />
    <path
       d="m 53.669998,-125.7 h 0.2448 V 2.8000031 h -0.2448 z"
       transform="scale(1,-1)"
       style="fill:#9d9d9f;paint-order:markers stroke fill"
       id="rect120" />
    <path
       d="m 53.91,-125.7 h 0.2448 V 2.8000031 H 53.91 Z"
       transform="scale(1,-1)"
       style="fill:#949799;paint-order:markers stroke fill"
       id="rect122" />
    <path
       d="m 54.16,-125.7 h 0.2448 V 2.8000031 H 54.16 Z"
       transform="scale(1,-1)"
       style="fill:#999d9f;paint-order:markers stroke fill"
       id="rect124" />
    <path
       d="m 35.549999,-125.7 h 0.2448 V 2.8000031 h -0.2448 z"
       transform="scale(1,-1)"
       style="fill:#939395;paint-order:markers stroke fill"
       id="rect126" />
    <path
       d="m 36.040001,-125.7 h 0.2448 V 2.8000031 h -0.2448 z"
       transform="scale(1,-1)"
       style="fill:#93999b;paint-order:markers stroke fill"
       id="rect128" />
    <path
       d="m 36.529999,-125.7 h 0.2448 V 2.8000031 h -0.2448 z"
       transform="scale(1,-1)"
       style="fill:#a6a1a1;paint-order:markers stroke fill"
       id="rect130" />
    <path
       d="m 37.02,-125.7 h 0.2448 V 2.8000031 H 37.02 Z"
       transform="scale(1,-1)"
       style="fill:#9b9a9b;paint-order:markers stroke fill"
       id="rect132" />
    <path
       d="m 37.509998,-125.7 h 0.2448 V 2.8000031 h -0.2448 z"
       transform="scale(1,-1)"
       style="fill:#a4a1a2;paint-order:markers stroke fill"
       id="rect134" />
    <path
       d="m 38,-125.7 h 0.2448 V 2.8000031 H 38 Z"
       transform="scale(1,-1)"
       style="fill:#969a9c;paint-order:markers stroke fill"
       id="rect136" />
    <path
       d="m 38.490002,-125.7 h 0.2448 V 2.8000031 h -0.2448 z"
       transform="scale(1,-1)"
       style="fill:#8d8d8f;paint-order:markers stroke fill"
       id="rect138" />
    <path
       d="m 38.98,-125.7 h 0.2448 V 2.8000031 H 38.98 Z"
       transform="scale(1,-1)"
       style="fill:#939395;paint-order:markers stroke fill"
       id="rect140" />
    <path
       d="m 39.470001,-125.7 h 0.2448 V 2.8000031 h -0.2448 z"
       transform="scale(1,-1)"
       style="fill:#909092;paint-order:markers stroke fill"
       id="rect142" />
    <path
       d="m 39.959999,-125.7 h 0.2448 V 2.8000031 h -0.2448 z"
       transform="scale(1,-1)"
       style="fill:#9b9a9c;paint-order:markers stroke fill"
       id="rect144" />
    <path
       d="m 40.450001,-125.7 h 0.2448 V 2.8000031 h -0.2448 z"
       transform="scale(1,-1)"
       style="fill:#959395;paint-order:markers stroke fill"
       id="rect146" />
    <path
       d="m 40.939999,-125.7 h 0.2448 V 2.8000031 h -0.2448 z"
       transform="scale(1,-1)"
       style="fill:#8e8f90;paint-order:markers stroke fill"
       id="rect148" />
    <path
       d="m 41.43,-125.7 h 0.2448 V 2.8000031 H 41.43 Z"
       transform="scale(1,-1)"
       style="fill:#909092;paint-order:markers stroke fill"
       id="rect150" />
    <path
       d="m 41.919998,-125.7 h 0.2448 V 2.8000031 h -0.2448 z"
       transform="scale(1,-1)"
       style="fill:#9b9b9c;paint-order:markers stroke fill"
       id="rect152" />
    <path
       d="m 42.41,-125.7 h 0.2448 V 2.8000031 H 42.41 Z"
       transform="scale(1,-1)"
       style="fill:#a29fa0;paint-order:markers stroke fill"
       id="rect154" />
    <path
       d="m 42.889999,-125.7 h 0.2448 V 2.8000031 h -0.2448 z"
       transform="scale(1,-1)"
       style="fill:#96999b;paint-order:markers stroke fill"
       id="rect156" />
    <path
       d="m 43.380001,-125.7 h 0.2448 V 2.8000031 h -0.2448 z"
       transform="scale(1,-1)"
       style="fill:#8e9395;paint-order:markers stroke fill"
       id="rect158" />
    <path
       d="m 44.119999,-125.7 h 0.2448 V 2.8000031 h -0.2448 z"
       transform="scale(1,-1)"
       style="fill:#a5a1a1;paint-order:markers stroke fill"
       id="rect160" />
    <path
       d="m 44.610001,-125.7 h 0.2448 V 2.8000031 h -0.2448 z"
       transform="scale(1,-1)"
       style="fill:#9b999b;paint-order:markers stroke fill"
       id="rect162" />
    <path
       d="m 45.099998,-125.7 h 0.2448 V 2.8000031 h -0.2448 z"
       transform="scale(1,-1)"
       style="fill:#8d9294;paint-order:markers stroke fill"
       id="rect164" />
    <path
       d="m 34.080002,-125.7 h 0.2448 V 2.8000031 h -0.2448 z"
       transform="scale(1,-1)"
       style="fill:#a5a3a4;paint-order:markers stroke fill"
       id="rect166" />
    <path
       d="m 34.330002,-125.7 h 0.2448 V 2.8000031 h -0.2448 z"
       transform="scale(1,-1)"
       style="fill:#a1a2a4;paint-order:markers stroke fill"
       id="rect168" />
  </g>
  <path
     d="m 0,11.01 h 20.32 v 106.5 H 0 Z"
     style="fill:#28727b;stroke-width:0.5757;paint-order:stroke fill markers"
     id="rect172" />
  <path
     id="path174"
     style="paint-order:markers fill stroke"
     fill="#ccc"
     d="m10.1 118.4a2.15 2.15 0 0 0-2.149 2.149 2.15 2.15 0 0 0 2.149 2.15 2.15 2.15 0 0 0 2.15-2.15 2.15 2.15 0 0 0-2.15-2.149zm4e-3 0.1969 0.3416 1.068 0.9508-0.5938-0.4248 1.038 1.111 0.1561-0.9922 0.5219 0.7498 0.8335-1.096-0.2382 0.0388 1.12-0.6863-0.8862-0.6904 0.8832 0.0439-1.12-1.097 0.2331 0.754-0.8299-0.9896-0.5266 1.111-0.1509-0.4201-1.04 0.9483 0.5984zm0.3344 1.067-0.3406 0.2739-0.3416-0.2723-0.0847 0.4289-0.4372 0.0109 0.2108 0.3829-0.3276 0.2894 0.4072 0.1581-0.0646 0.432 0.4139-0.1406 0.2279 0.3726 0.2264-0.3736 0.4144 0.139-0.0672-0.432 0.4067-0.1602-0.3287-0.2878 0.2088-0.384-0.4367-9e-3z" />
  <path
     id="path176"
     style="paint-order:markers fill stroke"
     fill="#333"
     d="m10.1 118.5a2.15 2.15 0 0 0-2.149 2.149 2.15 2.15 0 0 0 2.149 2.15 2.15 2.15 0 0 0 2.15-2.15 2.15 2.15 0 0 0-2.15-2.149zm4e-3 0.1969 0.3416 1.068 0.9508-0.5938-0.4248 1.038 1.111 0.1561-0.9922 0.5219 0.7498 0.8335-1.096-0.2382 0.0388 1.12-0.6863-0.8862-0.6904 0.8832 0.0439-1.12-1.097 0.2331 0.754-0.8299-0.9896-0.5266 1.111-0.1509-0.4201-1.04 0.9483 0.5984zm0.3344 1.067-0.3406 0.2739-0.3416-0.2723-0.0847 0.4289-0.4372 0.0109 0.2108 0.3829-0.3276 0.2894 0.4072 0.1581-0.0646 0.432 0.4139-0.1406 0.2279 0.3726 0.2264-0.3736 0.4144 0.139-0.0672-0.432 0.4067-0.1602-0.3287-0.2878 0.2088-0.384-0.4367-9e-3z" />
  <g
     style="font-weight:800;font-size:5.514px;line-height:1.25;font-family:Urbanist;font-variant-ligatures:normal;font-variant-caps:normal;font-variant-numeric:normal;font-feature-settings:normal;letter-spacing:0px;word-spacing:0px;fill:#cccccc;stroke-width:0.1378"
     id="text180"
     aria-label="LPF">
    <path
       id="path1028"
       style="font-weight:800;font-size:5.514px;font-family:Urbanist;font-variant-ligatures:normal;font-variant-caps:normal;font-variant-numeric:normal;font-feature-settings:normal;text-align:center;text-anchor:middle;fill:#cccccc;stroke-width:0.1378"
       d="m 6.1152574,5.6101145 h 0.66168 v 3.1981199 h 1.612845 v 0.66168 h -2.274525 z" />
    <path
       id="path1030"
       style="font-weight:800;font-size:5.514px;font-family:Urbanist;font-variant-ligatures:normal;font-variant-caps:normal;font-variant-numeric:normal;font-feature-settings:normal;text-align:center;text-anchor:middle;fill:#cccccc;stroke-width:0.1378"
       d="m 10.374478,5.6101145 q 0.308784,0 0.565185,0.157149 0.259158,0.157149 0.408036,0.424578 0.148878,0.264672 0.148878,0.57897 0,0.317055 -0.154392,0.584484 -0.151635,0.264672 -0.410793,0.421821 -0.256401,0.154392 -0.556914,0.154392 H 9.6631717 v 1.5384059 h -0.66168 V 5.6101145 Z m -0.06893,1.659714 q 0.143364,0 0.264672,-0.071682 0.121308,-0.074439 0.19299,-0.198504 0.07168,-0.126822 0.07168,-0.2757 0,-0.148878 -0.07168,-0.272943 -0.07168,-0.124065 -0.19299,-0.195747 -0.121308,-0.074439 -0.264672,-0.074439 H 9.6631717 v 1.089015 z" />
    <path
       id="path1032"
       style="font-weight:800;font-size:5.514px;font-family:Urbanist;font-variant-ligatures:normal;font-variant-caps:normal;font-variant-numeric:normal;font-feature-settings:normal;text-align:center;text-anchor:middle;fill:#cccccc;stroke-width:0.1378"
       d="m 11.995422,5.6101145 h 2.280039 v 0.66168 h -1.618359 v 0.79953 h 1.353687 v 0.66168 h -1.353687 v 1.7369099 h -0.66168 z" />
  </g>
  <g
     style="font-weight:800;font-size:5.514px;line-height:1.25;font-family:Urbanist;font-variant-ligatures:normal;font-variant-caps:normal;font-variant-numeric:normal;font-feature-settings:normal;text-align:center;letter-spacing:0px;word-spacing:0px;text-anchor:middle;fill:#333333;stroke-width:0.1378"
     id="text184"
     aria-label="LPF">
    <path
       id="path1021"
       style="font-weight:800;font-size:5.514px;font-family:Urbanist;font-variant-ligatures:normal;font-variant-caps:normal;font-variant-numeric:normal;font-feature-settings:normal;text-align:center;text-anchor:middle;fill:#333333;stroke-width:0.1378"
       d="m 6.1152574,5.685284 h 0.66168 v 3.19812 h 1.612845 v 0.66168 h -2.274525 z" />
    <path
       id="path1023"
       style="font-weight:800;font-size:5.514px;font-family:Urbanist;font-variant-ligatures:normal;font-variant-caps:normal;font-variant-numeric:normal;font-feature-settings:normal;text-align:center;text-anchor:middle;fill:#333333;stroke-width:0.1378"
       d="m 10.374478,5.685284 q 0.308784,0 0.565185,0.157149 0.259158,0.157149 0.408036,0.424578 0.148878,0.264672 0.148878,0.57897 0,0.317055 -0.154392,0.584484 -0.151635,0.264672 -0.410793,0.421821 -0.256401,0.154392 -0.556914,0.154392 H 9.6631717 v 1.538406 h -0.66168 v -3.8598 z m -0.06893,1.659714 q 0.143364,0 0.264672,-0.071682 0.121308,-0.074439 0.19299,-0.198504 0.07168,-0.126822 0.07168,-0.2757 0,-0.148878 -0.07168,-0.272943 Q 10.691533,6.402104 10.570225,6.330422 10.448917,6.255983 10.305553,6.255983 H 9.6631717 v 1.089015 z" />
    <path
       id="path1025"
       style="font-weight:800;font-size:5.514px;font-family:Urbanist;font-variant-ligatures:normal;font-variant-caps:normal;font-variant-numeric:normal;font-feature-settings:normal;text-align:center;text-anchor:middle;fill:#333333;stroke-width:0.1378"
       d="m 11.995422,5.685284 h 2.280039 v 0.66168 h -1.618359 v 0.79953 h 1.353687 v 0.66168 h -1.353687 v 1.73691 h -0.66168 z" />
  </g>
</svg>
