<?xml version="1.0" encoding="UTF-8" standalone="no"?>
<svg
   xmlns:dc="http://purl.org/dc/elements/1.1/"
   xmlns:cc="http://creativecommons.org/ns#"
   xmlns:rdf="http://www.w3.org/1999/02/22-rdf-syntax-ns#"
   xmlns:svg="http://www.w3.org/2000/svg"
   xmlns="http://www.w3.org/2000/svg"
   xmlns:sodipodi="http://sodipodi.sourceforge.net/DTD/sodipodi-0.dtd"
   xmlns:inkscape="http://www.inkscape.org/namespaces/inkscape"
   version="1.0"
   width="20.32mm"
   height="128.5mm"
   viewBox="0 0 57.599997 364.25198"
   preserveAspectRatio="xMidYMid meet"
   id="svg851"
   sodipodi:docname="LPFBank.svg"
   inkscape:version="1.0 (4035a4fb49, 2020-05-01)">
  <defs
     id="defs855" />
  <sodipodi:namedview
     inkscape:document-rotation="0"
     pagecolor="#ffffff"
     bordercolor="#666666"
     borderopacity="1"
     objecttolerance="10"
     gridtolerance="10"
     guidetolerance="10"
     inkscape:pageopacity="0"
     inkscape:pageshadow="2"
     inkscape:window-width="1920"
     inkscape:window-height="1001"
     id="namedview853"
     showgrid="false"
     inkscape:zoom="1.572644"
     inkscape:cx="41.333333"
     inkscape:cy="254.66667"
     inkscape:window-x="-9"
     inkscape:window-y="-9"
     inkscape:window-maximized="1"
     inkscape:current-layer="svg851"
     inkscape:document-units="mm"
     units="mm" />
  <metadata
     id="metadata845">
Created by potrace 1.15, written by Peter Selinger 2001-2017
<rdf:RDF>
  <cc:Work
     rdf:about="">
    <dc:format>image/svg+xml</dc:format>
    <dc:type
       rdf:resource="http://purl.org/dc/dcmitype/StillImage" />
    <dc:title />
  </cc:Work>
</rdf:RDF>
</metadata>
  <g
     transform="matrix(0.09442623,0,0,-0.09560419,0.05573772,365.25196)"
     fill="#000000"
     stroke="none"
     id="g849"
     style="fill:#2f5d68;fill-opacity:1">
    <path
       d="M 10,1905 V 0 H 315 620 V 1905 3810 H 315 10 Z"
       id="path847"
       style="fill:#2f5d68;fill-opacity:1" />
  </g>
  <g
     aria-label="LPF Bank"
     transform="matrix(0.76549914,0,0,1.3063372,0,1.8176837)"
     id="text859"
     style="font-style:normal;font-variant:normal;font-weight:normal;font-stretch:normal;font-size:14.3149px;line-height:1.25;font-family:'Eras Bold ITC';-inkscape-font-specification:'Eras Bold ITC, Normal';font-variant-ligatures:normal;font-variant-caps:normal;font-variant-numeric:normal;font-variant-east-asian:normal;letter-spacing:0px;word-spacing:0px;fill:#ffee00;fill-opacity:1;stroke-width:0.357872">
    <path
       d="m 6.1502324,21.210955 q 0.1747425,-1.649569 0.2516291,-2.691034 0.1467837,-1.901198 0.2166807,-3.774436 0.076887,-1.880229 0.076887,-3.075467 0.9505989,0.01398 1.6845171,0.01398 0.4962685,0 1.4258983,-0.01398 l -0.1677527,2.53027 -0.209691,3.956169 -0.027959,0.971568 q 1.2022281,0.02097 1.5656921,0.02097 1.83829,0 2.7819,-0.04893 l -0.153774,2.110889 q -1.83829,-0.01398 -3.501838,-0.01398 -2.2506826,0 -3.9421894,0.01398 z"
       style="stroke-width:0.357872"
       id="path1990" />
    <path
       d="m 14.635725,21.210955 0.139794,-1.789363 0.181732,-3.494849 0.07689,-2.474353 q 0.007,-0.398412 0.007,-0.796825 0,-0.300557 -0.007,-0.985547 0.92264,0.02097 1.481816,0.02097 0.538207,0 1.474826,-0.02796 0.93662,-0.03495 1.586661,-0.03495 0.93662,0 1.383961,0.118825 0.45433,0.118825 0.817794,0.377444 0.363464,0.251629 0.601114,0.594124 0.23765,0.342495 0.356475,0.782846 0.118825,0.433362 0.118825,0.887692 0,0.936619 -0.454331,1.712476 -0.45433,0.775856 -1.279114,1.16029 -0.824785,0.384433 -1.85227,0.384433 -0.377444,0 -0.873712,-0.08388 -0.05592,-0.321526 -0.209691,-0.957589 -0.153774,-0.636062 -0.251629,-0.943609 0.307546,0.06291 0.643052,0.06291 0.705959,0 1.048454,-0.335505 0.349485,-0.342495 0.349485,-0.831774 0,-0.23765 -0.07689,-0.419382 -0.07689,-0.188722 -0.24464,-0.307547 -0.167753,-0.118825 -0.370454,-0.153773 -0.202701,-0.03495 -0.46132,-0.03495 -0.251629,0 -0.524227,0.01398 l -0.587135,0.04194 q -0.09087,1.349012 -0.139794,2.99858 -0.09087,3.00557 -0.09087,3.606684 v 0.908661 l -1.39095,-0.01398 q -0.293567,0 -1.453857,0.01398 z"
       style="stroke-width:0.357872"
       id="path1992" />
    <path
       d="m 23.778251,21.210955 q 0.146784,-1.418909 0.202701,-2.278642 0.08388,-1.272125 0.160763,-3.494848 0.07689,-2.229714 0.07689,-2.998581 v -0.768866 q 2.103899,0.01398 3.914231,0.01398 1.824311,0 3.508828,-0.01398 -0.111836,1.60763 -0.111836,2.103899 l -0.608103,-0.02097 -0.489279,-0.007 -0.489279,-0.007 h -1.37697 q -0.23765,0 -1.39095,0.01398 l -0.06291,1.6286 1.013506,0.02097 h 1.132331 q 0.489279,0 1.495795,-0.02097 -0.07689,1.321053 -0.07689,2.06895 -1.125341,-0.03495 -1.670537,-0.03495 -0.92264,0 -2.013033,0.03495 l -0.0699,2.516292 -0.007,0.936619 v 0.307547 l -1.502785,-0.01398 q -0.174742,0 -1.635589,0.01398 z"
       style="stroke-width:0.357872"
       id="path1994" />
    <path
       d="m 36.136035,21.210955 q 0.146784,-1.537734 0.195712,-2.418436 0.0699,-1.202228 0.132804,-3.299137 0.0699,-2.096909 0.0699,-2.956642 0,-0.307547 -0.007,-0.866722 0.92963,0.02097 1.474826,0.02097 0.761878,0 1.775384,-0.02796 1.013506,-0.03495 1.740434,-0.03495 0.873712,0 1.244166,0.04893 0.489279,0.06291 0.852744,0.223671 0.370454,0.160763 0.615093,0.398412 0.272598,0.279588 0.426371,0.671011 0.174743,0.447341 0.174743,0.957589 0,0.398413 -0.104846,0.761877 -0.09786,0.363464 -0.286577,0.650042 -0.181732,0.279588 -0.412392,0.46831 -0.23066,0.188721 -0.454331,0.293567 -0.21668,0.104845 -0.587134,0.209691 0.370454,0.06291 0.594124,0.146783 0.22367,0.07689 0.475299,0.258619 0.258619,0.174743 0.461321,0.454331 0.202701,0.279587 0.300557,0.629072 0.104845,0.342495 0.104845,0.726929 0,0.531217 -0.174742,0.999527 -0.174743,0.468309 -0.489279,0.803815 -0.265609,0.286577 -0.69198,0.489279 -0.426372,0.202701 -0.873713,0.279588 -0.363464,0.05592 -1.328042,0.08388 -0.957589,0.02796 -2.034002,0.02796 l -1.83829,-0.007 z m 3.117405,-5.822418 h 0.992537 q 0.489279,0 0.69198,-0.02097 0.209691,-0.02796 0.405403,-0.09087 0.195711,-0.06291 0.335505,-0.209691 0.146784,-0.146784 0.202702,-0.328516 0.06291,-0.181732 0.06291,-0.363464 0,-0.258619 -0.125815,-0.46132 -0.118825,-0.202702 -0.391423,-0.300557 -0.272598,-0.09786 -0.831774,-0.09786 H 39.33732 Z m -0.160763,3.907241 h 1.342022 q 0.531217,0 0.782846,-0.06291 0.307547,-0.07689 0.46831,-0.202701 0.160763,-0.125814 0.251629,-0.342495 0.09786,-0.216681 0.09786,-0.482289 0,-0.23066 -0.07689,-0.405403 -0.07689,-0.174742 -0.23066,-0.293567 -0.153773,-0.118825 -0.377443,-0.167753 -0.223671,-0.05592 -0.69897,-0.05592 h -1.474826 z"
       style="stroke-width:0.357872"
       id="path1996" />
    <path
       d="m 46.830272,16.108476 q 0.132804,-0.691981 0.167753,-0.950599 0.03495,-0.265609 0.111835,-0.824785 2.013033,-0.440351 3.4599,-0.440351 0.824784,0 1.509775,0.188722 0.68499,0.181732 1.069423,0.594125 0.384434,0.412392 0.384434,1.181258 0,0.391423 -0.104846,1.761404 -0.104845,1.369981 -0.160763,3.592705 -0.68499,-0.01398 -1.362991,-0.01398 -0.657031,0 -1.397939,0.01398 0.09786,-0.768867 0.21668,-3.173323 -0.265608,0.125815 -0.419381,0.181732 -0.146784,0.05592 -0.524228,0.167753 -0.377443,0.111835 -0.594124,0.188722 -0.209691,0.07689 -0.370454,0.195711 -0.153773,0.118825 -0.22367,0.24464 -0.06291,0.125814 -0.06291,0.279588 0,0.237649 0.188722,0.405402 0.188722,0.167753 0.601114,0.167753 0.146784,0 0.314537,-0.02097 0.167752,-0.02796 0.46132,-0.125815 -0.202702,0.538207 -0.48229,1.572682 -0.601114,0.09786 -1.13932,0.09786 -0.866723,0 -1.446868,-0.23765 -0.573155,-0.244639 -0.887691,-0.782846 -0.307547,-0.538207 -0.307547,-1.076413 0,-0.328516 0.111835,-0.643053 0.118825,-0.314536 0.363465,-0.615093 0.244639,-0.300557 0.573155,-0.510248 0.328516,-0.216681 0.894681,-0.405402 0.573155,-0.188722 1.446867,-0.356475 0.363465,-0.0699 0.664022,-0.146784 0.307546,-0.08388 0.433361,-0.139794 0.132804,-0.06291 0.209691,-0.139793 0.08388,-0.08388 0.118825,-0.167753 0.03495,-0.09087 0.03495,-0.188722 0,-0.265609 -0.22367,-0.405402 -0.22367,-0.146784 -0.657032,-0.146784 -1.202228,0 -2.970621,0.678001 z"
       style="stroke-width:0.357872"
       id="path1998" />
    <path
       d="m 54.770568,21.210955 q 0.202701,-1.586662 0.307547,-3.501839 0.111835,-1.922167 0.132804,-3.634642 0.838764,0.01398 1.446868,0.01398 0.705959,0 1.356001,-0.01398 l -0.0699,0.950598 q 0.23066,-0.258618 0.398413,-0.405402 0.167752,-0.153773 0.412392,-0.293567 0.251629,-0.146784 0.531217,-0.23765 0.279588,-0.09087 0.608103,-0.139794 0.335506,-0.05592 0.69897,-0.05592 0.503258,0 0.978558,0.111836 0.482289,0.104845 0.803815,0.307546 0.321526,0.195712 0.538207,0.496269 0.21668,0.293567 0.286577,0.636062 0.0699,0.342495 0.0699,0.70596 0,0.265608 -0.05592,1.14631 l -0.118825,2.530271 q -0.03495,0.747897 -0.03495,1.38396 -0.705959,-0.01398 -1.321052,-0.01398 -0.831774,0 -1.516765,0.01398 0.06291,-0.636063 0.132805,-1.887219 0.0699,-1.258145 0.0699,-1.768393 0,-0.789836 -0.307546,-1.097383 -0.300557,-0.314536 -0.761877,-0.314536 -0.405403,0 -0.768867,0.265609 -0.356475,0.265608 -0.552186,0.775856 -0.195712,0.503258 -0.279588,1.663548 -0.07689,1.16029 -0.104845,2.362518 -0.69897,-0.01398 -1.362991,-0.01398 -0.69897,0 -1.516765,0.01398 z"
       style="stroke-width:0.357872"
       id="path2000" />
    <path
       d="m 64.535177,21.210955 q 0.09786,-0.894682 0.139794,-1.453857 0.05592,-0.761877 0.111835,-1.908188 l 0.07689,-1.656558 q 0.04893,-1.125341 0.0699,-2.152827 0.02796,-1.230187 0.02796,-2.369507 0.978558,0.01398 1.467837,0.01398 0.566165,0 1.342022,-0.01398 -0.160763,1.8313 -0.293568,4.550293 -0.132804,2.718992 -0.132804,4.990644 -0.810805,-0.01398 -1.369981,-0.01398 -0.643052,0 -1.439877,0.01398 z m 3.082456,-4.012087 1.202228,-1.733445 0.901671,-1.390949 q 0.964579,0.01398 1.460847,0.01398 0.68499,0 1.62161,-0.01398 l -1.39095,1.810331 q -0.489279,0.622083 -0.999527,1.342022 0.489279,0.901671 2.355528,3.984128 -0.817794,-0.01398 -1.474826,-0.01398 -0.671011,0 -1.537733,0.01398 L 69.32312,20.337242 q -0.23066,-0.45433 -0.398413,-0.761877 -0.06291,-0.125814 -0.957589,-1.712475 z"
       style="stroke-width:0.357872"
       id="path2002" />
  </g>
</svg>
