<?xml version="1.0" encoding="UTF-8" standalone="no"?>
<svg
   xmlns:dc="http://purl.org/dc/elements/1.1/"
   xmlns:cc="http://creativecommons.org/ns#"
   xmlns:rdf="http://www.w3.org/1999/02/22-rdf-syntax-ns#"
   xmlns:svg="http://www.w3.org/2000/svg"
   xmlns="http://www.w3.org/2000/svg"
   xmlns:sodipodi="http://sodipodi.sourceforge.net/DTD/sodipodi-0.dtd"
   xmlns:inkscape="http://www.inkscape.org/namespaces/inkscape"
   version="1.0"
   width="20.32mm"
   height="128.5mm"
   viewBox="0 0 57.599997 364.25198"
   preserveAspectRatio="xMidYMid meet"
   id="svg851"
   sodipodi:docname="Metallic.svg"
   inkscape:version="1.0 (4035a4fb49, 2020-05-01)">
  <defs
     id="defs855" />
  <sodipodi:namedview
     inkscape:document-rotation="0"
     pagecolor="#ffffff"
     bordercolor="#666666"
     borderopacity="1"
     objecttolerance="10"
     gridtolerance="10"
     guidetolerance="10"
     inkscape:pageopacity="0"
     inkscape:pageshadow="2"
     inkscape:window-width="1920"
     inkscape:window-height="1001"
     id="namedview853"
     showgrid="false"
     inkscape:zoom="1.572644"
     inkscape:cx="41.333333"
     inkscape:cy="254.66667"
     inkscape:window-x="-9"
     inkscape:window-y="-9"
     inkscape:window-maximized="1"
     inkscape:current-layer="svg851"
     inkscape:document-units="mm"
     units="mm" />
  <metadata
     id="metadata845">
Created by potrace 1.15, written by Peter Selinger 2001-2017
<rdf:RDF>
  <cc:Work
     rdf:about="">
    <dc:format>image/svg+xml</dc:format>
    <dc:type
       rdf:resource="http://purl.org/dc/dcmitype/StillImage" />
    <dc:title />
  </cc:Work>
</rdf:RDF>
</metadata>
  <g
     transform="matrix(0.09442623,0,0,-0.09560419,0.05573772,365.25197)"
     fill="#000000"
     stroke="none"
     id="g849"
     style="fill:#2f5d68;fill-opacity:1">
    <path
       d="M 10,1905 V 0 H 315 620 V 1905 3810 H 315 10 Z"
       id="path847"
       style="fill:#2f5d68;fill-opacity:1" />
  </g>
  <g
     aria-label="Metallic"
     transform="matrix(0.79745134,0,0,1.253995,0,2.0079186)"
     id="text859"
     style="font-style:normal;font-variant:normal;font-weight:normal;font-stretch:normal;font-size:16.3471px;line-height:1.25;font-family:'Eras Bold ITC';-inkscape-font-specification:'Eras Bold ITC, Normal';font-variant-ligatures:normal;font-variant-caps:normal;font-variant-numeric:normal;font-variant-east-asian:normal;letter-spacing:0px;word-spacing:0px;fill:#ffee00;fill-opacity:1;stroke-width:0.408675">
    <path
       d="m 5.9006887,23.05669 0.1995495,-1.61236 0.4948829,-5.59537 0.2474415,-3.687675 q 1.4686847,0.01596 2.3067928,0.01596 0.6944324,0 2.1232076,-0.01596 0.103765,0.68645 0.175603,1.045639 0.07184,0.351208 0.351207,1.388865 0.287352,1.029676 0.454973,1.787964 0.175604,0.750307 0.518829,2.57818 0.351207,-1.253171 0.638559,-2.155135 0.287351,-0.901964 0.718378,-2.051369 0.431027,-1.149406 0.542775,-1.500613 0.11973,-0.359189 0.319279,-1.093531 1.197298,0.01596 2.346703,0.01596 0.782234,0 2.171099,-0.01596 -0.151658,2.689928 -0.199549,4.621567 -0.103766,3.78346 -0.103766,5.204253 0,0.295333 0.01596,1.069585 -1.053622,-0.01596 -1.476667,-0.01596 -0.614613,0 -1.508595,0.01596 0.06386,-0.718378 0.15964,-3.416288 0.09578,-2.705892 0.09578,-3.456198 0,-0.327262 -0.01596,-0.909946 l -1.04564,3.248666 -1.500612,4.533766 q -1.037658,-0.01596 -1.428775,-0.01596 -0.494883,0 -1.516577,0.01596 L 10.003427,18.6666 9.4287248,16.327879 Q 9.3967968,16.192186 9.3568869,15.992636 9.316977,15.793087 9.2291752,15.290222 l -0.1995495,2.211009 -0.2634054,4.533766 -0.023946,1.021693 q -1.1015135,-0.01596 -1.4048288,-0.01596 -0.4150631,0 -1.4367568,0.01596 z"
       style="font-style:normal;font-variant:normal;font-weight:normal;font-stretch:normal;font-size:16.3471px;font-family:'Eras Bold ITC';-inkscape-font-specification:'Eras Bold ITC, Normal';font-variant-ligatures:normal;font-variant-caps:normal;font-variant-numeric:normal;font-variant-east-asian:normal;fill:#ffee00;fill-opacity:1;stroke-width:0.408675"
       id="path885" />
    <path
       d="m 28.960635,20.646132 q -0.103765,0.478919 -0.399099,2.314774 -0.92591,0.183586 -1.556486,0.23946 -0.630577,0.06386 -1.277117,0.06386 -0.949856,0 -1.748055,-0.135694 -0.798198,-0.127712 -1.380882,-0.462955 -0.574703,-0.335243 -0.96582,-0.830126 -0.391117,-0.502865 -0.598649,-1.189315 -0.199549,-0.686451 -0.199549,-1.412811 0,-1.021694 0.407081,-1.995496 0.407081,-0.981784 1.045639,-1.53254 0.646541,-0.550757 1.484649,-0.782235 0.838108,-0.231477 1.716126,-0.231477 0.909946,0 1.73209,0.215514 0.830126,0.207531 1.404829,0.734342 0.574703,0.526811 0.814162,1.189315 0.247442,0.662505 0.247442,1.428775 0,0.454973 -0.103766,1.013712 l -5.59537,0.008 q -0.008,0.127711 -0.008,0.231477 0,0.862054 0.614613,1.269135 0.614613,0.407081 1.500613,0.407081 0.526811,0 1.197297,-0.119729 0.678469,-0.127712 1.668234,-0.423045 z m -4.908919,-2.586163 h 2.634054 q 0.008,-0.135693 0.008,-0.231477 0,-0.415063 -0.151657,-0.710396 -0.143676,-0.295334 -0.423045,-0.431027 -0.271388,-0.135694 -0.614613,-0.135694 -0.239459,0 -0.462955,0.07982 -0.223495,0.07184 -0.407081,0.223495 -0.175604,0.143676 -0.295333,0.335243 -0.11973,0.191568 -0.175604,0.375154 -0.05587,0.175603 -0.111748,0.494882 z"
       style="font-style:normal;font-variant:normal;font-weight:normal;font-stretch:normal;font-size:16.3471px;font-family:'Eras Bold ITC';-inkscape-font-specification:'Eras Bold ITC, Normal';font-variant-ligatures:normal;font-variant-caps:normal;font-variant-numeric:normal;font-variant-east-asian:normal;fill:#ffee00;fill-opacity:1;stroke-width:0.408675"
       id="path887" />
    <path
       d="m 36.67123,20.709987 q -0.143676,0.670487 -0.247442,1.309046 l -0.175603,0.973801 q -0.790217,0.175604 -1.237208,0.223496 -0.439009,0.04789 -0.854072,0.04789 -0.678468,0 -1.205279,-0.11973 -0.526811,-0.111748 -0.878018,-0.415063 -0.351207,-0.311297 -0.478919,-0.710396 -0.127712,-0.3991 -0.127712,-0.846091 0,-0.07982 0.008,-0.279369 0.008,-0.207531 0.05587,-0.909946 l 0.175604,-2.761766 h -1.245189 q 0.03991,-0.550756 0.07184,-1.45272 l 0.02395,-0.742325 h 1.325009 q 0.04789,-0.367171 0.11973,-1.604378 l 1.364919,-0.27937 q 0.375153,-0.07184 1.596396,-0.367171 -0.05587,1.04564 -0.07982,2.250919 h 1.819892 q -0.06386,1.660253 -0.06386,2.195045 h -1.835856 l -0.09578,1.995496 q -0.01596,0.446991 -0.01596,0.574703 0,0.383135 0.07982,0.638558 0.0878,0.255424 0.295333,0.367171 0.215514,0.111748 0.470937,0.111748 0.191568,0 0.399099,-0.02395 0.207532,-0.03193 0.734343,-0.175604 z"
       style="font-style:normal;font-variant:normal;font-weight:normal;font-stretch:normal;font-size:16.3471px;font-family:'Eras Bold ITC';-inkscape-font-specification:'Eras Bold ITC, Normal';font-variant-ligatures:normal;font-variant-caps:normal;font-variant-numeric:normal;font-variant-east-asian:normal;fill:#ffee00;fill-opacity:1;stroke-width:0.408675"
       id="path889" />
    <path
       d="m 38.44323,17.229843 q 0.151658,-0.790216 0.191568,-1.085549 0.03991,-0.303316 0.127712,-0.941874 2.29881,-0.502865 3.951081,-0.502865 0.941874,0 1.724108,0.215513 0.782234,0.207532 1.221243,0.678469 0.439009,0.470937 0.439009,1.348955 0,0.446991 -0.11973,2.011459 -0.119729,1.564469 -0.183585,4.102739 -0.782234,-0.01596 -1.556487,-0.01596 -0.750306,0 -1.596396,0.01596 0.111748,-0.878018 0.247441,-3.62382 -0.303315,0.143676 -0.478919,0.207532 -0.167621,0.06386 -0.598648,0.191567 -0.431027,0.127712 -0.678469,0.215514 -0.239459,0.0878 -0.423045,0.223495 -0.175603,0.135694 -0.255423,0.27937 -0.07184,0.143676 -0.07184,0.319279 0,0.271388 0.215513,0.462955 0.215514,0.191568 0.686451,0.191568 0.167621,0 0.359189,-0.02395 0.191568,-0.03193 0.526811,-0.143676 -0.231478,0.614613 -0.550757,1.795946 -0.68645,0.111748 -1.301063,0.111748 -0.989766,0 -1.65227,-0.271388 -0.654523,-0.279369 -1.013712,-0.893982 -0.351207,-0.614612 -0.351207,-1.229225 0,-0.375153 0.127712,-0.734342 0.135693,-0.359189 0.415063,-0.702415 0.279369,-0.343225 0.654522,-0.582684 0.375153,-0.247442 1.021694,-0.462955 0.654522,-0.215514 1.65227,-0.407081 0.415063,-0.07982 0.758288,-0.167622 0.351208,-0.09578 0.494883,-0.15964 0.151658,-0.07184 0.23946,-0.159639 0.09578,-0.09578 0.135693,-0.191568 0.03991,-0.103766 0.03991,-0.215513 0,-0.303316 -0.255423,-0.462955 -0.255423,-0.167622 -0.750306,-0.167622 -1.372901,0 -3.392343,0.774252 z"
       style="font-style:normal;font-variant:normal;font-weight:normal;font-stretch:normal;font-size:16.3471px;font-family:'Eras Bold ITC';-inkscape-font-specification:'Eras Bold ITC, Normal';font-variant-ligatures:normal;font-variant-caps:normal;font-variant-numeric:normal;font-variant-east-asian:normal;fill:#ffee00;fill-opacity:1;stroke-width:0.408675"
       id="path891" />
    <path
       d="m 47.574615,23.048708 0.143676,-1.716126 0.311297,-5.962541 0.0878,-3.208756 q 1.109496,0.01596 1.668234,0.01596 0.726361,0 1.604379,-0.01596 l -0.183586,2.450468 -0.295333,6.034379 -0.06386,2.410558 Q 49.99315,23.04073 49.3067,23.04073 Z"
       style="font-style:normal;font-variant:normal;font-weight:normal;font-stretch:normal;font-size:16.3471px;font-family:'Eras Bold ITC';-inkscape-font-specification:'Eras Bold ITC, Normal';font-variant-ligatures:normal;font-variant-caps:normal;font-variant-numeric:normal;font-variant-east-asian:normal;fill:#ffee00;fill-opacity:1;stroke-width:0.408675"
       id="path893" />
    <path
       d="m 52.651157,23.048708 0.143676,-1.716126 0.311297,-5.962541 0.0878,-3.208756 q 1.109496,0.01596 1.668234,0.01596 0.726361,0 1.604379,-0.01596 l -0.183586,2.450468 -0.295333,6.034379 -0.06386,2.410558 q -0.854072,-0.01596 -1.540523,-0.01596 z"
       style="font-style:normal;font-variant:normal;font-weight:normal;font-stretch:normal;font-size:16.3471px;font-family:'Eras Bold ITC';-inkscape-font-specification:'Eras Bold ITC, Normal';font-variant-ligatures:normal;font-variant-caps:normal;font-variant-numeric:normal;font-variant-east-asian:normal;fill:#ffee00;fill-opacity:1;stroke-width:0.408675"
       id="path895" />
    <path
       d="m 58.198636,13.893375 q 0.04789,-0.949856 0.04789,-1.500613 0,-0.159639 -0.008,-0.431027 0.96582,0.01596 1.620342,0.01596 0.901964,0 1.580433,-0.01596 -0.02395,0.247442 -0.03193,0.415063 l -0.04789,0.989766 q -0.01596,0.223495 -0.01596,0.526811 -0.790216,-0.01596 -1.516576,-0.01596 -0.750307,0 -1.628325,0.01596 z m -0.502865,9.163315 q 0.111748,-0.973802 0.167622,-1.604378 0.05587,-0.630577 0.103766,-1.612361 0.05587,-0.981783 0.09578,-2.171099 0.03991,-1.189315 0.06386,-2.761765 1.037658,0.01596 1.660253,0.01596 0.56672,0 1.628324,-0.01596 -0.135694,1.508594 -0.19955,2.650018 -0.05587,1.141423 -0.07184,2.41854 -0.03193,2.266883 -0.03193,3.081045 -0.949856,-0.01596 -1.636307,-0.01596 -0.678468,0 -1.779982,0.01596 z"
       style="font-style:normal;font-variant:normal;font-weight:normal;font-stretch:normal;font-size:16.3471px;font-family:'Eras Bold ITC';-inkscape-font-specification:'Eras Bold ITC, Normal';font-variant-ligatures:normal;font-variant-caps:normal;font-variant-numeric:normal;font-variant-east-asian:normal;fill:#ffee00;fill-opacity:1;stroke-width:0.408675"
       id="path897" />
    <path
       d="m 69.652779,20.510438 q -0.03991,0.319279 -0.191568,1.173351 l -0.207531,1.277117 q -1.253171,0.303316 -2.450469,0.303316 -0.870036,0 -1.524558,-0.175604 -0.774252,-0.207531 -1.388865,-0.734342 -0.630577,-0.542775 -0.917928,-1.285099 -0.343225,-0.870036 -0.343225,-1.947604 0,-0.989766 0.335243,-1.907694 0.335243,-0.917928 0.989766,-1.508594 0.654522,-0.598649 1.452721,-0.798198 0.798198,-0.207532 1.764018,-0.207532 0.56672,0 1.141423,0.06386 0.574703,0.05587 1.420793,0.255423 l 0.01596,0.183586 q 0.02395,0.287351 0.03193,0.590667 0.01596,0.295333 0.05587,0.941873 l 0.04789,0.710397 q -1.141424,-0.399099 -2.019442,-0.399099 -0.630577,0 -1.109495,0.247441 -0.470937,0.23946 -0.702415,0.702415 -0.223495,0.454973 -0.223495,1.061603 0,0.614613 0.199549,1.029676 0.207532,0.415063 0.654523,0.622594 0.446991,0.207532 0.981784,0.207532 0.271387,0 0.638558,-0.05587 0.375153,-0.05587 0.646541,-0.11973 0.279369,-0.07184 0.702414,-0.231477 z"
       style="font-style:normal;font-variant:normal;font-weight:normal;font-stretch:normal;font-size:16.3471px;font-family:'Eras Bold ITC';-inkscape-font-specification:'Eras Bold ITC, Normal';font-variant-ligatures:normal;font-variant-caps:normal;font-variant-numeric:normal;font-variant-east-asian:normal;fill:#ffee00;fill-opacity:1;stroke-width:0.408675"
       id="path899" />
  </g>
  <g
     aria-label="606"
     transform="matrix(1.0081114,0,0,0.99195387,0,-42.519685)"
     id="text863"
     style="font-style:normal;font-variant:normal;font-weight:normal;font-stretch:normal;font-size:17.4452px;line-height:1.25;font-family:'Eras Medium ITC';-inkscape-font-specification:'Eras Medium ITC, Normal';font-variant-ligatures:normal;font-variant-caps:normal;font-variant-numeric:normal;font-variant-east-asian:normal;letter-spacing:0px;word-spacing:0px;fill:#ffee00;fill-opacity:1;stroke-width:0.934563">
    <path
       d="m 18.001531,133.67908 q 0.502572,-0.0937 0.775153,-0.11925 0.272581,-0.0341 0.536644,-0.0341 0.919962,0 1.652524,0.29813 0.74108,0.29814 1.218098,1.07329 0.477017,0.76663 0.477017,1.78881 0,0.74108 -0.255545,1.45661 -0.255545,0.70701 -0.817744,1.3118 -0.562199,0.59627 -1.379943,0.86885 -0.809225,0.27258 -1.746223,0.27258 -0.817744,0 -1.584379,-0.22999 -0.766634,-0.23851 -1.320315,-0.73256 -0.545163,-0.49405 -0.800708,-1.17551 -0.247026,-0.68145 -0.247026,-1.38846 0,-0.59627 0.127772,-1.32883 0.136291,-0.74108 0.613308,-1.83141 0.477017,-1.09032 1.243652,-2.31694 0.766635,-1.23513 1.959178,-2.81099 0.604789,0.009 0.954034,0.009 0.425908,0 0.988107,-0.009 -1.005143,1.2181 -1.414015,1.75474 -0.69849,0.91144 -1.320316,1.94214 -0.613307,1.0307 -0.996625,1.91659 -0.374799,0.88589 -0.51109,1.46512 -0.127772,0.57072 -0.127772,1.14144 0,0.76663 0.281099,1.30328 0.2811,0.52812 0.83478,0.86885 0.553681,0.33221 1.311798,0.33221 0.775153,0 1.396979,-0.34073 0.621826,-0.34924 0.928479,-0.97959 0.306654,-0.63034 0.306654,-1.37142 0,-0.63887 -0.238508,-1.14996 -0.238509,-0.5196 -0.783671,-0.79218 -0.536645,-0.27259 -1.294761,-0.27259 -0.596272,0 -1.388461,0.19592 0.502572,-0.86033 0.621826,-1.11588 z"
       style="font-style:normal;font-variant:normal;font-weight:normal;font-stretch:normal;font-size:17.4452px;font-family:'Eras Medium ITC';-inkscape-font-specification:'Eras Medium ITC, Normal';font-variant-ligatures:normal;font-variant-caps:normal;font-variant-numeric:normal;font-variant-east-asian:normal;fill:#ffee00;fill-opacity:1;stroke-width:0.934563"
       id="path902" />
    <path
       d="m 28.913299,128.59374 q 0.630344,0 1.184024,0.16184 0.562199,0.15333 1.098844,0.58776 0.545162,0.42591 0.902925,1.14995 0.366281,0.72404 0.528126,1.60141 0.170363,0.86886 0.170363,1.84845 0,1.30327 -0.272581,2.58952 -0.272581,1.28624 -0.800707,2.2062 -0.519608,0.91996 -1.414015,1.38846 -0.894408,0.4685 -1.942142,0.4685 -1.226615,0 -2.112505,-0.60479 -0.885889,-0.61331 -1.345869,-1.79733 -0.451463,-1.18403 -0.451463,-2.7684 0,-1.32884 0.255545,-2.63212 0.264063,-1.31179 0.809225,-2.28286 0.553681,-0.97959 1.456606,-1.44809 0.902926,-0.4685 1.933624,-0.4685 z m -0.05111,1.09032 q -0.383318,0 -0.758117,0.14481 -0.366281,0.14481 -0.707008,0.45146 -0.340726,0.30666 -0.570717,0.71553 -0.22999,0.40887 -0.442944,1.06477 -0.204436,0.64738 -0.315172,1.55883 -0.102218,0.91144 -0.102218,1.85696 0,0.88588 0.119254,1.57586 0.102218,0.58775 0.374799,1.13291 0.195918,0.41739 0.519608,0.72405 0.323691,0.30665 0.681454,0.45146 0.357762,0.14481 0.775152,0.14481 0.417391,0 0.800708,-0.15333 0.383317,-0.15333 0.758116,-0.55368 0.383318,-0.40035 0.689972,-1.17551 0.315172,-0.78367 0.451462,-1.76326 0.144809,-0.97959 0.144809,-1.99325 0,-0.83478 -0.102218,-1.46512 -0.0937,-0.63035 -0.315172,-1.18403 -0.221472,-0.55368 -0.570717,-0.90292 -0.349244,-0.35777 -0.698489,-0.49406 -0.340727,-0.13629 -0.732562,-0.13629 z"
       style="font-style:normal;font-variant:normal;font-weight:normal;font-stretch:normal;font-size:17.4452px;font-family:'Eras Medium ITC';-inkscape-font-specification:'Eras Medium ITC, Normal';font-variant-ligatures:normal;font-variant-caps:normal;font-variant-numeric:normal;font-variant-east-asian:normal;fill:#ffee00;fill-opacity:1;stroke-width:0.934563"
       id="path904" />
    <path
       d="m 37.968107,133.67908 q 0.502571,-0.0937 0.775153,-0.11925 0.272581,-0.0341 0.536644,-0.0341 0.919962,0 1.652524,0.29813 0.74108,0.29814 1.218097,1.07329 0.477017,0.76663 0.477017,1.78881 0,0.74108 -0.255545,1.45661 -0.255545,0.70701 -0.817743,1.3118 -0.562199,0.59627 -1.379943,0.86885 -0.809226,0.27258 -1.746224,0.27258 -0.817743,0 -1.584378,-0.22999 -0.766635,-0.23851 -1.320315,-0.73256 -0.545163,-0.49405 -0.800708,-1.17551 -0.247027,-0.68145 -0.247027,-1.38846 0,-0.59627 0.127773,-1.32883 0.13629,-0.74108 0.613308,-1.83141 0.477017,-1.09032 1.243652,-2.31694 0.766634,-1.23513 1.959177,-2.81099 0.60479,0.009 0.954035,0.009 0.425908,0 0.988107,-0.009 -1.005144,1.2181 -1.414016,1.75474 -0.698489,0.91144 -1.320315,1.94214 -0.613308,1.0307 -0.996625,1.91659 -0.374799,0.88589 -0.51109,1.46512 -0.127772,0.57072 -0.127772,1.14144 0,0.76663 0.281099,1.30328 0.281099,0.52812 0.83478,0.86885 0.553681,0.33221 1.311797,0.33221 0.775153,0 1.396979,-0.34073 0.621826,-0.34924 0.92848,-0.97959 0.306654,-0.63034 0.306654,-1.37142 0,-0.63887 -0.238509,-1.14996 -0.238508,-0.5196 -0.783671,-0.79218 -0.536644,-0.27259 -1.294761,-0.27259 -0.596271,0 -1.38846,0.19592 0.502571,-0.86033 0.621826,-1.11588 z"
       style="font-style:normal;font-variant:normal;font-weight:normal;font-stretch:normal;font-size:17.4452px;font-family:'Eras Medium ITC';-inkscape-font-specification:'Eras Medium ITC, Normal';font-variant-ligatures:normal;font-variant-caps:normal;font-variant-numeric:normal;font-variant-east-asian:normal;fill:#ffee00;fill-opacity:1;stroke-width:0.934563"
       id="path906" />
  </g>
  <g
     aria-label="808"
     transform="matrix(1.0081114,0,0,0.99195387,0,-28.346453)"
     id="text863-6"
     style="font-style:normal;font-variant:normal;font-weight:normal;font-stretch:normal;font-size:17.4452px;line-height:1.25;font-family:'Eras Medium ITC';-inkscape-font-specification:'Eras Medium ITC, Normal';font-variant-ligatures:normal;font-variant-caps:normal;font-variant-numeric:normal;font-variant-east-asian:normal;letter-spacing:0px;word-spacing:0px;fill:#ffee00;fill-opacity:1;stroke-width:0.93456">
    <path
       d="m 17.021942,234.49714 q -0.536644,-0.21296 -0.809226,-0.39184 -0.272581,-0.1874 -0.545162,-0.5196 -0.264063,-0.33221 -0.400354,-0.75812 -0.13629,-0.42591 -0.13629,-0.91144 0,-0.77516 0.32369,-1.43106 0.32369,-0.66441 0.919961,-1.09032 0.60479,-0.43443 1.30328,-0.60479 0.698489,-0.17888 1.456606,-0.17888 0.945516,0 1.754741,0.31517 0.817744,0.30665 1.30328,0.99662 0.485535,0.68146 0.485535,1.63549 0,0.36628 -0.06815,0.72405 -0.06815,0.35776 -0.247027,0.69849 -0.178882,0.34072 -0.442945,0.6133 -0.255545,0.27258 -0.519608,0.45147 -0.264063,0.17036 -0.826262,0.41739 0.596272,0.15332 0.877371,0.28961 0.289618,0.12778 0.553681,0.35777 0.272581,0.22147 0.451463,0.5196 0.187399,0.29814 0.281099,0.67294 0.102218,0.3748 0.102218,0.79219 0,0.77515 -0.315172,1.45661 -0.306654,0.67293 -0.877371,1.14143 -0.562199,0.45998 -1.396979,0.68997 -0.83478,0.22999 -1.729187,0.22999 -1.243652,0 -2.18065,-0.40035 -0.92848,-0.40036 -1.379943,-1.09885 -0.451462,-0.707 -0.451462,-1.61845 0,-0.40887 0.0937,-0.80922 0.102218,-0.40887 0.323691,-0.77516 0.221472,-0.37479 0.519608,-0.63034 0.298135,-0.26406 0.613307,-0.41739 0.315172,-0.16184 0.962553,-0.36628 z m 1.984732,-4.84684 q -1.107361,0 -1.780296,0.66442 -0.664417,0.66442 -0.664417,1.69512 0,0.63034 0.272581,1.09032 0.2811,0.45146 0.800708,0.68997 0.519608,0.22999 1.141434,0.22999 0.698489,0 1.260688,-0.28962 0.570717,-0.29813 0.894407,-0.82626 0.32369,-0.53664 0.32369,-1.23513 0,-0.68145 -0.332208,-1.14995 -0.332208,-0.4685 -0.83478,-0.66442 -0.494053,-0.20444 -1.081807,-0.20444 z m -0.22999,5.37497 q -0.911444,0 -1.507715,0.28961 -0.587754,0.2811 -0.919962,0.80923 -0.32369,0.52812 -0.32369,1.19254 0,0.62183 0.306654,1.14995 0.306654,0.51961 0.945516,0.80923 0.638862,0.28962 1.362906,0.28962 0.732562,0 1.371425,-0.30666 0.64738,-0.30665 0.988107,-0.8944 0.340726,-0.58776 0.340726,-1.28625 0,-0.95403 -0.638862,-1.49919 -0.630344,-0.55368 -1.925105,-0.55368 z"
       id="path909" />
    <path
       d="m 29.041071,228.61109 q 0.630344,0 1.184025,0.16184 0.562199,0.15333 1.098843,0.58776 0.545162,0.4259 0.902925,1.14995 0.366281,0.72404 0.528127,1.60141 0.170363,0.86886 0.170363,1.84844 0,1.30328 -0.272581,2.58953 -0.272582,1.28624 -0.800708,2.2062 -0.519608,0.91996 -1.414015,1.38846 -0.894407,0.4685 -1.942142,0.4685 -1.226615,0 -2.112504,-0.60479 -0.885889,-0.61331 -1.34587,-1.79733 -0.451463,-1.18403 -0.451463,-2.7684 0,-1.32884 0.255545,-2.63212 0.264063,-1.31179 0.809226,-2.28287 0.55368,-0.97958 1.456606,-1.44808 0.902925,-0.4685 1.933623,-0.4685 z m -0.05111,1.09032 q -0.383317,0 -0.758117,0.14481 -0.366281,0.14481 -0.707007,0.45146 -0.340727,0.30666 -0.570717,0.71553 -0.229991,0.40887 -0.442945,1.06477 -0.204436,0.64738 -0.315172,1.55882 -0.102218,0.91145 -0.102218,1.85696 0,0.88589 0.119255,1.57586 0.102217,0.58776 0.374799,1.13292 0.195918,0.41739 0.519608,0.72404 0.32369,0.30666 0.681453,0.45147 0.357763,0.14481 0.775153,0.14481 0.41739,0 0.800707,-0.15333 0.383318,-0.15333 0.758117,-0.55368 0.383317,-0.40036 0.689971,-1.17551 0.315172,-0.78367 0.451463,-1.76326 0.144809,-0.97959 0.144809,-1.99325 0,-0.83478 -0.102218,-1.46512 -0.0937,-0.63035 -0.315172,-1.18403 -0.221473,-0.55368 -0.570717,-0.90292 -0.349245,-0.35777 -0.69849,-0.49406 -0.340726,-0.13629 -0.732562,-0.13629 z"
       id="path911" />
    <path
       d="m 36.988518,234.49714 q -0.536645,-0.21296 -0.809226,-0.39184 -0.272581,-0.1874 -0.545162,-0.5196 -0.264064,-0.33221 -0.400354,-0.75812 -0.136291,-0.42591 -0.136291,-0.91144 0,-0.77516 0.32369,-1.43106 0.323691,-0.66441 0.919962,-1.09032 0.60479,-0.43443 1.303279,-0.60479 0.69849,-0.17888 1.456606,-0.17888 0.945516,0 1.754742,0.31517 0.817744,0.30665 1.303279,0.99662 0.485536,0.68146 0.485536,1.63549 0,0.36628 -0.06815,0.72405 -0.06815,0.35776 -0.247027,0.69849 -0.178881,0.34072 -0.442944,0.6133 -0.255545,0.27258 -0.519608,0.45147 -0.264063,0.17036 -0.826262,0.41739 0.596271,0.15332 0.877371,0.28961 0.289617,0.12778 0.553681,0.35777 0.272581,0.22147 0.451462,0.5196 0.1874,0.29814 0.2811,0.67294 0.102218,0.3748 0.102218,0.79219 0,0.77515 -0.315172,1.45661 -0.306654,0.67293 -0.877371,1.14143 -0.562199,0.45998 -1.396979,0.68997 -0.83478,0.22999 -1.729188,0.22999 -1.243651,0 -2.18065,-0.40035 -0.928479,-0.40036 -1.379942,-1.09885 -0.451463,-0.707 -0.451463,-1.61845 0,-0.40887 0.0937,-0.80922 0.102218,-0.40887 0.32369,-0.77516 0.221472,-0.37479 0.519608,-0.63034 0.298136,-0.26406 0.613308,-0.41739 0.315172,-0.16184 0.962553,-0.36628 z m 1.984732,-4.84684 q -1.107362,0 -1.780296,0.66442 -0.664417,0.66442 -0.664417,1.69512 0,0.63034 0.272581,1.09032 0.281099,0.45146 0.800707,0.68997 0.519608,0.22999 1.141434,0.22999 0.69849,0 1.260689,-0.28962 0.570717,-0.29813 0.894407,-0.82626 0.32369,-0.53664 0.32369,-1.23513 0,-0.68145 -0.332208,-1.14995 -0.332209,-0.4685 -0.83478,-0.66442 -0.494054,-0.20444 -1.081807,-0.20444 z m -0.229991,5.37497 q -0.911443,0 -1.507715,0.28961 -0.587753,0.2811 -0.919961,0.80923 -0.323691,0.52812 -0.323691,1.19254 0,0.62183 0.306654,1.14995 0.306654,0.51961 0.945517,0.80923 0.638862,0.28962 1.362906,0.28962 0.732562,0 1.371424,-0.30666 0.647381,-0.30665 0.988107,-0.8944 0.340727,-0.58776 0.340727,-1.28625 0,-0.95403 -0.638863,-1.49919 -0.630344,-0.55368 -1.925105,-0.55368 z"
       id="path913" />
  </g>
</svg>
