<?xml version="1.0" encoding="UTF-8" standalone="no"?>
<svg
   xmlns:dc="http://purl.org/dc/elements/1.1/"
   xmlns:cc="http://creativecommons.org/ns#"
   xmlns:rdf="http://www.w3.org/1999/02/22-rdf-syntax-ns#"
   xmlns:svg="http://www.w3.org/2000/svg"
   xmlns="http://www.w3.org/2000/svg"
   xmlns:sodipodi="http://sodipodi.sourceforge.net/DTD/sodipodi-0.dtd"
   xmlns:inkscape="http://www.inkscape.org/namespaces/inkscape"
   inkscape:version="1.0 (4035a4fb49, 2020-05-01)"
   sodipodi:docname="Metallic.svg"
   id="svg190"
   viewBox="0 0 20.32 128.5"
   version="1.1"
   height="128.5mm"
   width="20.32mm">
  <metadata
     id="metadata196">
    <rdf:RDF>
      <cc:Work
         rdf:about="">
        <dc:format>image/svg+xml</dc:format>
        <dc:type
           rdf:resource="http://purl.org/dc/dcmitype/StillImage" />
        <dc:title></dc:title>
      </cc:Work>
    </rdf:RDF>
  </metadata>
  <defs
     id="defs194" />
  <sodipodi:namedview
     inkscape:document-units="mm"
     inkscape:current-layer="svg190"
     inkscape:window-maximized="0"
     inkscape:window-y="0"
     inkscape:window-x="619"
     inkscape:cy="169.98603"
     inkscape:cx="89.660269"
     inkscape:zoom="2.4168653"
     showgrid="false"
     id="namedview192"
     inkscape:window-height="991"
     inkscape:window-width="1291"
     inkscape:pageshadow="2"
     inkscape:pageopacity="0"
     guidetolerance="10"
     gridtolerance="10"
     objecttolerance="10"
     borderopacity="1"
     bordercolor="#666666"
     pagecolor="#ffffff" />
  <rect
     id="rect2"
     style="paint-order:markers stroke fill"
     fill="#979799"
     height="128.5"
     width="20.32"
     y="9.155e-8" />
  <g
     id="g170"
     stroke-width="3.615"
     transform="translate(-34.08 2.8)">
    <rect
       id="rect4"
       style="paint-order:markers stroke fill"
       fill="#90a2a8"
       height="128.5"
       width=".2448"
       y="-125.7"
       x="34.57"
       transform="scale(1,-1)" />
    <rect
       id="rect6"
       style="paint-order:markers stroke fill"
       fill="#919699"
       height="128.5"
       width=".2448"
       y="-125.7"
       x="34.82"
       transform="scale(1,-1)" />
    <rect
       id="rect8"
       style="paint-order:markers stroke fill"
       fill="#959698"
       height="128.5"
       width=".2448"
       y="-125.7"
       x="35.06"
       transform="scale(1,-1)" />
    <rect
       id="rect10"
       style="paint-order:markers stroke fill"
       fill="#99989a"
       height="128.5"
       width=".2448"
       y="-125.7"
       x="35.31"
       transform="scale(1,-1)" />
    <rect
       id="rect12"
       style="paint-order:markers stroke fill"
       fill="#95989a"
       height="128.5"
       width=".2448"
       y="-125.7"
       x="35.8"
       transform="scale(1,-1)" />
    <rect
       id="rect14"
       style="paint-order:markers stroke fill"
       fill="#929596"
       height="128.5"
       width=".2448"
       y="-125.7"
       x="36.29"
       transform="scale(1,-1)" />
    <rect
       id="rect16"
       style="paint-order:markers stroke fill"
       fill="#9c9c9d"
       height="128.5"
       width=".2448"
       y="-125.7"
       x="36.77"
       transform="scale(1,-1)" />
    <rect
       id="rect18"
       style="paint-order:markers stroke fill"
       fill="#a4a2a4"
       height="128.5"
       width=".2448"
       y="-125.7"
       x="37.26"
       transform="scale(1,-1)" />
    <rect
       id="rect20"
       style="paint-order:markers stroke fill"
       fill="#9fa1a3"
       height="128.5"
       width=".2448"
       y="-125.7"
       x="37.75"
       transform="scale(1,-1)" />
    <rect
       id="rect22"
       style="paint-order:markers stroke fill"
       fill="#9a9c9e"
       height="128.5"
       width=".2448"
       y="-125.7"
       x="38.24"
       transform="scale(1,-1)" />
    <rect
       id="rect24"
       style="paint-order:markers stroke fill"
       fill="#929294"
       height="128.5"
       width=".2448"
       y="-125.7"
       x="38.73"
       transform="scale(1,-1)" />
    <rect
       id="rect26"
       style="paint-order:markers stroke fill"
       fill="#9b9c9e"
       height="128.5"
       width=".2448"
       y="-125.7"
       x="39.22"
       transform="scale(1,-1)" />
    <rect
       id="rect28"
       style="paint-order:markers stroke fill"
       fill="#9c9c9d"
       height="128.5"
       width=".2448"
       y="-125.7"
       x="39.71"
       transform="scale(1,-1)" />
    <rect
       id="rect30"
       style="paint-order:markers stroke fill"
       fill="#a0a1a3"
       height="128.5"
       width=".2448"
       y="-125.7"
       x="40.2"
       transform="scale(1,-1)" />
    <rect
       id="rect32"
       style="paint-order:markers stroke fill"
       fill="#a2a1a3"
       height="128.5"
       width=".2448"
       y="-125.7"
       x="40.69"
       transform="scale(1,-1)" />
    <rect
       id="rect34"
       style="paint-order:markers stroke fill"
       fill="#a2a0a1"
       height="128.5"
       width=".2448"
       y="-125.7"
       x="41.18"
       transform="scale(1,-1)" />
    <rect
       id="rect36"
       style="paint-order:markers stroke fill"
       fill="#8f9395"
       height="128.5"
       width=".2448"
       y="-125.7"
       x="41.67"
       transform="scale(1,-1)" />
    <rect
       id="rect38"
       style="paint-order:markers stroke fill"
       fill="#93999b"
       height="128.5"
       width=".2448"
       y="-125.7"
       x="42.16"
       transform="scale(1,-1)" />
    <rect
       id="rect40"
       style="paint-order:markers stroke fill"
       fill="#a6a1a1"
       height="128.5"
       width=".2448"
       y="-125.7"
       x="42.65"
       transform="scale(1,-1)" />
    <rect
       id="rect42"
       style="paint-order:markers stroke fill"
       fill="#9b9a9b"
       height="128.5"
       width=".2448"
       y="-125.7"
       x="43.14"
       transform="scale(1,-1)" />
    <rect
       id="rect44"
       style="paint-order:markers stroke fill"
       fill="#a4a1a2"
       height="128.5"
       width=".2448"
       y="-125.7"
       x="43.63"
       transform="scale(1,-1)" />
    <rect
       id="rect46"
       style="paint-order:markers stroke fill"
       fill="#969a9c"
       height="128.5"
       width=".2448"
       y="-125.7"
       x="43.87"
       transform="scale(1,-1)" />
    <rect
       id="rect48"
       style="paint-order:markers stroke fill"
       fill="#8d8d8f"
       height="128.5"
       width=".2448"
       y="-125.7"
       x="44.36"
       transform="scale(1,-1)" />
    <rect
       id="rect50"
       style="paint-order:markers stroke fill"
       fill="#939395"
       height="128.5"
       width=".2448"
       y="-125.7"
       x="44.85"
       transform="scale(1,-1)" />
    <rect
       id="rect52"
       style="paint-order:markers stroke fill"
       fill="#909092"
       height="128.5"
       width=".2448"
       y="-125.7"
       x="45.34"
       transform="scale(1,-1)" />
    <rect
       id="rect54"
       style="paint-order:markers stroke fill"
       fill="#9b9a9c"
       height="128.5"
       width=".2448"
       y="-125.7"
       x="45.59"
       transform="scale(1,-1)" />
    <rect
       id="rect56"
       style="paint-order:markers stroke fill"
       fill="#959395"
       height="128.5"
       width=".2448"
       y="-125.7"
       x="45.83"
       transform="scale(1,-1)" />
    <rect
       id="rect58"
       style="paint-order:markers stroke fill"
       fill="#8e8f90"
       height="128.5"
       width=".2448"
       y="-125.7"
       x="46.08"
       transform="scale(1,-1)" />
    <rect
       id="rect60"
       style="paint-order:markers stroke fill"
       fill="#909092"
       height="128.5"
       width=".2448"
       y="-125.7"
       x="46.32"
       transform="scale(1,-1)" />
    <rect
       id="rect62"
       style="paint-order:markers stroke fill"
       fill="#9b9b9c"
       height="128.5"
       width=".2448"
       y="-125.7"
       x="46.57"
       transform="scale(1,-1)" />
    <rect
       id="rect64"
       style="paint-order:markers stroke fill"
       fill="#a29fa0"
       height="128.5"
       width=".2448"
       y="-125.7"
       x="46.81"
       transform="scale(1,-1)" />
    <rect
       id="rect66"
       style="paint-order:markers stroke fill"
       fill="#96999b"
       height="128.5"
       width=".2448"
       y="-125.7"
       x="47.06"
       transform="scale(1,-1)" />
    <rect
       id="rect68"
       style="paint-order:markers stroke fill"
       fill="#8e9395"
       height="128.5"
       width=".2448"
       y="-125.7"
       x="47.3"
       transform="scale(1,-1)" />
    <rect
       id="rect70"
       style="paint-order:markers stroke fill"
       fill="#a5a1a1"
       height="128.5"
       width=".2448"
       y="-125.7"
       x="47.55"
       transform="scale(1,-1)" />
    <rect
       id="rect72"
       style="paint-order:markers stroke fill"
       fill="#9b999b"
       height="128.5"
       width=".2448"
       y="-125.7"
       x="47.79"
       transform="scale(1,-1)" />
    <rect
       id="rect74"
       style="paint-order:markers stroke fill"
       fill="#8d9294"
       height="128.5"
       width=".2448"
       y="-125.7"
       x="48.04"
       transform="scale(1,-1)" />
    <rect
       id="rect76"
       style="paint-order:markers stroke fill"
       fill="#a5a3a4"
       height="128.5"
       width=".2448"
       y="-125.7"
       x="48.28"
       transform="scale(1,-1)" />
    <rect
       id="rect78"
       style="paint-order:markers stroke fill"
       fill="#a1a2a4"
       height="128.5"
       width=".2448"
       y="-125.7"
       x="48.53"
       transform="scale(1,-1)" />
    <rect
       id="rect80"
       style="paint-order:markers stroke fill"
       fill="#95989b"
       height="128.5"
       width=".2448"
       y="-125.7"
       x="48.77"
       transform="scale(1,-1)" />
    <rect
       id="rect82"
       style="paint-order:markers stroke fill"
       fill="#969798"
       height="128.5"
       width=".2448"
       y="-125.7"
       x="49.01"
       transform="scale(1,-1)" />
    <rect
       id="rect84"
       style="paint-order:markers stroke fill"
       fill="#929395"
       height="128.5"
       width=".2448"
       y="-125.7"
       x="49.26"
       transform="scale(1,-1)" />
    <rect
       id="rect86"
       style="paint-order:markers stroke fill"
       fill="#999b9c"
       height="128.5"
       width=".2448"
       y="-125.7"
       x="49.5"
       transform="scale(1,-1)" />
    <rect
       id="rect88"
       style="paint-order:markers stroke fill"
       fill="#a2a2a3"
       height="128.5"
       width=".2448"
       y="-125.7"
       x="49.75"
       transform="scale(1,-1)" />
    <rect
       id="rect90"
       style="paint-order:markers stroke fill"
       fill="#a0a3a5"
       height="128.5"
       width=".2448"
       y="-125.7"
       x="49.99"
       transform="scale(1,-1)" />
    <rect
       id="rect92"
       style="paint-order:markers stroke fill"
       fill="#919395"
       height="128.5"
       width=".2448"
       y="-125.7"
       x="50.24"
       transform="scale(1,-1)" />
    <rect
       id="rect94"
       style="paint-order:markers stroke fill"
       fill="#a19d9e"
       height="128.5"
       width=".2448"
       y="-125.7"
       x="50.48"
       transform="scale(1,-1)" />
    <rect
       id="rect96"
       style="paint-order:markers stroke fill"
       fill="#8d8f91"
       height="128.5"
       width=".2448"
       y="-125.7"
       x="50.73"
       transform="scale(1,-1)" />
    <rect
       id="rect98"
       style="paint-order:markers stroke fill"
       fill="#8e8f90"
       height="128.5"
       width=".2448"
       y="-125.7"
       x="50.97"
       transform="scale(1,-1)" />
    <rect
       id="rect100"
       style="paint-order:markers stroke fill"
       fill="#929597"
       height="128.5"
       width=".2448"
       y="-125.7"
       x="51.22"
       transform="scale(1,-1)" />
    <rect
       id="rect102"
       style="paint-order:markers stroke fill"
       fill="#9b9a9c"
       height="128.5"
       width=".2448"
       y="-125.7"
       x="51.46"
       transform="scale(1,-1)" />
    <rect
       id="rect104"
       style="paint-order:markers stroke fill"
       fill="#999698"
       height="128.5"
       width=".2448"
       y="-125.7"
       x="51.71"
       transform="scale(1,-1)" />
    <rect
       id="rect106"
       style="paint-order:markers stroke fill"
       fill="#8f9293"
       height="128.5"
       width=".2448"
       y="-125.7"
       x="51.95"
       transform="scale(1,-1)" />
    <rect
       id="rect108"
       style="paint-order:markers stroke fill"
       fill="#8f9293"
       height="128.5"
       width=".2448"
       y="-125.7"
       x="52.2"
       transform="scale(1,-1)" />
    <rect
       id="rect110"
       style="paint-order:markers stroke fill"
       fill="#a09c9c"
       height="128.5"
       width=".2448"
       y="-125.7"
       x="52.44"
       transform="scale(1,-1)" />
    <rect
       id="rect112"
       style="paint-order:markers stroke fill"
       fill="#919496"
       height="128.5"
       width=".2448"
       y="-125.7"
       x="52.69"
       transform="scale(1,-1)" />
    <rect
       id="rect114"
       style="paint-order:markers stroke fill"
       fill="#919496"
       height="128.5"
       width=".2448"
       y="-125.7"
       x="52.93"
       transform="scale(1,-1)" />
    <rect
       id="rect116"
       style="paint-order:markers stroke fill"
       fill="#8d9092"
       height="128.5"
       width=".2448"
       y="-125.7"
       x="53.18"
       transform="scale(1,-1)" />
    <rect
       id="rect118"
       style="paint-order:markers stroke fill"
       fill="#9b9a9c"
       height="128.5"
       width=".2448"
       y="-125.7"
       x="53.42"
       transform="scale(1,-1)" />
    <rect
       id="rect120"
       style="paint-order:markers stroke fill"
       fill="#9d9d9f"
       height="128.5"
       width=".2448"
       y="-125.7"
       x="53.67"
       transform="scale(1,-1)" />
    <rect
       id="rect122"
       style="paint-order:markers stroke fill"
       fill="#949799"
       height="128.5"
       width=".2448"
       y="-125.7"
       x="53.91"
       transform="scale(1,-1)" />
    <rect
       id="rect124"
       style="paint-order:markers stroke fill"
       fill="#999d9f"
       height="128.5"
       width=".2448"
       y="-125.7"
       x="54.16"
       transform="scale(1,-1)" />
    <rect
       id="rect126"
       style="paint-order:markers stroke fill"
       fill="#939395"
       height="128.5"
       width=".2448"
       y="-125.7"
       x="35.55"
       transform="scale(1,-1)" />
    <rect
       id="rect128"
       style="paint-order:markers stroke fill"
       fill="#93999b"
       height="128.5"
       width=".2448"
       y="-125.7"
       x="36.04"
       transform="scale(1,-1)" />
    <rect
       id="rect130"
       style="paint-order:markers stroke fill"
       fill="#a6a1a1"
       height="128.5"
       width=".2448"
       y="-125.7"
       x="36.53"
       transform="scale(1,-1)" />
    <rect
       id="rect132"
       style="paint-order:markers stroke fill"
       fill="#9b9a9b"
       height="128.5"
       width=".2448"
       y="-125.7"
       x="37.02"
       transform="scale(1,-1)" />
    <rect
       id="rect134"
       style="paint-order:markers stroke fill"
       fill="#a4a1a2"
       height="128.5"
       width=".2448"
       y="-125.7"
       x="37.51"
       transform="scale(1,-1)" />
    <rect
       id="rect136"
       style="paint-order:markers stroke fill"
       fill="#969a9c"
       height="128.5"
       width=".2448"
       y="-125.7"
       x="38"
       transform="scale(1,-1)" />
    <rect
       id="rect138"
       style="paint-order:markers stroke fill"
       fill="#8d8d8f"
       height="128.5"
       width=".2448"
       y="-125.7"
       x="38.49"
       transform="scale(1,-1)" />
    <rect
       id="rect140"
       style="paint-order:markers stroke fill"
       fill="#939395"
       height="128.5"
       width=".2448"
       y="-125.7"
       x="38.98"
       transform="scale(1,-1)" />
    <rect
       id="rect142"
       style="paint-order:markers stroke fill"
       fill="#909092"
       height="128.5"
       width=".2448"
       y="-125.7"
       x="39.47"
       transform="scale(1,-1)" />
    <rect
       id="rect144"
       style="paint-order:markers stroke fill"
       fill="#9b9a9c"
       height="128.5"
       width=".2448"
       y="-125.7"
       x="39.96"
       transform="scale(1,-1)" />
    <rect
       id="rect146"
       style="paint-order:markers stroke fill"
       fill="#959395"
       height="128.5"
       width=".2448"
       y="-125.7"
       x="40.45"
       transform="scale(1,-1)" />
    <rect
       id="rect148"
       style="paint-order:markers stroke fill"
       fill="#8e8f90"
       height="128.5"
       width=".2448"
       y="-125.7"
       x="40.94"
       transform="scale(1,-1)" />
    <rect
       id="rect150"
       style="paint-order:markers stroke fill"
       fill="#909092"
       height="128.5"
       width=".2448"
       y="-125.7"
       x="41.43"
       transform="scale(1,-1)" />
    <rect
       id="rect152"
       style="paint-order:markers stroke fill"
       fill="#9b9b9c"
       height="128.5"
       width=".2448"
       y="-125.7"
       x="41.92"
       transform="scale(1,-1)" />
    <rect
       id="rect154"
       style="paint-order:markers stroke fill"
       fill="#a29fa0"
       height="128.5"
       width=".2448"
       y="-125.7"
       x="42.41"
       transform="scale(1,-1)" />
    <rect
       id="rect156"
       style="paint-order:markers stroke fill"
       fill="#96999b"
       height="128.5"
       width=".2448"
       y="-125.7"
       x="42.89"
       transform="scale(1,-1)" />
    <rect
       id="rect158"
       style="paint-order:markers stroke fill"
       fill="#8e9395"
       height="128.5"
       width=".2448"
       y="-125.7"
       x="43.38"
       transform="scale(1,-1)" />
    <rect
       id="rect160"
       style="paint-order:markers stroke fill"
       fill="#a5a1a1"
       height="128.5"
       width=".2448"
       y="-125.7"
       x="44.12"
       transform="scale(1,-1)" />
    <rect
       id="rect162"
       style="paint-order:markers stroke fill"
       fill="#9b999b"
       height="128.5"
       width=".2448"
       y="-125.7"
       x="44.61"
       transform="scale(1,-1)" />
    <rect
       id="rect164"
       style="paint-order:markers stroke fill"
       fill="#8d9294"
       height="128.5"
       width=".2448"
       y="-125.7"
       x="45.1"
       transform="scale(1,-1)" />
    <rect
       id="rect166"
       style="paint-order:markers stroke fill"
       fill="#a5a3a4"
       height="128.5"
       width=".2448"
       y="-125.7"
       x="34.08"
       transform="scale(1,-1)" />
    <rect
       id="rect168"
       style="paint-order:markers stroke fill"
       fill="#a1a2a4"
       height="128.5"
       width=".2448"
       y="-125.7"
       x="34.33"
       transform="scale(1,-1)" />
  </g>
  <rect
     id="rect172"
     style="paint-order:stroke fill markers"
     stroke-width=".5757"
     fill="#28727b"
     ry="0"
     rx="0"
     height="106.5"
     width="20.32"
     y="11.01" />
  <path
     id="path174"
     style="paint-order:markers fill stroke"
     fill="#ccc"
     d="m10.1 118.4a2.15 2.15 0 0 0-2.149 2.149 2.15 2.15 0 0 0 2.149 2.15 2.15 2.15 0 0 0 2.15-2.15 2.15 2.15 0 0 0-2.15-2.149zm4e-3 0.1969 0.3416 1.068 0.9508-0.5938-0.4248 1.038 1.111 0.1561-0.9922 0.5219 0.7498 0.8335-1.096-0.2382 0.0388 1.12-0.6863-0.8862-0.6904 0.8832 0.0439-1.12-1.097 0.2331 0.754-0.8299-0.9896-0.5266 1.111-0.1509-0.4201-1.04 0.9483 0.5984zm0.3344 1.067-0.3406 0.2739-0.3416-0.2723-0.0847 0.4289-0.4372 0.0109 0.2108 0.3829-0.3276 0.2894 0.4072 0.1581-0.0646 0.432 0.4139-0.1406 0.2279 0.3726 0.2264-0.3736 0.4144 0.139-0.0672-0.432 0.4067-0.1602-0.3287-0.2878 0.2088-0.384-0.4367-9e-3z" />
  <path
     id="path176"
     style="paint-order:markers fill stroke"
     fill="#333"
     d="m10.1 118.5a2.15 2.15 0 0 0-2.149 2.149 2.15 2.15 0 0 0 2.149 2.15 2.15 2.15 0 0 0 2.15-2.15 2.15 2.15 0 0 0-2.15-2.149zm4e-3 0.1969 0.3416 1.068 0.9508-0.5938-0.4248 1.038 1.111 0.1561-0.9922 0.5219 0.7498 0.8335-1.096-0.2382 0.0388 1.12-0.6863-0.8862-0.6904 0.8832 0.0439-1.12-1.097 0.2331 0.754-0.8299-0.9896-0.5266 1.111-0.1509-0.4201-1.04 0.9483 0.5984zm0.3344 1.067-0.3406 0.2739-0.3416-0.2723-0.0847 0.4289-0.4372 0.0109 0.2108 0.3829-0.3276 0.2894 0.4072 0.1581-0.0646 0.432 0.4139-0.1406 0.2279 0.3726 0.2264-0.3736 0.4144 0.139-0.0672-0.432 0.4067-0.1602-0.3287-0.2878 0.2088-0.384-0.4367-9e-3z" />
  <g
     style="font-weight:800;font-size:5.514px;line-height:1.25;font-family:Urbanist;font-variant-ligatures:normal;font-variant-caps:normal;font-variant-numeric:normal;font-feature-settings:normal;letter-spacing:0px;word-spacing:0px;fill:#cccccc;stroke-width:0.1378"
     id="text180"
     aria-label="METAL">
    <path
       id="path1032"
       style="font-weight:800;font-size:5.514px;font-family:Urbanist;font-variant-ligatures:normal;font-variant-caps:normal;font-variant-numeric:normal;font-feature-settings:normal;text-align:center;text-anchor:middle;fill:#cccccc;stroke-width:0.1378"
       d="m 2.1858001,5.6101145 h 0.545886 l 0.945651,2.486814 0.945651,-2.486814 h 0.545886 l 0.749904,3.8597999 H 5.2433131 L 4.7773801,7.0602965 3.9034111,9.3734194 H 3.4512631 L 2.5772941,7.0602965 2.1113611,9.4699144 h -0.675465 z" />
    <path
       id="path1034"
       style="font-weight:800;font-size:5.514px;font-family:Urbanist;font-variant-ligatures:normal;font-variant-caps:normal;font-variant-numeric:normal;font-feature-settings:normal;text-align:center;text-anchor:middle;fill:#cccccc;stroke-width:0.1378"
       d="m 6.5837319,5.6101145 h 2.4178889 v 0.66168 h -1.756209 v 0.79953 h 1.395042 v 0.66168 h -1.395042 v 1.0752299 h 1.756209 v 0.66168 H 6.5837319 Z" />
    <path
       id="path1036"
       style="font-weight:800;font-size:5.514px;font-family:Urbanist;font-variant-ligatures:normal;font-variant-caps:normal;font-variant-numeric:normal;font-feature-settings:normal;text-align:center;text-anchor:middle;fill:#cccccc;stroke-width:0.1378"
       d="M 12.53239,6.2717945 H 11.34688 V 9.4699144 H 10.6852 V 6.2717945 H 9.4996903 v -0.66168 H 12.53239 Z" />
    <path
       id="path1038"
       style="font-weight:800;font-size:5.514px;font-family:Urbanist;font-variant-ligatures:normal;font-variant-caps:normal;font-variant-numeric:normal;font-feature-settings:normal;text-align:center;text-anchor:middle;fill:#cccccc;stroke-width:0.1378"
       d="m 14.593247,5.6101145 1.403313,3.8597999 h -0.703035 l -0.250887,-0.68925 h -1.659714 l -0.250887,0.68925 h -0.703035 l 1.403313,-3.8597999 z m 0.206775,2.50887 -0.589998,-1.615602 -0.584484,1.615602 z" />
    <path
       id="path1040"
       style="font-weight:800;font-size:5.514px;font-family:Urbanist;font-variant-ligatures:normal;font-variant-caps:normal;font-variant-numeric:normal;font-feature-settings:normal;text-align:center;text-anchor:middle;fill:#cccccc;stroke-width:0.1378"
       d="m 16.459392,5.6101145 h 0.66168 v 3.1981199 h 1.612845 v 0.66168 h -2.274525 z" />
  </g>
  <g
     style="font-weight:800;font-size:5.514px;line-height:1.25;font-family:Urbanist;font-variant-ligatures:normal;font-variant-caps:normal;font-variant-numeric:normal;font-feature-settings:normal;text-align:center;letter-spacing:0px;word-spacing:0px;text-anchor:middle;fill:#333333;stroke-width:0.1378"
     id="text184"
     aria-label="METAL">
    <path
       id="path1021"
       style="font-weight:800;font-size:5.514px;font-family:Urbanist;font-variant-ligatures:normal;font-variant-caps:normal;font-variant-numeric:normal;font-feature-settings:normal;text-align:center;text-anchor:middle;fill:#333333;stroke-width:0.1378"
       d="m 2.1858001,5.685284 h 0.545886 l 0.945651,2.486814 0.945651,-2.486814 h 0.545886 l 0.749904,3.8598 H 5.2433131 L 4.7773801,7.135466 3.9034111,9.448589 H 3.4512631 L 2.5772941,7.135466 2.1113611,9.545084 h -0.675465 z" />
    <path
       id="path1023"
       style="font-weight:800;font-size:5.514px;font-family:Urbanist;font-variant-ligatures:normal;font-variant-caps:normal;font-variant-numeric:normal;font-feature-settings:normal;text-align:center;text-anchor:middle;fill:#333333;stroke-width:0.1378"
       d="m 6.5837319,5.685284 h 2.4178889 v 0.66168 h -1.756209 v 0.79953 h 1.395042 v 0.66168 h -1.395042 v 1.07523 h 1.756209 v 0.66168 H 6.5837319 Z" />
    <path
       id="path1025"
       style="font-weight:800;font-size:5.514px;font-family:Urbanist;font-variant-ligatures:normal;font-variant-caps:normal;font-variant-numeric:normal;font-feature-settings:normal;text-align:center;text-anchor:middle;fill:#333333;stroke-width:0.1378"
       d="m 12.53239,6.346964 h -1.18551 v 3.19812 H 10.6852 V 6.346964 H 9.4996903 V 5.685284 H 12.53239 Z" />
    <path
       id="path1027"
       style="font-weight:800;font-size:5.514px;font-family:Urbanist;font-variant-ligatures:normal;font-variant-caps:normal;font-variant-numeric:normal;font-feature-settings:normal;text-align:center;text-anchor:middle;fill:#333333;stroke-width:0.1378"
       d="m 14.593247,5.685284 1.403313,3.8598 h -0.703035 l -0.250887,-0.68925 h -1.659714 l -0.250887,0.68925 h -0.703035 l 1.403313,-3.8598 z m 0.206775,2.50887 -0.589998,-1.615602 -0.584484,1.615602 z" />
    <path
       id="path1029"
       style="font-weight:800;font-size:5.514px;font-family:Urbanist;font-variant-ligatures:normal;font-variant-caps:normal;font-variant-numeric:normal;font-feature-settings:normal;text-align:center;text-anchor:middle;fill:#333333;stroke-width:0.1378"
       d="m 16.459392,5.685284 h 0.66168 v 3.19812 h 1.612845 v 0.66168 h -2.274525 z" />
  </g>
  <g
     style="font-style:normal;font-variant:normal;font-weight:bold;font-stretch:normal;font-size:4.93889px;line-height:1.25;font-family:Urbanist;-inkscape-font-specification:'Urbanist, Bold';font-variant-ligatures:normal;font-variant-caps:normal;font-variant-numeric:normal;font-variant-east-asian:normal;letter-spacing:0px;word-spacing:0px;fill:#e6ebef;stroke-width:0.08618"
     id="text188"
     aria-label="606">
    <path
       id="path1077"
       style="font-style:normal;font-variant:normal;font-weight:bold;font-stretch:normal;font-size:4.93889px;font-family:Urbanist;-inkscape-font-specification:'Urbanist, Bold';font-variant-ligatures:normal;font-variant-caps:normal;font-variant-numeric:normal;font-variant-east-asian:normal;text-align:center;text-anchor:middle;fill:#e6ebef;stroke-width:0.08618"
       d="m 7.3425888,33.585633 q -0.3234973,0 -0.6025446,-0.162984 Q 6.4634664,33.259666 6.300483,32.983088 6.1374997,32.704041 6.1374997,32.375605 q 0,-0.172861 0.039511,-0.316089 0.041981,-0.143228 0.1308806,-0.306211 L 7.2833221,30.064204 H 7.8562334 L 7.177136,31.237191 q 0.1086556,-0.02469 0.2321278,-0.02469 0.2988029,0 0.5630335,0.153106 0.2642306,0.153105 0.4222751,0.419805 0.1605139,0.2667 0.1605139,0.590198 0,0.325966 -0.1629834,0.605014 -0.1629833,0.279047 -0.4420306,0.44203 -0.2790473,0.162984 -0.6074835,0.162984 z m 0,-0.493889 q 0.2024945,0 0.3654779,-0.09878 0.1654528,-0.101247 0.2592917,-0.2667 0.093839,-0.165453 0.093839,-0.350661 0,-0.192617 -0.096308,-0.3556 -0.093839,-0.165453 -0.2568223,-0.261762 -0.1629834,-0.09631 -0.360539,-0.09631 -0.2024945,0 -0.3654778,0.09878 -0.1629834,0.09878 -0.2568223,0.26423 -0.093839,0.162984 -0.093839,0.350662 0,0.197555 0.098778,0.363008 0.098778,0.162983 0.2617611,0.259292 0.1654528,0.09384 0.3506612,0.09384 z" />
    <path
       id="path1079"
       style="font-style:normal;font-variant:normal;font-weight:bold;font-stretch:normal;font-size:4.93889px;font-family:Urbanist;-inkscape-font-specification:'Urbanist, Bold';font-variant-ligatures:normal;font-variant-caps:normal;font-variant-numeric:normal;font-variant-east-asian:normal;text-align:center;text-anchor:middle;fill:#e6ebef;stroke-width:0.08618"
       d="m 10.191943,33.585633 q -0.3951117,0 -0.7013229,-0.239536 -0.3037417,-0.239537 -0.471664,-0.649464 -0.1654528,-0.409928 -0.1654528,-0.903817 0,-0.496359 0.1654528,-0.903817 0.1679223,-0.409928 0.471664,-0.649464 0.3062112,-0.239536 0.7013229,-0.239536 0.395111,0 0.696383,0.239536 0.303742,0.237066 0.469195,0.646994 0.165452,0.409928 0.165452,0.906287 0,0.493889 -0.165452,0.903817 -0.165453,0.409927 -0.469195,0.649464 -0.301272,0.239536 -0.696383,0.239536 z m 0,-0.493889 q 0.279047,0 0.474133,-0.175331 0.195086,-0.1778 0.293864,-0.471664 0.09878,-0.296333 0.09878,-0.651933 0,-0.367948 -0.101248,-0.661812 -0.101247,-0.296333 -0.296333,-0.466725 -0.195086,-0.170391 -0.469194,-0.170391 -0.2839867,0 -0.4815423,0.1778 -0.1975556,0.1778 -0.2963334,0.474133 -0.096308,0.293864 -0.096308,0.646995 0,0.35313 0.098778,0.649464 0.1012472,0.296333 0.2988028,0.474133 0.1975556,0.175331 0.4766034,0.175331 z" />
    <path
       id="path1081"
       style="font-style:normal;font-variant:normal;font-weight:bold;font-stretch:normal;font-size:4.93889px;font-family:Urbanist;-inkscape-font-specification:'Urbanist, Bold';font-variant-ligatures:normal;font-variant-caps:normal;font-variant-numeric:normal;font-variant-east-asian:normal;text-align:center;text-anchor:middle;fill:#e6ebef;stroke-width:0.08618"
       d="m 12.995303,33.585633 q -0.323498,0 -0.602545,-0.162984 -0.276578,-0.162983 -0.439561,-0.439561 -0.162984,-0.279047 -0.162984,-0.607483 0,-0.172861 0.03951,-0.316089 0.04198,-0.143228 0.13088,-0.306211 l 0.975431,-1.689101 h 0.572911 l -0.679097,1.172987 q 0.108655,-0.02469 0.232128,-0.02469 0.298802,0 0.563033,0.153106 0.264231,0.153105 0.422275,0.419805 0.160514,0.2667 0.160514,0.590198 0,0.325966 -0.162983,0.605014 -0.162984,0.279047 -0.442031,0.44203 -0.279047,0.162984 -0.607483,0.162984 z m 0,-0.493889 q 0.202494,0 0.365477,-0.09878 0.165453,-0.101247 0.259292,-0.2667 0.09384,-0.165453 0.09384,-0.350661 0,-0.192617 -0.09631,-0.3556 -0.09384,-0.165453 -0.256823,-0.261762 -0.162983,-0.09631 -0.360539,-0.09631 -0.202494,0 -0.365477,0.09878 -0.162984,0.09878 -0.256823,0.26423 -0.09384,0.162984 -0.09384,0.350662 0,0.197555 0.09878,0.363008 0.09878,0.162983 0.261761,0.259292 0.165453,0.09384 0.350662,0.09384 z" />
  </g>
  <g
     style="font-style:normal;font-variant:normal;font-weight:bold;font-stretch:normal;font-size:4.93889px;line-height:1.25;font-family:Urbanist;-inkscape-font-specification:'Urbanist, Bold';font-variant-ligatures:normal;font-variant-caps:normal;font-variant-numeric:normal;font-variant-east-asian:normal;letter-spacing:0px;word-spacing:0px;fill:#e6ebef;stroke-width:0.0861801"
     id="text188-6"
     aria-label="808">
    <path
       id="path1084"
       d="m 7.3655364,73.585637 q -0.3086806,0 -0.5679723,-0.140759 Q 6.5382723,73.30165 6.3876362,73.059645 6.237,72.81517 6.237,72.526245 6.237,72.276831 6.3604723,72.05952 6.486414,71.839739 6.6987863,71.70145 6.5234557,71.575508 6.419739,71.385361 6.3160223,71.195214 6.3160223,70.980372 q 0,-0.2667 0.1407583,-0.491419 0.1432279,-0.22472 0.382764,-0.355601 0.2420056,-0.13335 0.5259918,-0.13335 0.2839862,0 0.5235223,0.13335 0.2395362,0.130881 0.3802946,0.355601 0.1432278,0.224719 0.1432278,0.491419 0,0.214842 -0.1037167,0.404989 -0.1037167,0.190147 -0.2790473,0.316089 0.2148417,0.138289 0.338314,0.3556 0.1259417,0.217311 0.1259417,0.469195 0,0.288925 -0.1531056,0.5334 -0.1506362,0.242005 -0.4099279,0.385233 -0.2592917,0.140759 -0.5655029,0.140759 z m 0,-2.116315 q 0.1432278,0 0.2617612,-0.06421 0.1210028,-0.06668 0.1901472,-0.1778 0.071614,-0.113595 0.071614,-0.246945 0,-0.13335 -0.071614,-0.244475 -0.069144,-0.111125 -0.1901472,-0.175331 -0.1185334,-0.06667 -0.2617612,-0.06667 -0.1432278,0 -0.2642306,0.06667 -0.1210028,0.06421 -0.1926167,0.175331 -0.069145,0.111125 -0.069145,0.244475 0,0.13335 0.069145,0.246945 0.071614,0.111125 0.1926167,0.1778 0.1210028,0.06421 0.2642306,0.06421 z m 0,1.622426 q 0.1654528,0 0.3037417,-0.07408 0.138289,-0.07655 0.2197806,-0.207433 0.081492,-0.130881 0.081492,-0.283986 0,-0.153106 -0.081492,-0.281517 -0.081492,-0.130881 -0.2197806,-0.204964 -0.1382889,-0.07655 -0.3037417,-0.07655 -0.1629834,0 -0.3037417,0.07655 -0.1407584,0.07408 -0.2222501,0.204964 -0.081492,0.128411 -0.081492,0.281517 0,0.153105 0.081492,0.283986 0.081492,0.13088 0.2222501,0.207433 0.1407583,0.07408 0.3037417,0.07408 z" />
    <path
       id="path1086"
       d="m 10.178774,73.585637 q -0.3951108,0 -0.701322,-0.239537 -0.3037418,-0.239536 -0.471664,-0.649464 -0.1654528,-0.409928 -0.1654528,-0.903817 0,-0.496358 0.1654528,-0.903816 0.1679222,-0.409928 0.471664,-0.649464 0.3062112,-0.239537 0.701322,-0.239537 0.395112,0 0.696384,0.239537 0.303742,0.237066 0.469194,0.646994 0.165453,0.409928 0.165453,0.906286 0,0.493889 -0.165453,0.903817 -0.165452,0.409928 -0.469194,0.649464 -0.301272,0.239537 -0.696384,0.239537 z m 0,-0.493889 q 0.279048,0 0.474134,-0.175331 0.195086,-0.1778 0.293864,-0.471664 0.09878,-0.296333 0.09878,-0.651934 0,-0.367947 -0.101248,-0.661811 -0.101247,-0.296333 -0.296333,-0.466725 -0.195086,-0.170392 -0.469195,-0.170392 -0.2839858,0 -0.4815414,0.1778 -0.1975556,0.1778 -0.2963334,0.474134 -0.096308,0.293864 -0.096308,0.646994 0,0.353131 0.098778,0.649465 0.1012473,0.296333 0.2988029,0.474133 0.1975556,0.175331 0.4766025,0.175331 z" />
    <path
       id="path1088"
       d="m 12.979665,73.585637 q -0.30868,0 -0.567972,-0.140759 -0.259292,-0.143228 -0.409928,-0.385233 -0.150636,-0.244475 -0.150636,-0.5334 0,-0.249414 0.123472,-0.466725 0.125942,-0.219781 0.338314,-0.35807 -0.17533,-0.125942 -0.279047,-0.316089 -0.103717,-0.190147 -0.103717,-0.404989 0,-0.2667 0.140759,-0.491419 0.143228,-0.22472 0.382764,-0.355601 0.242005,-0.13335 0.525991,-0.13335 0.283987,0 0.523523,0.13335 0.239536,0.130881 0.380294,0.355601 0.143228,0.224719 0.143228,0.491419 0,0.214842 -0.103717,0.404989 -0.103716,0.190147 -0.279047,0.316089 0.214842,0.138289 0.338314,0.3556 0.125942,0.217311 0.125942,0.469195 0,0.288925 -0.153106,0.5334 -0.150636,0.242005 -0.409928,0.385233 -0.259291,0.140759 -0.565503,0.140759 z m 0,-2.116315 q 0.143228,0 0.261762,-0.06421 0.121002,-0.06668 0.190147,-0.1778 0.07161,-0.113595 0.07161,-0.246945 0,-0.13335 -0.07161,-0.244475 -0.06914,-0.111125 -0.190147,-0.175331 -0.118534,-0.06667 -0.261762,-0.06667 -0.143227,0 -0.26423,0.06667 -0.121003,0.06421 -0.192617,0.175331 -0.06914,0.111125 -0.06914,0.244475 0,0.13335 0.06914,0.246945 0.07161,0.111125 0.192617,0.1778 0.121003,0.06421 0.26423,0.06421 z m 0,1.622426 q 0.165453,0 0.303742,-0.07408 0.138289,-0.07655 0.219781,-0.207433 0.08149,-0.130881 0.08149,-0.283986 0,-0.153106 -0.08149,-0.281517 -0.08149,-0.130881 -0.219781,-0.204964 -0.138289,-0.07655 -0.303742,-0.07655 -0.162983,0 -0.303741,0.07655 -0.140759,0.07408 -0.22225,0.204964 -0.08149,0.128411 -0.08149,0.281517 0,0.153105 0.08149,0.283986 0.08149,0.13088 0.22225,0.207433 0.140758,0.07408 0.303741,0.07408 z" />
  </g>
  <text
     id="text1093"
     y="12.370535"
     x="7.7726369"
     style="font-size:10.5833px;line-height:1.25;font-family:sans-serif;letter-spacing:0px;word-spacing:0px;stroke-width:0.264583"
     xml:space="preserve"><tspan
       style="stroke-width:0.264583"
       y="12.370535"
       x="7.7726369"
       id="tspan1091"
       sodipodi:role="line"></tspan></text>
</svg>
