<?xml version="1.0" encoding="UTF-8" standalone="no"?>
<svg
   xmlns:dc="http://purl.org/dc/elements/1.1/"
   xmlns:cc="http://creativecommons.org/ns#"
   xmlns:rdf="http://www.w3.org/1999/02/22-rdf-syntax-ns#"
   xmlns:svg="http://www.w3.org/2000/svg"
   xmlns="http://www.w3.org/2000/svg"
   xmlns:sodipodi="http://sodipodi.sourceforge.net/DTD/sodipodi-0.dtd"
   xmlns:inkscape="http://www.inkscape.org/namespaces/inkscape"
   inkscape:version="1.0 (4035a4fb49, 2020-05-01)"
   sodipodi:docname="MS20.svg"
   id="svg851"
   preserveAspectRatio="xMidYMid meet"
   viewBox="0 0 57.599997 364.25198"
   height="128.5mm"
   width="20.32mm"
   version="1.0">
  <defs
     id="defs855" />
  <sodipodi:namedview
     units="mm"
     inkscape:document-units="mm"
     inkscape:current-layer="svg851"
     inkscape:window-maximized="1"
     inkscape:window-y="-9"
     inkscape:window-x="-9"
     inkscape:cy="254.66667"
     inkscape:cx="41.333333"
     inkscape:zoom="1.572644"
     showgrid="false"
     id="namedview853"
     inkscape:window-height="1001"
     inkscape:window-width="1920"
     inkscape:pageshadow="2"
     inkscape:pageopacity="0"
     guidetolerance="10"
     gridtolerance="10"
     objecttolerance="10"
     borderopacity="1"
     bordercolor="#666666"
     pagecolor="#ffffff"
     inkscape:document-rotation="0" />
  <metadata
     id="metadata845">
Created by potrace 1.15, written by Peter Selinger 2001-2017
<rdf:RDF>
  <cc:Work
     rdf:about="">
    <dc:format>image/svg+xml</dc:format>
    <dc:type
       rdf:resource="http://purl.org/dc/dcmitype/StillImage" />
    <dc:title />
  </cc:Work>
</rdf:RDF>
</metadata>
  <g
     style="fill:#2f5d68;fill-opacity:1"
     id="g849"
     stroke="none"
     fill="#000000"
     transform="matrix(0.09442623,0,0,-0.09560419,0.05573772,365.25196)">
    <path
       style="fill:#2f5d68;fill-opacity:1"
       id="path847"
       d="M 10,1905 V 0 H 315 620 V 1905 3810 H 315 10 Z" />
  </g>
  <g
     style="font-style:normal;font-variant:normal;font-weight:normal;font-stretch:normal;font-size:16.3471px;line-height:1.25;font-family:'Eras Bold ITC';-inkscape-font-specification:'Eras Bold ITC, Normal';font-variant-ligatures:normal;font-variant-caps:normal;font-variant-numeric:normal;font-variant-east-asian:normal;letter-spacing:0px;word-spacing:0px;fill:#ffee00;fill-opacity:1;stroke-width:0.408675"
     id="text859"
     transform="scale(0.79745135,1.253995)"
     aria-label="MS-20">
    <path
       id="path3151"
       d="m 12.63909,24.657907 0.199549,-1.61236 0.494883,-5.595369 0.247442,-3.687676 q 1.468684,0.01596 2.306792,0.01596 0.694433,0 2.123208,-0.01596 0.103765,0.68645 0.175603,1.04564 0.07184,0.351207 0.351207,1.388864 0.287352,1.029676 0.454973,1.787964 0.175604,0.750307 0.518829,2.578181 0.351207,-1.253172 0.638559,-2.155135 0.287351,-0.901964 0.718378,-2.05137 0.431027,-1.149405 0.542775,-1.500613 0.11973,-0.359189 0.319279,-1.093531 1.197298,0.01596 2.346703,0.01596 0.782234,0 2.171099,-0.01596 -0.151658,2.689928 -0.199549,4.621568 -0.103766,3.783459 -0.103766,5.204252 0,0.295333 0.01596,1.069585 -1.053622,-0.01596 -1.476667,-0.01596 -0.614613,0 -1.508595,0.01596 0.06386,-0.718378 0.15964,-3.416288 0.09578,-2.705892 0.09578,-3.456198 0,-0.327261 -0.01596,-0.909946 l -1.04564,3.248667 -1.500612,4.533765 q -1.037658,-0.01596 -1.428775,-0.01596 -0.494883,0 -1.516577,0.01596 l -0.981784,-4.39009 -0.574702,-2.33872 q -0.03193,-0.135694 -0.07184,-0.335244 -0.03991,-0.199549 -0.127712,-0.702414 l -0.199549,2.211009 -0.263406,4.533766 -0.02395,1.021693 q -1.101513,-0.01596 -1.404829,-0.01596 -0.415063,0 -1.436756,0.01596 z" />
    <path
       id="path3153"
       d="m 27.796874,24.490286 q -0.103766,-1.700162 -0.23946,-2.721856 0.893982,0.399099 1.588415,0.558739 0.702414,0.151657 1.229225,0.151657 0.694433,0 1.101514,-0.199549 0.415063,-0.207532 0.415063,-0.606631 0,-0.135694 -0.03991,-0.255423 -0.03991,-0.127712 -0.151658,-0.27937 -0.111748,-0.159639 -0.319279,-0.343225 l -1.500613,-1.309045 q -0.526811,-0.446991 -0.734342,-0.64654 -0.423045,-0.407082 -0.662505,-0.758289 -0.231477,-0.351207 -0.343225,-0.710396 -0.103766,-0.367171 -0.103766,-0.774252 0,-0.486901 0.167622,-0.949856 0.175604,-0.470937 0.518829,-0.878018 0.343225,-0.407081 0.909946,-0.702415 0.566721,-0.295333 1.213261,-0.399099 0.646541,-0.111748 1.332991,-0.111748 1.348955,0 2.93737,0.311298 0.02394,0.550756 0.05587,1.013711 0.03193,0.454973 0.151658,1.604379 -0.734342,-0.295334 -1.340973,-0.407081 -0.606631,-0.11973 -1.04564,-0.11973 -0.622594,0 -1.037657,0.231477 -0.407081,0.231478 -0.407081,0.574703 0,0.15964 0.06386,0.311298 0.06386,0.151657 0.239459,0.359189 0.175604,0.199549 0.462955,0.446991 0.287351,0.239459 0.901964,0.718378 l 0.574703,0.454973 q 0.255423,0.207532 0.550756,0.502865 0.295334,0.295333 0.510847,0.582685 0.215514,0.287351 0.327262,0.52681 0.119729,0.23946 0.175603,0.486901 0.05587,0.23946 0.05587,0.518829 0,0.718379 -0.343225,1.372901 -0.343225,0.646541 -0.973802,1.069586 -0.630577,0.415063 -1.388865,0.582684 -0.750306,0.167622 -1.588414,0.167622 -1.293081,0 -3.264631,-0.375153 z" />
    <path
       id="path3155"
       d="m 36.106118,21.520989 q 0.09578,-1.157388 0.11973,-2.21101 1.133441,0.03193 2.139171,0.03193 1.021694,0 2.147153,-0.03193 -0.09578,1.029676 -0.11973,2.21101 -1.133441,-0.02395 -2.147153,-0.02395 -1.013711,0 -2.139171,0.02395 z" />
    <path
       id="path3157"
       d="m 41.118801,24.657907 q 0.03193,-0.375153 0.04789,-0.989765 0.02395,-0.622595 0.05587,-1.269135 0.830126,-0.678469 1.524559,-1.317027 1.125459,-1.037658 1.995495,-1.947604 0.694432,-0.72636 1.165369,-1.332991 0.271388,-0.359189 0.35919,-0.598649 0.06385,-0.167621 0.06385,-0.343225 0,-0.231477 -0.103765,-0.399099 -0.103766,-0.175604 -0.327262,-0.295333 -0.223495,-0.11973 -0.542774,-0.191568 -0.31928,-0.07184 -0.726361,-0.07184 -0.558738,0 -1.181333,0.09578 -0.614613,0.09578 -1.684198,0.367171 l 0.207531,-1.141423 q 0.07184,-0.343226 0.207532,-1.317027 2.099261,-0.351208 3.935117,-0.351208 0.838108,0 1.604378,0.151658 0.766271,0.151658 1.372901,0.518829 0.606631,0.359189 0.909946,0.84609 0.303316,0.478919 0.303316,1.037658 0,0.367171 -0.0878,0.72636 -0.0878,0.343225 -0.327262,0.80618 -0.303315,0.574703 -0.750306,1.133442 -0.662504,0.838108 -1.53254,1.73209 -0.830127,0.84609 -1.995496,1.899712 l 0.878018,0.008 q 0.311297,0 1.229225,-0.01596 0.92591,-0.01596 1.285099,-0.03193 0.35919,-0.01596 0.886,-0.07184 -0.02394,0.383135 -0.07982,0.957838 -0.04789,0.574702 -0.103766,1.404828 -1.987514,-0.01596 -4.158613,-0.01596 -2.61809,0 -4.43,0.01596 z" />
    <path
       id="path3159"
       d="m 56.787431,13.55497 q 1.285099,0 2.314775,0.502865 1.037657,0.502865 1.61236,1.724108 0.582685,1.213262 0.582685,2.865532 0,1.293081 -0.359189,2.562216 -0.351208,1.269135 -0.96582,2.043388 -0.606631,0.76627 -1.604379,1.189315 -0.997747,0.423045 -2.131189,0.423045 -0.96582,0 -1.81191,-0.311297 -0.84609,-0.311298 -1.484648,-1.013712 -0.638559,-0.702414 -0.893982,-1.660252 -0.255424,-0.96582 -0.255424,-2.059352 0,-1.325009 0.351207,-2.602126 0.35919,-1.277117 0.997748,-2.083297 0.638559,-0.80618 1.604379,-1.189315 0.965819,-0.391118 2.043387,-0.391118 z m -0.05587,2.362667 q -0.375153,0 -0.670486,0.223496 -0.35919,0.271387 -0.566721,0.742324 -0.255424,0.566721 -0.383135,1.301063 -0.143676,0.80618 -0.143676,1.772 0,0.84609 0.15964,1.404829 0.159639,0.550757 0.478919,0.854072 0.327261,0.303315 0.758288,0.303315 0.239459,0 0.462955,-0.103765 0.231477,-0.103766 0.478919,-0.415064 0.255423,-0.311297 0.446991,-0.893982 0.191567,-0.582684 0.279369,-1.213261 0.0878,-0.638558 0.0878,-1.293081 0,-1.356937 -0.375153,-2.019441 -0.375153,-0.662505 -1.013712,-0.662505 z" />
  </g>
  <g
     style="font-style:normal;font-variant:normal;font-weight:normal;font-stretch:normal;font-size:18.6225px;line-height:1.25;font-family:'Eras Medium ITC';-inkscape-font-specification:'Eras Medium ITC, Normal';font-variant-ligatures:normal;font-variant-caps:normal;font-variant-numeric:normal;font-variant-east-asian:normal;letter-spacing:0px;word-spacing:0px;fill:#ffee00;fill-opacity:1;stroke-width:0.465563"
     id="text3164"
     transform="matrix(0.97089764,0,0,1.0299747,0,-14.173232)"
     aria-label="Freq">
    <path
       id="path3170"
       style="font-style:normal;font-variant:normal;font-weight:normal;font-stretch:normal;font-size:18.6225px;font-family:'Eras Medium ITC';-inkscape-font-specification:'Eras Medium ITC, Normal';font-variant-ligatures:normal;font-variant-caps:normal;font-variant-numeric:normal;font-variant-east-asian:normal;fill:#ffee00;fill-opacity:1;stroke-width:0.465563"
       d="m 13.61567,108.73725 0.11821,-1.66402 q 0.03637,-0.56377 0.06365,-1.22756 l 0.200046,-5.41034 0.05456,-2.182328 q 0.01819,-0.691069 0.01819,-1.209371 v -0.718348 q 2.155045,0.0091 4.073672,0.0091 l 2.245975,-0.0091 H 21.73574 Q 21.663,97.16184 21.663,97.589212 q -1.154814,-0.07274 -3.255301,-0.07274 l -2.673347,0.01819 -0.136395,4.291908 1.745859,0.0364 q 2.473301,0 3.591742,-0.0364 -0.05456,0.67288 -0.05456,1.24574 -1.682208,-0.0364 -2.837021,-0.0364 -1.136627,0 -2.518766,0.0364 -0.100023,3.34623 -0.100023,5.66495 l -0.882023,-0.0182 q -0.05456,0 -0.927488,0.0182 z" />
    <path
       id="path3172"
       style="font-style:normal;font-variant:normal;font-weight:normal;font-stretch:normal;font-size:18.6225px;font-family:'Eras Medium ITC';-inkscape-font-specification:'Eras Medium ITC, Normal';font-variant-ligatures:normal;font-variant-caps:normal;font-variant-numeric:normal;font-variant-east-asian:normal;fill:#ffee00;fill-opacity:1;stroke-width:0.465563"
       d="m 23.31792,108.73725 q 0.327349,-5.24667 0.327349,-8.37467 l -0.0091,-0.836555 q 0.463744,0.0091 0.763814,0.0091 0.345535,0 0.772906,-0.0091 l -0.07274,1.509445 q 0.336442,-0.56377 0.591046,-0.84565 0.263698,-0.290982 0.591047,-0.472842 0.327348,-0.190953 0.736534,-0.290976 0.418279,-0.109117 0.863837,-0.109117 0.381906,0 0.75472,0.09093 0.0091,0.600135 0.06365,1.345765 -0.563767,-0.15458 -1.009325,-0.15458 -0.536488,0 -0.96386,0.18186 -0.427371,0.17277 -0.772906,0.53649 -0.336442,0.35463 -0.554674,0.85474 -0.18186,0.4001 -0.281884,1.03661 -0.09093,0.63651 -0.145488,2.31872 -0.03637,1.22755 -0.03637,2.6006 v 0.60923 q -0.491023,-0.0182 -0.791093,-0.0182 -0.27279,0 -0.827464,0.0182 z" />
    <path
       id="path3174"
       style="font-style:normal;font-variant:normal;font-weight:normal;font-stretch:normal;font-size:18.6225px;font-family:'Eras Medium ITC';-inkscape-font-specification:'Eras Medium ITC, Normal';font-variant-ligatures:normal;font-variant-caps:normal;font-variant-numeric:normal;font-variant-east-asian:normal;fill:#ffee00;fill-opacity:1;stroke-width:0.465563"
       d="m 37.393911,107.29146 q -0.109116,0.50012 -0.218232,1.27302 -0.87293,0.21824 -1.518534,0.29098 -0.636511,0.0818 -1.273022,0.0818 -1.136628,0 -2.045929,-0.27279 -0.900209,-0.27279 -1.545813,-0.94568 -0.645604,-0.68197 -0.927488,-1.5549 -0.281884,-0.87293 -0.281884,-1.84589 0,-1.35485 0.518302,-2.50967 0.518302,-1.1639 1.554906,-1.827694 1.045697,-0.663791 2.646068,-0.663791 0.827465,0 1.582185,0.245512 0.754721,0.236418 1.254837,0.727443 0.500116,0.49102 0.772906,1.21846 0.272791,0.71835 0.272791,1.57309 0,0.32735 -0.05456,0.63652 h -6.937972 q -0.03637,0.50011 -0.03637,0.76381 0,0.95477 0.400093,1.76404 0.400093,0.80019 1.182092,1.21847 0.782,0.40918 1.800418,0.40918 1.172999,0 2.855207,-0.58195 z m -6.128693,-4.32827 h 5.419438 q -0.0091,-0.57286 -0.07274,-0.89112 -0.06365,-0.31826 -0.236419,-0.6547 -0.172767,-0.34553 -0.472836,-0.59104 -0.290977,-0.25461 -0.709256,-0.38191 -0.409186,-0.1364 -0.891116,-0.1364 -0.518302,0 -0.991138,0.14549 -0.463744,0.14549 -0.827465,0.4001 -0.354628,0.2546 -0.609232,0.60013 -0.245512,0.33645 -0.372814,0.6547 -0.118209,0.31826 -0.236418,0.85475 z" />
    <path
       id="path3176"
       style="font-style:normal;font-variant:normal;font-weight:normal;font-stretch:normal;font-size:18.6225px;font-family:'Eras Medium ITC';-inkscape-font-specification:'Eras Medium ITC, Normal';font-variant-ligatures:normal;font-variant-caps:normal;font-variant-numeric:normal;font-variant-east-asian:normal;fill:#ffee00;fill-opacity:1;stroke-width:0.465563"
       d="m 46.505114,112.8382 0.127302,-2.17323 q 0.04547,-0.782 0.06365,-1.34577 l 0.100023,-2.48239 q -0.372813,0.60014 -0.654697,0.9184 -0.281884,0.31825 -0.718348,0.59104 -0.436465,0.27279 -0.972953,0.42737 -0.536488,0.16368 -1.127534,0.16368 -0.809279,0 -1.545813,-0.30916 -0.736535,-0.30917 -1.26393,-0.88203 -0.527395,-0.57286 -0.781999,-1.35486 -0.254605,-0.79109 -0.254605,-1.64583 0,-1.21847 0.463744,-2.346 0.472837,-1.12754 1.309395,-1.8277 0.836557,-0.709254 1.909533,-0.982044 1.072976,-0.272791 2.327813,-0.272791 0.491023,0 1.118441,0.04547 0.627418,0.04547 2.045929,0.281884 l -0.145489,1.964091 -0.154581,3.53719 -0.145488,4.98296 -0.05456,2.70973 q -0.491023,-0.009 -0.809279,-0.009 z m 0.436465,-12.13918 q -0.627419,-0.15458 -0.991139,-0.19095 -0.363721,-0.0364 -0.663791,-0.0364 -1.282115,0 -2.273254,0.5183 -0.982046,0.5183 -1.482162,1.54581 -0.500116,1.02751 -0.500116,2.25507 0,0.82747 0.290977,1.50944 0.290976,0.68198 0.927488,1.10026 0.636511,0.40918 1.41851,0.40918 0.681977,0 1.26393,-0.28188 0.591046,-0.28188 1.027511,-0.84565 0.445557,-0.57286 0.672883,-1.31849 0.118209,-0.41828 0.18186,-1.14572 0.08184,-0.99114 0.127303,-3.519 z" />
  </g>
  <g
     style="font-style:normal;font-variant:normal;font-weight:normal;font-stretch:normal;font-size:22.6449px;line-height:1.25;font-family:'Eras Medium ITC';-inkscape-font-specification:'Eras Medium ITC, Normal';font-variant-ligatures:normal;font-variant-caps:normal;font-variant-numeric:normal;font-variant-east-asian:normal;letter-spacing:0px;word-spacing:0px;fill:#ffee00;fill-opacity:1;stroke-width:0.566123"
     id="text3168"
     transform="matrix(0.9030111,0,0,1.0151249,0,11.810476)"
     aria-label="Res">
    <path
       id="path3179"
       style="font-style:normal;font-variant:normal;font-weight:normal;font-stretch:normal;font-size:22.6449px;font-family:'Eras Medium ITC';-inkscape-font-specification:'Eras Medium ITC, Normal';font-variant-ligatures:normal;font-variant-caps:normal;font-variant-numeric:normal;font-variant-east-asian:normal;fill:#ffee00;fill-opacity:1;stroke-width:0.566123"
       d="m 17.15724,219.89235 0.221142,-2.97436 0.254312,-5.49536 0.110571,-4.62186 q 0.02211,-1.40425 0.02211,-2.00133 1.32685,0.0221 2.200359,0.0221 0.751882,0 1.658562,-0.0221 0.917738,-0.0221 1.503763,-0.0221 1.028308,0 1.868647,0.14374 0.851395,0.14375 1.514819,0.66343 0.674482,0.50862 0.984081,1.19416 0.320655,0.67448 0.320655,1.53694 0,0.82928 -0.254313,1.53693 -0.243256,0.70765 -0.729767,1.28262 -0.475455,0.57497 -1.138879,0.93985 -0.508626,0.27643 -1.271565,0.45334 -0.508625,0.11057 -1.393192,0.21009 l 1.946046,3.10704 2.012389,3.08492 q 0.210084,0.32066 0.608139,0.96197 -0.862452,-0.0221 -1.149936,-0.0221 -0.309598,0 -1.183108,0.0221 l -0.796109,-1.51482 q -0.243256,-0.44228 -0.486512,-0.87351 -0.243256,-0.43123 -0.53074,-0.92879 l -2.4989,-4.08007 q -0.154799,-0.24325 -0.508625,-0.85139 0.851395,0.1548 1.503763,0.1548 1.105707,0 2.001331,-0.36489 0.90668,-0.36488 1.393192,-1.12782 0.497569,-0.77399 0.497569,-1.71385 0,-0.50862 -0.1548,-0.93985 -0.154799,-0.44228 -0.497568,-0.74082 -0.331713,-0.29854 -0.663425,-0.43123 -0.320655,-0.13268 -0.840338,-0.19903 -0.508626,-0.0663 -1.083594,-0.0663 l -1.570105,0.0221 q -1.017251,0 -1.293678,-0.0111 -0.34277,7.43036 -0.420169,13.66655 l -1.083594,-0.0221 q -0.243256,0 -1.072537,0.0221 z" />
    <path
       id="path3181"
       style="font-style:normal;font-variant:normal;font-weight:normal;font-stretch:normal;font-size:22.6449px;font-family:'Eras Medium ITC';-inkscape-font-specification:'Eras Medium ITC, Normal';font-variant-ligatures:normal;font-variant-caps:normal;font-variant-numeric:normal;font-variant-east-asian:normal;fill:#ffee00;fill-opacity:1;stroke-width:0.566123"
       d="m 38.92863,218.13427 q -0.132685,0.60814 -0.26537,1.54799 -1.061479,0.26537 -1.846532,0.35383 -0.773995,0.0995 -1.547991,0.0995 -1.382135,0 -2.487843,-0.33171 -1.094651,-0.33171 -1.879704,-1.14993 -0.785052,-0.82928 -1.127822,-1.89076 -0.342769,-1.06148 -0.342769,-2.24459 0,-1.64751 0.630253,-3.05176 0.630254,-1.4153 1.890761,-2.22247 1.271564,-0.80717 3.21761,-0.80717 1.006195,0 1.923932,0.29855 0.917738,0.28748 1.525877,0.88456 0.60814,0.59708 0.939852,1.48165 0.331712,0.87351 0.331712,1.91288 0,0.39805 -0.06634,0.77399 h -8.436552 q -0.04423,0.60814 -0.04423,0.9288 0,1.16099 0.486511,2.14507 0.486512,0.97302 1.437421,1.48165 0.950908,0.49757 2.189301,0.49757 1.426364,0 3.471923,-0.70766 z m -7.452471,-5.26317 h 6.590019 q -0.01106,-0.69659 -0.08846,-1.08359 -0.0774,-0.387 -0.287485,-0.79611 -0.210084,-0.42017 -0.574968,-0.71871 -0.353826,-0.3096 -0.862452,-0.4644 -0.497568,-0.16585 -1.083594,-0.16585 -0.630253,0 -1.205221,0.17691 -0.563911,0.17691 -1.006195,0.48651 -0.431226,0.3096 -0.740824,0.72977 -0.298541,0.40911 -0.45334,0.79611 -0.143742,0.387 -0.287484,1.03936 z" />
    <path
       id="path3183"
       style="font-style:normal;font-variant:normal;font-weight:normal;font-stretch:normal;font-size:22.6449px;font-family:'Eras Medium ITC';-inkscape-font-specification:'Eras Medium ITC, Normal';font-variant-ligatures:normal;font-variant-caps:normal;font-variant-numeric:normal;font-variant-east-asian:normal;fill:#ffee00;fill-opacity:1;stroke-width:0.566123"
       d="m 41.272731,219.68226 -0.06634,-0.80716 q 0,-0.13269 -0.08846,-0.84034 1.70279,0.74082 3.140211,0.74082 0.751881,0 1.271564,-0.19902 0.519683,-0.19903 0.773996,-0.58603 0.265369,-0.39805 0.265369,-0.81822 0,-0.2322 -0.0774,-0.4644 -0.06634,-0.2322 -0.210085,-0.44228 -0.143742,-0.22114 -0.431226,-0.47546 -0.276427,-0.26537 -1.17205,-0.98408 -0.884567,-0.71871 -1.348964,-1.11676 -0.45334,-0.40911 -0.785053,-0.82928 -0.320655,-0.43123 -0.475454,-0.86246 -0.154799,-0.43122 -0.154799,-0.87351 0,-0.70765 0.442283,-1.37107 0.45334,-0.66343 1.293678,-0.98408 0.851396,-0.33172 1.990275,-0.33172 1.271564,0 2.797441,0.29855 0.04423,0.86245 0.110571,1.58116 -1.238393,-0.50863 -2.443615,-0.50863 -0.652368,0 -1.216279,0.17692 -0.552854,0.16585 -0.818224,0.50862 -0.254312,0.34277 -0.254312,0.75188 0,0.26537 0.08846,0.50863 0.08846,0.24325 0.309598,0.53074 0.232199,0.27643 0.552854,0.55285 0.320656,0.27643 1.271565,1.03937 0.961966,0.76294 1.315792,1.12782 0.353827,0.36488 0.60814,0.75188 0.254312,0.387 0.364883,0.774 0.121628,0.37594 0.121628,0.77399 0,0.774 -0.464397,1.43742 -0.453341,0.66343 -1.360021,1.02831 -0.906681,0.36488 -2.034503,0.36488 -0.475454,0 -1.116765,-0.0663 -0.641311,-0.0553 -1.094651,-0.14374 -0.442283,-0.0774 -1.105708,-0.24326 z" />
  </g>
</svg>
