<?xml version="1.0" encoding="UTF-8" standalone="no"?>
<svg
   xmlns:dc="http://purl.org/dc/elements/1.1/"
   xmlns:cc="http://creativecommons.org/ns#"
   xmlns:rdf="http://www.w3.org/1999/02/22-rdf-syntax-ns#"
   xmlns:svg="http://www.w3.org/2000/svg"
   xmlns="http://www.w3.org/2000/svg"
   xmlns:sodipodi="http://sodipodi.sourceforge.net/DTD/sodipodi-0.dtd"
   xmlns:inkscape="http://www.inkscape.org/namespaces/inkscape"
   inkscape:version="1.0 (4035a4fb49, 2020-05-01)"
   sodipodi:docname="MS20.svg"
   id="svg1479"
   viewBox="0 0 20.32 128.5"
   version="1.1"
   height="128.5mm"
   width="20.32mm">
  <metadata
     id="metadata1485">
    <rdf:RDF>
      <cc:Work
         rdf:about="">
        <dc:format>image/svg+xml</dc:format>
        <dc:type
           rdf:resource="http://purl.org/dc/dcmitype/StillImage" />
        <dc:title></dc:title>
      </cc:Work>
    </rdf:RDF>
  </metadata>
  <defs
     id="defs1483" />
  <sodipodi:namedview
     inkscape:document-units="mm"
     inkscape:current-layer="svg1479"
     inkscape:window-maximized="0"
     inkscape:window-y="0"
     inkscape:window-x="619"
     inkscape:cy="274.25503"
     inkscape:cx="18.283049"
     inkscape:zoom="2.4168653"
     showgrid="false"
     id="namedview1481"
     inkscape:window-height="991"
     inkscape:window-width="1291"
     inkscape:pageshadow="2"
     inkscape:pageopacity="0"
     guidetolerance="10"
     gridtolerance="10"
     objecttolerance="10"
     borderopacity="1"
     bordercolor="#666666"
     pagecolor="#ffffff" />
  <rect
     id="rect1291"
     style="paint-order:markers stroke fill"
     fill="#979799"
     height="128.5"
     width="20.32"
     y="9.155e-8" />
  <g
     id="g1459"
     stroke-width="3.615"
     transform="translate(-34.08 2.8)">
    <rect
       id="rect1293"
       style="paint-order:markers stroke fill"
       fill="#90a2a8"
       height="128.5"
       width=".2448"
       y="-125.7"
       x="34.57"
       transform="scale(1,-1)" />
    <rect
       id="rect1295"
       style="paint-order:markers stroke fill"
       fill="#919699"
       height="128.5"
       width=".2448"
       y="-125.7"
       x="34.82"
       transform="scale(1,-1)" />
    <rect
       id="rect1297"
       style="paint-order:markers stroke fill"
       fill="#959698"
       height="128.5"
       width=".2448"
       y="-125.7"
       x="35.06"
       transform="scale(1,-1)" />
    <rect
       id="rect1299"
       style="paint-order:markers stroke fill"
       fill="#99989a"
       height="128.5"
       width=".2448"
       y="-125.7"
       x="35.31"
       transform="scale(1,-1)" />
    <rect
       id="rect1301"
       style="paint-order:markers stroke fill"
       fill="#95989a"
       height="128.5"
       width=".2448"
       y="-125.7"
       x="35.8"
       transform="scale(1,-1)" />
    <rect
       id="rect1303"
       style="paint-order:markers stroke fill"
       fill="#929596"
       height="128.5"
       width=".2448"
       y="-125.7"
       x="36.29"
       transform="scale(1,-1)" />
    <rect
       id="rect1305"
       style="paint-order:markers stroke fill"
       fill="#9c9c9d"
       height="128.5"
       width=".2448"
       y="-125.7"
       x="36.77"
       transform="scale(1,-1)" />
    <rect
       id="rect1307"
       style="paint-order:markers stroke fill"
       fill="#a4a2a4"
       height="128.5"
       width=".2448"
       y="-125.7"
       x="37.26"
       transform="scale(1,-1)" />
    <rect
       id="rect1309"
       style="paint-order:markers stroke fill"
       fill="#9fa1a3"
       height="128.5"
       width=".2448"
       y="-125.7"
       x="37.75"
       transform="scale(1,-1)" />
    <rect
       id="rect1311"
       style="paint-order:markers stroke fill"
       fill="#9a9c9e"
       height="128.5"
       width=".2448"
       y="-125.7"
       x="38.24"
       transform="scale(1,-1)" />
    <rect
       id="rect1313"
       style="paint-order:markers stroke fill"
       fill="#929294"
       height="128.5"
       width=".2448"
       y="-125.7"
       x="38.73"
       transform="scale(1,-1)" />
    <rect
       id="rect1315"
       style="paint-order:markers stroke fill"
       fill="#9b9c9e"
       height="128.5"
       width=".2448"
       y="-125.7"
       x="39.22"
       transform="scale(1,-1)" />
    <rect
       id="rect1317"
       style="paint-order:markers stroke fill"
       fill="#9c9c9d"
       height="128.5"
       width=".2448"
       y="-125.7"
       x="39.71"
       transform="scale(1,-1)" />
    <rect
       id="rect1319"
       style="paint-order:markers stroke fill"
       fill="#a0a1a3"
       height="128.5"
       width=".2448"
       y="-125.7"
       x="40.2"
       transform="scale(1,-1)" />
    <rect
       id="rect1321"
       style="paint-order:markers stroke fill"
       fill="#a2a1a3"
       height="128.5"
       width=".2448"
       y="-125.7"
       x="40.69"
       transform="scale(1,-1)" />
    <rect
       id="rect1323"
       style="paint-order:markers stroke fill"
       fill="#a2a0a1"
       height="128.5"
       width=".2448"
       y="-125.7"
       x="41.18"
       transform="scale(1,-1)" />
    <rect
       id="rect1325"
       style="paint-order:markers stroke fill"
       fill="#8f9395"
       height="128.5"
       width=".2448"
       y="-125.7"
       x="41.67"
       transform="scale(1,-1)" />
    <rect
       id="rect1327"
       style="paint-order:markers stroke fill"
       fill="#93999b"
       height="128.5"
       width=".2448"
       y="-125.7"
       x="42.16"
       transform="scale(1,-1)" />
    <rect
       id="rect1329"
       style="paint-order:markers stroke fill"
       fill="#a6a1a1"
       height="128.5"
       width=".2448"
       y="-125.7"
       x="42.65"
       transform="scale(1,-1)" />
    <rect
       id="rect1331"
       style="paint-order:markers stroke fill"
       fill="#9b9a9b"
       height="128.5"
       width=".2448"
       y="-125.7"
       x="43.14"
       transform="scale(1,-1)" />
    <rect
       id="rect1333"
       style="paint-order:markers stroke fill"
       fill="#a4a1a2"
       height="128.5"
       width=".2448"
       y="-125.7"
       x="43.63"
       transform="scale(1,-1)" />
    <rect
       id="rect1335"
       style="paint-order:markers stroke fill"
       fill="#969a9c"
       height="128.5"
       width=".2448"
       y="-125.7"
       x="43.87"
       transform="scale(1,-1)" />
    <rect
       id="rect1337"
       style="paint-order:markers stroke fill"
       fill="#8d8d8f"
       height="128.5"
       width=".2448"
       y="-125.7"
       x="44.36"
       transform="scale(1,-1)" />
    <rect
       id="rect1339"
       style="paint-order:markers stroke fill"
       fill="#939395"
       height="128.5"
       width=".2448"
       y="-125.7"
       x="44.85"
       transform="scale(1,-1)" />
    <rect
       id="rect1341"
       style="paint-order:markers stroke fill"
       fill="#909092"
       height="128.5"
       width=".2448"
       y="-125.7"
       x="45.34"
       transform="scale(1,-1)" />
    <rect
       id="rect1343"
       style="paint-order:markers stroke fill"
       fill="#9b9a9c"
       height="128.5"
       width=".2448"
       y="-125.7"
       x="45.59"
       transform="scale(1,-1)" />
    <rect
       id="rect1345"
       style="paint-order:markers stroke fill"
       fill="#959395"
       height="128.5"
       width=".2448"
       y="-125.7"
       x="45.83"
       transform="scale(1,-1)" />
    <rect
       id="rect1347"
       style="paint-order:markers stroke fill"
       fill="#8e8f90"
       height="128.5"
       width=".2448"
       y="-125.7"
       x="46.08"
       transform="scale(1,-1)" />
    <rect
       id="rect1349"
       style="paint-order:markers stroke fill"
       fill="#909092"
       height="128.5"
       width=".2448"
       y="-125.7"
       x="46.32"
       transform="scale(1,-1)" />
    <rect
       id="rect1351"
       style="paint-order:markers stroke fill"
       fill="#9b9b9c"
       height="128.5"
       width=".2448"
       y="-125.7"
       x="46.57"
       transform="scale(1,-1)" />
    <rect
       id="rect1353"
       style="paint-order:markers stroke fill"
       fill="#a29fa0"
       height="128.5"
       width=".2448"
       y="-125.7"
       x="46.81"
       transform="scale(1,-1)" />
    <rect
       id="rect1355"
       style="paint-order:markers stroke fill"
       fill="#96999b"
       height="128.5"
       width=".2448"
       y="-125.7"
       x="47.06"
       transform="scale(1,-1)" />
    <rect
       id="rect1357"
       style="paint-order:markers stroke fill"
       fill="#8e9395"
       height="128.5"
       width=".2448"
       y="-125.7"
       x="47.3"
       transform="scale(1,-1)" />
    <rect
       id="rect1359"
       style="paint-order:markers stroke fill"
       fill="#a5a1a1"
       height="128.5"
       width=".2448"
       y="-125.7"
       x="47.55"
       transform="scale(1,-1)" />
    <rect
       id="rect1361"
       style="paint-order:markers stroke fill"
       fill="#9b999b"
       height="128.5"
       width=".2448"
       y="-125.7"
       x="47.79"
       transform="scale(1,-1)" />
    <rect
       id="rect1363"
       style="paint-order:markers stroke fill"
       fill="#8d9294"
       height="128.5"
       width=".2448"
       y="-125.7"
       x="48.04"
       transform="scale(1,-1)" />
    <rect
       id="rect1365"
       style="paint-order:markers stroke fill"
       fill="#a5a3a4"
       height="128.5"
       width=".2448"
       y="-125.7"
       x="48.28"
       transform="scale(1,-1)" />
    <rect
       id="rect1367"
       style="paint-order:markers stroke fill"
       fill="#a1a2a4"
       height="128.5"
       width=".2448"
       y="-125.7"
       x="48.53"
       transform="scale(1,-1)" />
    <rect
       id="rect1369"
       style="paint-order:markers stroke fill"
       fill="#95989b"
       height="128.5"
       width=".2448"
       y="-125.7"
       x="48.77"
       transform="scale(1,-1)" />
    <rect
       id="rect1371"
       style="paint-order:markers stroke fill"
       fill="#969798"
       height="128.5"
       width=".2448"
       y="-125.7"
       x="49.01"
       transform="scale(1,-1)" />
    <rect
       id="rect1373"
       style="paint-order:markers stroke fill"
       fill="#929395"
       height="128.5"
       width=".2448"
       y="-125.7"
       x="49.26"
       transform="scale(1,-1)" />
    <rect
       id="rect1375"
       style="paint-order:markers stroke fill"
       fill="#999b9c"
       height="128.5"
       width=".2448"
       y="-125.7"
       x="49.5"
       transform="scale(1,-1)" />
    <rect
       id="rect1377"
       style="paint-order:markers stroke fill"
       fill="#a2a2a3"
       height="128.5"
       width=".2448"
       y="-125.7"
       x="49.75"
       transform="scale(1,-1)" />
    <rect
       id="rect1379"
       style="paint-order:markers stroke fill"
       fill="#a0a3a5"
       height="128.5"
       width=".2448"
       y="-125.7"
       x="49.99"
       transform="scale(1,-1)" />
    <rect
       id="rect1381"
       style="paint-order:markers stroke fill"
       fill="#919395"
       height="128.5"
       width=".2448"
       y="-125.7"
       x="50.24"
       transform="scale(1,-1)" />
    <rect
       id="rect1383"
       style="paint-order:markers stroke fill"
       fill="#a19d9e"
       height="128.5"
       width=".2448"
       y="-125.7"
       x="50.48"
       transform="scale(1,-1)" />
    <rect
       id="rect1385"
       style="paint-order:markers stroke fill"
       fill="#8d8f91"
       height="128.5"
       width=".2448"
       y="-125.7"
       x="50.73"
       transform="scale(1,-1)" />
    <rect
       id="rect1387"
       style="paint-order:markers stroke fill"
       fill="#8e8f90"
       height="128.5"
       width=".2448"
       y="-125.7"
       x="50.97"
       transform="scale(1,-1)" />
    <rect
       id="rect1389"
       style="paint-order:markers stroke fill"
       fill="#929597"
       height="128.5"
       width=".2448"
       y="-125.7"
       x="51.22"
       transform="scale(1,-1)" />
    <rect
       id="rect1391"
       style="paint-order:markers stroke fill"
       fill="#9b9a9c"
       height="128.5"
       width=".2448"
       y="-125.7"
       x="51.46"
       transform="scale(1,-1)" />
    <rect
       id="rect1393"
       style="paint-order:markers stroke fill"
       fill="#999698"
       height="128.5"
       width=".2448"
       y="-125.7"
       x="51.71"
       transform="scale(1,-1)" />
    <rect
       id="rect1395"
       style="paint-order:markers stroke fill"
       fill="#8f9293"
       height="128.5"
       width=".2448"
       y="-125.7"
       x="51.95"
       transform="scale(1,-1)" />
    <rect
       id="rect1397"
       style="paint-order:markers stroke fill"
       fill="#8f9293"
       height="128.5"
       width=".2448"
       y="-125.7"
       x="52.2"
       transform="scale(1,-1)" />
    <rect
       id="rect1399"
       style="paint-order:markers stroke fill"
       fill="#a09c9c"
       height="128.5"
       width=".2448"
       y="-125.7"
       x="52.44"
       transform="scale(1,-1)" />
    <rect
       id="rect1401"
       style="paint-order:markers stroke fill"
       fill="#919496"
       height="128.5"
       width=".2448"
       y="-125.7"
       x="52.69"
       transform="scale(1,-1)" />
    <rect
       id="rect1403"
       style="paint-order:markers stroke fill"
       fill="#919496"
       height="128.5"
       width=".2448"
       y="-125.7"
       x="52.93"
       transform="scale(1,-1)" />
    <rect
       id="rect1405"
       style="paint-order:markers stroke fill"
       fill="#8d9092"
       height="128.5"
       width=".2448"
       y="-125.7"
       x="53.18"
       transform="scale(1,-1)" />
    <rect
       id="rect1407"
       style="paint-order:markers stroke fill"
       fill="#9b9a9c"
       height="128.5"
       width=".2448"
       y="-125.7"
       x="53.42"
       transform="scale(1,-1)" />
    <rect
       id="rect1409"
       style="paint-order:markers stroke fill"
       fill="#9d9d9f"
       height="128.5"
       width=".2448"
       y="-125.7"
       x="53.67"
       transform="scale(1,-1)" />
    <rect
       id="rect1411"
       style="paint-order:markers stroke fill"
       fill="#949799"
       height="128.5"
       width=".2448"
       y="-125.7"
       x="53.91"
       transform="scale(1,-1)" />
    <rect
       id="rect1413"
       style="paint-order:markers stroke fill"
       fill="#999d9f"
       height="128.5"
       width=".2448"
       y="-125.7"
       x="54.16"
       transform="scale(1,-1)" />
    <rect
       id="rect1415"
       style="paint-order:markers stroke fill"
       fill="#939395"
       height="128.5"
       width=".2448"
       y="-125.7"
       x="35.55"
       transform="scale(1,-1)" />
    <rect
       id="rect1417"
       style="paint-order:markers stroke fill"
       fill="#93999b"
       height="128.5"
       width=".2448"
       y="-125.7"
       x="36.04"
       transform="scale(1,-1)" />
    <rect
       id="rect1419"
       style="paint-order:markers stroke fill"
       fill="#a6a1a1"
       height="128.5"
       width=".2448"
       y="-125.7"
       x="36.53"
       transform="scale(1,-1)" />
    <rect
       id="rect1421"
       style="paint-order:markers stroke fill"
       fill="#9b9a9b"
       height="128.5"
       width=".2448"
       y="-125.7"
       x="37.02"
       transform="scale(1,-1)" />
    <rect
       id="rect1423"
       style="paint-order:markers stroke fill"
       fill="#a4a1a2"
       height="128.5"
       width=".2448"
       y="-125.7"
       x="37.51"
       transform="scale(1,-1)" />
    <rect
       id="rect1425"
       style="paint-order:markers stroke fill"
       fill="#969a9c"
       height="128.5"
       width=".2448"
       y="-125.7"
       x="38"
       transform="scale(1,-1)" />
    <rect
       id="rect1427"
       style="paint-order:markers stroke fill"
       fill="#8d8d8f"
       height="128.5"
       width=".2448"
       y="-125.7"
       x="38.49"
       transform="scale(1,-1)" />
    <rect
       id="rect1429"
       style="paint-order:markers stroke fill"
       fill="#939395"
       height="128.5"
       width=".2448"
       y="-125.7"
       x="38.98"
       transform="scale(1,-1)" />
    <rect
       id="rect1431"
       style="paint-order:markers stroke fill"
       fill="#909092"
       height="128.5"
       width=".2448"
       y="-125.7"
       x="39.47"
       transform="scale(1,-1)" />
    <rect
       id="rect1433"
       style="paint-order:markers stroke fill"
       fill="#9b9a9c"
       height="128.5"
       width=".2448"
       y="-125.7"
       x="39.96"
       transform="scale(1,-1)" />
    <rect
       id="rect1435"
       style="paint-order:markers stroke fill"
       fill="#959395"
       height="128.5"
       width=".2448"
       y="-125.7"
       x="40.45"
       transform="scale(1,-1)" />
    <rect
       id="rect1437"
       style="paint-order:markers stroke fill"
       fill="#8e8f90"
       height="128.5"
       width=".2448"
       y="-125.7"
       x="40.94"
       transform="scale(1,-1)" />
    <rect
       id="rect1439"
       style="paint-order:markers stroke fill"
       fill="#909092"
       height="128.5"
       width=".2448"
       y="-125.7"
       x="41.43"
       transform="scale(1,-1)" />
    <rect
       id="rect1441"
       style="paint-order:markers stroke fill"
       fill="#9b9b9c"
       height="128.5"
       width=".2448"
       y="-125.7"
       x="41.92"
       transform="scale(1,-1)" />
    <rect
       id="rect1443"
       style="paint-order:markers stroke fill"
       fill="#a29fa0"
       height="128.5"
       width=".2448"
       y="-125.7"
       x="42.41"
       transform="scale(1,-1)" />
    <rect
       id="rect1445"
       style="paint-order:markers stroke fill"
       fill="#96999b"
       height="128.5"
       width=".2448"
       y="-125.7"
       x="42.89"
       transform="scale(1,-1)" />
    <rect
       id="rect1447"
       style="paint-order:markers stroke fill"
       fill="#8e9395"
       height="128.5"
       width=".2448"
       y="-125.7"
       x="43.38"
       transform="scale(1,-1)" />
    <rect
       id="rect1449"
       style="paint-order:markers stroke fill"
       fill="#a5a1a1"
       height="128.5"
       width=".2448"
       y="-125.7"
       x="44.12"
       transform="scale(1,-1)" />
    <rect
       id="rect1451"
       style="paint-order:markers stroke fill"
       fill="#9b999b"
       height="128.5"
       width=".2448"
       y="-125.7"
       x="44.61"
       transform="scale(1,-1)" />
    <rect
       id="rect1453"
       style="paint-order:markers stroke fill"
       fill="#8d9294"
       height="128.5"
       width=".2448"
       y="-125.7"
       x="45.1"
       transform="scale(1,-1)" />
    <rect
       id="rect1455"
       style="paint-order:markers stroke fill"
       fill="#a5a3a4"
       height="128.5"
       width=".2448"
       y="-125.7"
       x="34.08"
       transform="scale(1,-1)" />
    <rect
       id="rect1457"
       style="paint-order:markers stroke fill"
       fill="#a1a2a4"
       height="128.5"
       width=".2448"
       y="-125.7"
       x="34.33"
       transform="scale(1,-1)" />
  </g>
  <rect
     id="rect1461"
     style="paint-order:stroke fill markers"
     stroke-width=".5757"
     fill="#28727b"
     ry="0"
     rx="0"
     height="106.5"
     width="20.32"
     y="11.01" />
  <path
     id="path1463"
     style="paint-order:markers fill stroke"
     fill="#ccc"
     d="m10.1 118.4a2.15 2.15 0 0 0-2.149 2.149 2.15 2.15 0 0 0 2.149 2.15 2.15 2.15 0 0 0 2.15-2.15 2.15 2.15 0 0 0-2.15-2.149zm4e-3 0.1969 0.3416 1.068 0.9508-0.5938-0.4248 1.038 1.111 0.1561-0.9922 0.5219 0.7498 0.8335-1.096-0.2382 0.0388 1.12-0.6863-0.8862-0.6904 0.8832 0.0439-1.12-1.097 0.2331 0.754-0.8299-0.9896-0.5266 1.111-0.1509-0.4201-1.04 0.9483 0.5984zm0.3344 1.067-0.3406 0.2739-0.3416-0.2723-0.0847 0.4289-0.4372 0.0109 0.2108 0.3829-0.3276 0.2894 0.4072 0.1581-0.0646 0.432 0.4139-0.1406 0.2279 0.3726 0.2264-0.3736 0.4144 0.139-0.0672-0.432 0.4067-0.1602-0.3287-0.2878 0.2088-0.384-0.4367-9e-3z" />
  <path
     id="path1465"
     style="paint-order:markers fill stroke"
     fill="#333"
     d="m10.1 118.5a2.15 2.15 0 0 0-2.149 2.149 2.15 2.15 0 0 0 2.149 2.15 2.15 2.15 0 0 0 2.15-2.15 2.15 2.15 0 0 0-2.15-2.149zm4e-3 0.1969 0.3416 1.068 0.9508-0.5938-0.4248 1.038 1.111 0.1561-0.9922 0.5219 0.7498 0.8335-1.096-0.2382 0.0388 1.12-0.6863-0.8862-0.6904 0.8832 0.0439-1.12-1.097 0.2331 0.754-0.8299-0.9896-0.5266 1.111-0.1509-0.4201-1.04 0.9483 0.5984zm0.3344 1.067-0.3406 0.2739-0.3416-0.2723-0.0847 0.4289-0.4372 0.0109 0.2108 0.3829-0.3276 0.2894 0.4072 0.1581-0.0646 0.432 0.4139-0.1406 0.2279 0.3726 0.2264-0.3736 0.4144 0.139-0.0672-0.432 0.4067-0.1602-0.3287-0.2878 0.2088-0.384-0.4367-9e-3z" />
  <g
     style="font-weight:800;font-size:5.514px;line-height:1.25;font-family:Urbanist;font-variant-ligatures:normal;font-variant-caps:normal;font-variant-numeric:normal;font-feature-settings:normal;letter-spacing:0px;word-spacing:0px;fill:#cccccc;stroke-width:0.1378"
     id="text1469"
     aria-label="MS-20">
    <path
       id="path2048"
       style="font-weight:800;font-size:5.514px;font-family:Urbanist;font-variant-ligatures:normal;font-variant-caps:normal;font-variant-numeric:normal;font-feature-settings:normal;text-align:center;text-anchor:middle;fill:#cccccc;stroke-width:0.1378"
       d="m 2.4711927,5.6101145 h 0.545886 l 0.945651,2.486814 0.945651,-2.486814 h 0.545886 l 0.749904,3.8597999 H 5.5287057 L 5.0627727,7.0602965 4.1888037,9.3734194 H 3.7366557 L 2.8626867,7.0602965 2.3967537,9.4699144 h -0.675465 z" />
    <path
       id="path2050"
       style="font-weight:800;font-size:5.514px;font-family:Urbanist;font-variant-ligatures:normal;font-variant-caps:normal;font-variant-numeric:normal;font-feature-settings:normal;text-align:center;text-anchor:middle;fill:#cccccc;stroke-width:0.1378"
       d="m 8.2586524,9.5415964 q -0.322569,0 -0.620325,-0.102009 -0.294999,-0.102009 -0.512802,-0.292242 -0.217803,-0.190233 -0.311541,-0.446634 l 0.623082,-0.231588 q 0.038598,0.113037 0.159906,0.206775 0.121308,0.093738 0.294999,0.148878 0.173691,0.05514 0.366681,0.05514 0.201261,0 0.380466,-0.063411 0.179205,-0.063411 0.286728,-0.179205 0.107523,-0.115794 0.107523,-0.261915 0,-0.3777089 -0.774717,-0.5017739 -0.678222,-0.104766 -1.058688,-0.374952 -0.377709,-0.270186 -0.377709,-0.791259 0,-0.339111 0.195747,-0.603783 0.198504,-0.267429 0.526587,-0.41355 0.33084,-0.146121 0.714063,-0.146121 0.319812,0 0.614811,0.102009 0.294999,0.102009 0.515559,0.294999 0.22056,0.190233 0.314298,0.449391 l -0.623082,0.223317 q -0.038598,-0.113037 -0.159906,-0.204018 -0.121308,-0.093738 -0.294999,-0.146121 -0.173691,-0.05514 -0.366681,-0.05514 -0.198504,0 -0.377709,0.063411 -0.179205,0.063411 -0.289485,0.179205 -0.107523,0.115794 -0.107523,0.256401 0,0.176448 0.096495,0.272943 0.099252,0.096495 0.250887,0.140607 0.154392,0.044112 0.427335,0.088224 0.408036,0.063411 0.730605,0.209532 0.322569,0.146121 0.512802,0.38598 0.19299,0.239859 0.19299,0.5706989 0,0.339111 -0.195747,0.60654 -0.195747,0.264672 -0.526587,0.41355 -0.328083,0.146121 -0.714063,0.146121 z" />
    <path
       id="path2052"
       style="font-weight:800;font-size:5.514px;font-family:Urbanist;font-variant-ligatures:normal;font-variant-caps:normal;font-variant-numeric:normal;font-feature-settings:normal;text-align:center;text-anchor:middle;fill:#cccccc;stroke-width:0.1378"
       d="m 12.069085,7.4848745 v 0.66168 h -1.76448 v -0.66168 z" />
    <path
       id="path2054"
       style="font-weight:800;font-size:5.514px;font-family:Urbanist;font-variant-ligatures:normal;font-variant-caps:normal;font-variant-numeric:normal;font-feature-settings:normal;text-align:center;text-anchor:middle;fill:#cccccc;stroke-width:0.1378"
       d="m 12.617469,8.8799164 q 0.391494,-0.297756 0.824343,-0.6782219 0.435606,-0.380466 0.760932,-0.763689 0.325326,-0.383223 0.325326,-0.620325 0,-0.168177 -0.08271,-0.308784 -0.08271,-0.140607 -0.223317,-0.223317 -0.140607,-0.085467 -0.306027,-0.085467 -0.16542,0 -0.308784,0.085467 -0.140607,0.08271 -0.226074,0.226074 -0.08271,0.140607 -0.08271,0.306027 h -0.66168 q 0,-0.352896 0.173691,-0.645138 0.173691,-0.294999 0.46869,-0.463176 0.294999,-0.170934 0.636867,-0.170934 0.344625,0 0.636867,0.173691 0.292242,0.170934 0.463176,0.465933 0.173691,0.292242 0.173691,0.639624 0,0.297756 -0.176448,0.614811 -0.173691,0.317055 -0.457662,0.63411 -0.283971,0.3170549 -0.727848,0.7416329 h 1.384014 v 0.66168 h -2.594337 z" />
    <path
       id="path2056"
       style="font-weight:800;font-size:5.514px;font-family:Urbanist;font-variant-ligatures:normal;font-variant-caps:normal;font-variant-numeric:normal;font-feature-settings:normal;text-align:center;text-anchor:middle;fill:#cccccc;stroke-width:0.1378"
       d="m 17.069594,9.5415964 q -0.438363,0 -0.780231,-0.267429 -0.341868,-0.267429 -0.532101,-0.725091 -0.190233,-0.4576619 -0.190233,-1.0090619 0,-0.5514 0.190233,-1.009062 0.190233,-0.457662 0.532101,-0.725091 0.341868,-0.267429 0.780231,-0.267429 0.438363,0 0.777474,0.267429 0.341868,0.267429 0.529344,0.725091 0.190233,0.457662 0.190233,1.009062 0,0.5514 -0.190233,1.0090619 -0.187476,0.457662 -0.529344,0.725091 -0.339111,0.267429 -0.777474,0.267429 z m 0,-0.66168 q 0.286728,0 0.482475,-0.181962 0.198504,-0.184719 0.294999,-0.4879889 0.09925,-0.306027 0.09925,-0.669951 0,-0.374952 -0.102009,-0.678222 -0.102009,-0.306027 -0.300513,-0.482475 -0.195747,-0.179205 -0.474204,-0.179205 -0.286728,0 -0.487989,0.184719 -0.198504,0.184719 -0.297756,0.490746 -0.0965,0.30327 -0.0965,0.664437 0,0.361167 0.09925,0.667194 0.102009,0.3060269 0.300513,0.4907459 0.198504,0.181962 0.482475,0.181962 z" />
  </g>
  <g
     style="font-weight:800;font-size:5.514px;line-height:1.25;font-family:Urbanist;font-variant-ligatures:normal;font-variant-caps:normal;font-variant-numeric:normal;font-feature-settings:normal;text-align:center;letter-spacing:0px;word-spacing:0px;text-anchor:middle;fill:#333333;stroke-width:0.1378"
     id="text1473"
     aria-label="MS-20">
    <path
       id="path2059"
       style="font-weight:800;font-size:5.514px;font-family:Urbanist;font-variant-ligatures:normal;font-variant-caps:normal;font-variant-numeric:normal;font-feature-settings:normal;text-align:center;text-anchor:middle;fill:#333333;stroke-width:0.1378"
       d="m 2.4711927,5.685284 h 0.545886 l 0.945651,2.486814 0.945651,-2.486814 h 0.545886 l 0.749904,3.8598 H 5.5287057 L 5.0627727,7.135466 4.1888037,9.448589 H 3.7366557 L 2.8626867,7.135466 2.3967537,9.545084 h -0.675465 z" />
    <path
       id="path2061"
       style="font-weight:800;font-size:5.514px;font-family:Urbanist;font-variant-ligatures:normal;font-variant-caps:normal;font-variant-numeric:normal;font-feature-settings:normal;text-align:center;text-anchor:middle;fill:#333333;stroke-width:0.1378"
       d="m 8.2586524,9.616766 q -0.322569,0 -0.620325,-0.102009 Q 7.3433284,9.412748 7.1255254,9.222515 6.9077224,9.032282 6.8139844,8.775881 l 0.623082,-0.231588 q 0.038598,0.113037 0.159906,0.206775 0.121308,0.093738 0.294999,0.148878 0.173691,0.05514 0.366681,0.05514 0.201261,0 0.380466,-0.063411 0.179205,-0.063411 0.286728,-0.179205 0.107523,-0.115794 0.107523,-0.261915 0,-0.377709 -0.774717,-0.501774 Q 7.5804304,7.844015 7.1999644,7.573829 6.8222554,7.303643 6.8222554,6.78257 q 0,-0.339111 0.195747,-0.603783 0.198504,-0.267429 0.526587,-0.41355 0.33084,-0.146121 0.714063,-0.146121 0.319812,0 0.614811,0.102009 0.294999,0.102009 0.515559,0.294999 0.22056,0.190233 0.314298,0.449391 L 9.0802384,6.688832 Q 9.0416404,6.575795 8.9203324,6.484814 8.7990244,6.391076 8.6253334,6.338693 q -0.173691,-0.05514 -0.366681,-0.05514 -0.198504,0 -0.377709,0.063411 -0.179205,0.063411 -0.289485,0.179205 -0.107523,0.115794 -0.107523,0.256401 0,0.176448 0.096495,0.272943 0.099252,0.096495 0.250887,0.140607 0.154392,0.044112 0.427335,0.088224 0.408036,0.063411 0.730605,0.209532 0.322569,0.146121 0.512802,0.38598 0.19299,0.239859 0.19299,0.570699 0,0.339111 -0.195747,0.60654 -0.195747,0.264672 -0.526587,0.41355 -0.328083,0.146121 -0.714063,0.146121 z" />
    <path
       id="path2063"
       style="font-weight:800;font-size:5.514px;font-family:Urbanist;font-variant-ligatures:normal;font-variant-caps:normal;font-variant-numeric:normal;font-feature-settings:normal;text-align:center;text-anchor:middle;fill:#333333;stroke-width:0.1378"
       d="m 12.069085,7.560044 v 0.66168 h -1.76448 v -0.66168 z" />
    <path
       id="path2065"
       style="font-weight:800;font-size:5.514px;font-family:Urbanist;font-variant-ligatures:normal;font-variant-caps:normal;font-variant-numeric:normal;font-feature-settings:normal;text-align:center;text-anchor:middle;fill:#333333;stroke-width:0.1378"
       d="M 12.617469,8.955086 Q 13.008963,8.65733 13.441812,8.276864 13.877418,7.896398 14.202744,7.513175 14.52807,7.129952 14.52807,6.89285 q 0,-0.168177 -0.08271,-0.308784 -0.08271,-0.140607 -0.223317,-0.223317 -0.140607,-0.085467 -0.306027,-0.085467 -0.16542,0 -0.308784,0.085467 -0.140607,0.08271 -0.226074,0.226074 -0.08271,0.140607 -0.08271,0.306027 h -0.66168 q 0,-0.352896 0.173691,-0.645138 0.173691,-0.294999 0.46869,-0.463176 0.294999,-0.170934 0.636867,-0.170934 0.344625,0 0.636867,0.173691 0.292242,0.170934 0.463176,0.465933 0.173691,0.292242 0.173691,0.639624 0,0.297756 -0.176448,0.614811 -0.173691,0.317055 -0.457662,0.63411 -0.283971,0.317055 -0.727848,0.741633 h 1.384014 v 0.66168 h -2.594337 z" />
    <path
       id="path2067"
       style="font-weight:800;font-size:5.514px;font-family:Urbanist;font-variant-ligatures:normal;font-variant-caps:normal;font-variant-numeric:normal;font-feature-settings:normal;text-align:center;text-anchor:middle;fill:#333333;stroke-width:0.1378"
       d="m 17.069594,9.616766 q -0.438363,0 -0.780231,-0.267429 -0.341868,-0.267429 -0.532101,-0.725091 -0.190233,-0.457662 -0.190233,-1.009062 0,-0.5514 0.190233,-1.009062 0.190233,-0.457662 0.532101,-0.725091 0.341868,-0.267429 0.780231,-0.267429 0.438363,0 0.777474,0.267429 0.341868,0.267429 0.529344,0.725091 0.190233,0.457662 0.190233,1.009062 0,0.5514 -0.190233,1.009062 -0.187476,0.457662 -0.529344,0.725091 -0.339111,0.267429 -0.777474,0.267429 z m 0,-0.66168 q 0.286728,0 0.482475,-0.181962 0.198504,-0.184719 0.294999,-0.487989 0.09925,-0.306027 0.09925,-0.669951 0,-0.374952 -0.102009,-0.678222 -0.102009,-0.306027 -0.300513,-0.482475 -0.195747,-0.179205 -0.474204,-0.179205 -0.286728,0 -0.487989,0.184719 -0.198504,0.184719 -0.297756,0.490746 -0.0965,0.30327 -0.0965,0.664437 0,0.361167 0.09925,0.667194 0.102009,0.306027 0.300513,0.490746 0.198504,0.181962 0.482475,0.181962 z" />
  </g>
  <g
     transform="translate(0,-5.000003)"
     style="font-weight:bold;font-size:3.447px;line-height:1.25;font-family:Urbanist;font-variant-ligatures:normal;font-variant-caps:normal;font-variant-numeric:normal;font-feature-settings:normal;letter-spacing:0px;word-spacing:0px;fill:#e6ebef;stroke-width:0.08618"
     id="text1477"
     aria-label="Frequency">
    <path
       id="path2088"
       style="font-weight:bold;font-size:3.447px;font-family:Urbanist;font-variant-ligatures:normal;font-variant-caps:normal;font-variant-numeric:normal;font-feature-settings:normal;text-align:center;text-anchor:middle;fill:#e6ebef;stroke-width:0.08618"
       d="m 2.2790004,52.500003 h 1.420164 v 0.3447 h -1.075464 v 0.603225 h 0.910008 v 0.3447 h -0.910008 v 1.120275 h -0.3447 z" />
    <path
       id="path2090"
       style="font-weight:bold;font-size:3.447px;font-family:Urbanist;font-variant-ligatures:normal;font-variant-caps:normal;font-variant-numeric:normal;font-feature-settings:normal;text-align:center;text-anchor:middle;fill:#e6ebef;stroke-width:0.08618"
       d="m 4.8458844,53.534103 q -0.094793,-0.0586 -0.2085435,-0.0586 -0.134433,0 -0.237843,0.07239 -0.10341,0.07066 -0.162009,0.194755 -0.056875,0.124092 -0.056875,0.272313 v 0.897944 h -0.346424 v -1.721777 h 0.3447 v 0.237843 q 0.093069,-0.136156 0.224055,-0.210267 0.130986,-0.07583 0.2878245,-0.07583 0.130986,0 0.2119905,0.02585 z" />
    <path
       id="path2092"
       style="font-weight:bold;font-size:3.447px;font-family:Urbanist;font-variant-ligatures:normal;font-variant-caps:normal;font-variant-numeric:normal;font-feature-settings:normal;text-align:center;text-anchor:middle;fill:#e6ebef;stroke-width:0.08618"
       d="m 5.8043659,54.957714 q -0.234396,0 -0.4325985,-0.122369 -0.196479,-0.122368 -0.313677,-0.330912 -0.1154745,-0.208543 -0.1154745,-0.455004 0,-0.24646 0.1154745,-0.455004 0.117198,-0.208543 0.313677,-0.330912 0.1982025,-0.122368 0.4325985,-0.122368 0.24129,0 0.4360455,0.124092 0.196479,0.124092 0.3085065,0.336082 0.1120275,0.210267 0.1120275,0.463622 0,0.05171 -0.00517,0.106857 h -1.34433 q 0.022406,0.125815 0.089622,0.225778 0.067216,0.09996 0.17235,0.158562 0.1051335,0.05688 0.230949,0.05688 0.134433,0.0017 0.244737,-0.06549 0.1120275,-0.06894 0.1844145,-0.191309 l 0.351594,0.081 q -0.070663,0.153391 -0.189585,0.272313 -0.117198,0.117198 -0.2705895,0.182691 -0.151668,0.06549 -0.320571,0.06549 z m 0.503262,-1.049612 Q 6.2903929,53.782287 6.2180059,53.677153 6.1473429,53.570296 6.0387619,53.50825 5.9301814,53.4462 5.8043659,53.4462 q -0.1258155,0 -0.234396,0.06205 -0.106857,0.06032 -0.179244,0.165456 -0.070663,0.105134 -0.089622,0.234396 z" />
    <path
       id="path2094"
       style="font-weight:bold;font-size:3.447px;font-family:Urbanist;font-variant-ligatures:normal;font-variant-caps:normal;font-variant-numeric:normal;font-feature-settings:normal;text-align:center;text-anchor:middle;fill:#e6ebef;stroke-width:0.08618"
       d="m 7.7754573,54.961161 q -0.2464605,0 -0.455004,-0.122369 -0.20682,-0.122368 -0.3291885,-0.330912 -0.1223685,-0.208543 -0.1223685,-0.456727 0,-0.246461 0.1223685,-0.453281 0.1223685,-0.208543 0.3291885,-0.330912 0.2085435,-0.122368 0.455004,-0.122368 0.179244,0 0.317124,0.08273 0.1396035,0.081 0.2292255,0.224055 v -0.261972 h 0.3447 v 2.58525 h -0.3447 V 54.65438 q -0.089622,0.14305 -0.2292255,0.225778 -0.13788,0.081 -0.317124,0.081 z m 0.00345,-1.483934 q -0.151668,0 -0.279207,0.07756 -0.127539,0.07756 -0.203373,0.210267 -0.074111,0.130986 -0.074111,0.286101 0,0.158562 0.075834,0.291271 0.075834,0.130986 0.203373,0.208544 0.127539,0.07583 0.2774835,0.07583 0.151668,0 0.2671425,-0.07583 0.117198,-0.07756 0.1809675,-0.208544 0.065493,-0.132709 0.065493,-0.291271 0,-0.158562 -0.065493,-0.289548 -0.06377,-0.130986 -0.1809675,-0.20682 -0.117198,-0.07756 -0.267142,-0.07756 z" />
    <path
       id="path2096"
       style="font-weight:bold;font-size:3.447px;font-family:Urbanist;font-variant-ligatures:normal;font-variant-caps:normal;font-variant-numeric:normal;font-feature-settings:normal;text-align:center;text-anchor:middle;fill:#e6ebef;stroke-width:0.08618"
       d="m 9.3830521,53.189403 v 0.89622 q 0,0.148221 0.062046,0.272313 0.062046,0.122368 0.1706265,0.194755 0.110304,0.07239 0.244737,0.07239 0.1327096,0 0.2361194,-0.07239 0.105134,-0.07239 0.162009,-0.194755 0.0586,-0.124092 0.0586,-0.272313 v -0.89622 h 0.3447 v 1.7235 h -0.3447 v -0.24129 q -0.09307,0.136156 -0.224055,0.21199 -0.1292624,0.07583 -0.2861009,0.07583 -0.224055,0 -0.3981285,-0.115474 -0.1740735,-0.117198 -0.2705895,-0.315401 -0.096516,-0.199926 -0.099963,-0.436045 v -0.903114 z" />
    <path
       id="path2098"
       style="font-weight:bold;font-size:3.447px;font-family:Urbanist;font-variant-ligatures:normal;font-variant-caps:normal;font-variant-numeric:normal;font-feature-settings:normal;text-align:center;text-anchor:middle;fill:#e6ebef;stroke-width:0.08618"
       d="m 11.816419,54.957714 q -0.234396,0 -0.432599,-0.122369 -0.196479,-0.122368 -0.313677,-0.330912 -0.115474,-0.208543 -0.115474,-0.455004 0,-0.24646 0.115474,-0.455004 0.117198,-0.208543 0.313677,-0.330912 0.198203,-0.122368 0.432599,-0.122368 0.24129,0 0.436045,0.124092 0.196479,0.124092 0.308507,0.336082 0.112027,0.210267 0.112027,0.463622 0,0.05171 -0.0052,0.106857 h -1.34433 q 0.0224,0.125815 0.08962,0.225778 0.06722,0.09996 0.17235,0.158562 0.105133,0.05688 0.230949,0.05688 0.134433,0.0017 0.244737,-0.06549 0.112027,-0.06894 0.184414,-0.191309 l 0.351594,0.081 q -0.07066,0.153391 -0.189585,0.272313 -0.117198,0.117198 -0.270589,0.182691 -0.151668,0.06549 -0.320571,0.06549 z m 0.503262,-1.049612 q -0.01723,-0.125815 -0.08962,-0.230949 -0.07066,-0.106857 -0.179244,-0.168903 -0.108581,-0.06205 -0.234396,-0.06205 -0.125816,0 -0.234396,0.06205 -0.106857,0.06032 -0.179244,0.165456 -0.07066,0.105134 -0.08962,0.234396 z" />
    <path
       id="path2100"
       style="font-weight:bold;font-size:3.447px;font-family:Urbanist;font-variant-ligatures:normal;font-variant-caps:normal;font-variant-numeric:normal;font-feature-settings:normal;text-align:center;text-anchor:middle;fill:#e6ebef;stroke-width:0.08618"
       d="m 14.194256,54.912903 v -0.899667 q 0,-0.146498 -0.06205,-0.27059 -0.06205,-0.124092 -0.17235,-0.196479 -0.10858,-0.07239 -0.243013,-0.07239 -0.13271,0 -0.237843,0.07239 -0.10341,0.07239 -0.162009,0.196479 -0.05688,0.122369 -0.05688,0.27059 v 0.899667 h -0.3447 v -1.7235 h 0.3447 v 0.239566 q 0.09307,-0.136156 0.222332,-0.21199 0.130986,-0.07583 0.287824,-0.07583 0.224055,0 0.398129,0.117198 0.174073,0.115474 0.270589,0.313677 0.09652,0.198202 0.09996,0.434322 v 0.906561 z" />
    <path
       id="path2102"
       style="font-weight:bold;font-size:3.447px;font-family:Urbanist;font-variant-ligatures:normal;font-variant-caps:normal;font-variant-numeric:normal;font-feature-settings:normal;text-align:center;text-anchor:middle;fill:#e6ebef;stroke-width:0.08618"
       d="m 16.307913,54.597502 q -0.120645,0.16718 -0.301612,0.263696 -0.179244,0.09652 -0.386064,0.09652 -0.234396,0 -0.432599,-0.122369 -0.196479,-0.122368 -0.313677,-0.329188 -0.115474,-0.208544 -0.115474,-0.455004 0,-0.248184 0.115474,-0.456728 0.117198,-0.208543 0.313677,-0.330912 0.198203,-0.122368 0.432599,-0.122368 0.20682,0 0.387787,0.09652 0.180968,0.09652 0.299889,0.265419 l -0.308506,0.167179 q -0.07239,-0.0879 -0.174074,-0.136156 -0.09996,-0.04826 -0.205096,-0.04826 -0.143051,0 -0.261972,0.07756 -0.118922,0.07756 -0.187862,0.208544 -0.06722,0.129262 -0.06722,0.279207 0,0.149944 0.06894,0.279207 0.06894,0.129262 0.187861,0.20682 0.118922,0.07583 0.260249,0.07583 0.10858,0 0.208543,-0.04998 0.09996,-0.04998 0.170627,-0.132709 z" />
    <path
       id="path2104"
       style="font-weight:bold;font-size:3.447px;font-family:Urbanist;font-variant-ligatures:normal;font-variant-caps:normal;font-variant-numeric:normal;font-feature-settings:normal;text-align:center;text-anchor:middle;fill:#e6ebef;stroke-width:0.08618"
       d="m 18.065776,53.189403 -0.942754,2.58525 h -0.367106 l 0.311954,-0.863474 -0.618737,-1.721776 h 0.377447 l 0.41364,1.251261 0.458451,-1.251261 z" />
  </g>
  <g
     transform="translate(0,-5.000002)"
     style="font-weight:bold;font-size:3.44699px;line-height:1.25;font-family:Urbanist;font-variant-ligatures:normal;font-variant-caps:normal;font-variant-numeric:normal;font-feature-settings:normal;letter-spacing:0px;word-spacing:0px;fill:#e6ebef;stroke-width:0.0861801"
     id="text1477-1"
     aria-label="Resonance">
    <path
       id="path2107"
       style="font-weight:bold;font-size:3.44699px;font-family:Urbanist;font-variant-ligatures:normal;font-variant-caps:normal;font-variant-numeric:normal;font-feature-settings:normal;text-align:center;text-anchor:middle;fill:#e6ebef;stroke-width:0.0861801"
       d="m 2.7789823,97.500002 q 0.1913079,0 0.3498695,0.09652 0.160285,0.09479 0.2516302,0.260248 0.093069,0.163732 0.093069,0.36021 0,0.165456 -0.065493,0.308506 -0.063769,0.141326 -0.1792434,0.239566 -0.1137507,0.09824 -0.2602478,0.139603 l 0.5842648,1.008244 H 3.1547042 L 2.5876743,98.935674 H 2.2446988 v 0.977221 h -0.344699 v -2.412893 z m -0.036193,1.090973 q 0.1051332,0 0.1930314,-0.0517 0.089622,-0.05343 0.1413266,-0.14305 0.051705,-0.09135 0.051705,-0.201649 0,-0.108581 -0.051705,-0.198202 -0.051705,-0.09135 -0.1413266,-0.14305 -0.087898,-0.05343 -0.1930314,-0.05343 H 2.2446988 v 0.791085 z" />
    <path
       id="path2109"
       style="font-weight:bold;font-size:3.44699px;font-family:Urbanist;font-variant-ligatures:normal;font-variant-caps:normal;font-variant-numeric:normal;font-feature-settings:normal;text-align:center;text-anchor:middle;fill:#e6ebef;stroke-width:0.0861801"
       d="m 4.5950613,99.957706 q -0.2343953,0 -0.4325973,-0.122368 Q 3.9659856,99.71297 3.8487879,99.504427 3.7333138,99.295884 3.7333138,99.049424 q 0,-0.24646 0.1154741,-0.455002 0.1171977,-0.208543 0.3136761,-0.330912 0.198202,-0.122368 0.4325973,-0.122368 0.2412893,0 0.4360442,0.124092 0.1964784,0.124092 0.3085056,0.336082 0.1120272,0.210266 0.1120272,0.46362 0,0.0517 -0.00517,0.106856 H 4.1021417 q 0.022405,0.125815 0.089622,0.225778 0.067216,0.09996 0.1723495,0.158562 0.1051332,0.05687 0.2309484,0.05687 0.1344326,0.0017 0.2447363,-0.06549 0.1120271,-0.06894 0.1844139,-0.191308 l 0.351593,0.08101 q -0.070663,0.153391 -0.1895844,0.272312 -0.1171977,0.117197 -0.2705888,0.18269 -0.1516675,0.06549 -0.3205703,0.06549 z m 0.5032605,-1.049608 q -0.017235,-0.125816 -0.089622,-0.230949 -0.070663,-0.106856 -0.1792435,-0.168902 -0.1085802,-0.06205 -0.2343953,-0.06205 -0.1258152,0 -0.2343953,0.06205 -0.1068567,0.06032 -0.1792435,0.165455 -0.070663,0.105133 -0.089622,0.234396 z" />
    <path
       id="path2111"
       style="font-weight:bold;font-size:3.44699px;font-family:Urbanist;font-variant-ligatures:normal;font-variant-caps:normal;font-variant-numeric:normal;font-feature-settings:normal;text-align:center;text-anchor:middle;fill:#e6ebef;stroke-width:0.0861801"
       d="m 6.3430085,99.947365 q -0.146497,0 -0.2861001,-0.04481 Q 5.9190288,99.85602 5.8121721,99.771569 5.7070389,99.687117 5.658781,99.57509 l 0.2929942,-0.125815 q 0.024129,0.04998 0.082728,0.09652 0.058599,0.04653 0.1378796,0.07583 0.079281,0.02757 0.1602851,0.02757 0.1327091,0 0.2257778,-0.0586 0.094792,-0.06032 0.094792,-0.162009 0,-0.07239 -0.048258,-0.115474 -0.046534,-0.04309 -0.1068567,-0.06377 -0.060322,-0.02068 -0.1826905,-0.05343 -0.2878236,-0.06722 -0.4532792,-0.191308 -0.163732,-0.125815 -0.163732,-0.337805 0,-0.158561 0.087898,-0.280929 0.087898,-0.122369 0.2343953,-0.187861 0.1464971,-0.06722 0.3136761,-0.06722 0.2085429,0 0.3791689,0.0879 0.1723495,0.0879 0.2636947,0.241289 L 6.703219,98.621997 q -0.043087,-0.08273 -0.1464971,-0.137879 -0.1016862,-0.05515 -0.2119899,-0.05515 -0.1396031,0 -0.2309483,0.06032 -0.091345,0.0586 -0.091345,0.168903 0,0.06032 0.03447,0.09824 0.036193,0.03792 0.087898,0.0586 0.053428,0.02068 0.1482206,0.04653 0.072387,0.02068 0.094792,0.02758 0.2740357,0.08962 0.4325973,0.213714 0.1585615,0.122368 0.153391,0.32057 0,0.149944 -0.087898,0.270588 -0.086175,0.118921 -0.2326719,0.186138 -0.1447735,0.06722 -0.3102291,0.06722 z" />
    <path
       id="path2113"
       style="font-weight:bold;font-size:3.44699px;font-family:Urbanist;font-variant-ligatures:normal;font-variant-caps:normal;font-variant-numeric:normal;font-feature-settings:normal;text-align:center;text-anchor:middle;fill:#e6ebef;stroke-width:0.0861801"
       d="m 8.0285866,99.957706 q -0.2343953,0 -0.4325972,-0.122368 Q 7.3995109,99.71297 7.2823133,99.50615 7.1668391,99.297607 7.1668391,99.051148 q 0,-0.248184 0.1154742,-0.456726 0.1171976,-0.208543 0.3136761,-0.330912 0.1982019,-0.122368 0.4325972,-0.122368 0.2343953,0 0.4308738,0.122368 0.1982019,0.122369 0.313676,0.330912 0.1171977,0.208542 0.1171977,0.456726 0,0.246459 -0.1171977,0.455002 -0.1154741,0.20682 -0.313676,0.329188 -0.1964785,0.122368 -0.4308738,0.122368 z m 0,-0.344699 q 0.1430501,0 0.2619712,-0.07583 0.1189212,-0.07756 0.1861375,-0.206819 0.06894,-0.129262 0.06894,-0.279206 0,-0.151668 -0.070663,-0.28093 -0.06894,-0.130986 -0.1878609,-0.206819 -0.1189212,-0.07756 -0.2585243,-0.07756 -0.1430501,0 -0.2619712,0.07756 -0.1171977,0.07756 -0.1861375,0.208543 -0.06894,0.129262 -0.06894,0.279206 0,0.155114 0.070663,0.284376 0.070663,0.127539 0.1878609,0.203373 0.1189212,0.07411 0.2585243,0.07411 z" />
    <path
       id="path2115"
       style="font-weight:bold;font-size:3.44699px;font-family:Urbanist;font-variant-ligatures:normal;font-variant-caps:normal;font-variant-numeric:normal;font-feature-settings:normal;text-align:center;text-anchor:middle;fill:#e6ebef;stroke-width:0.0861801"
       d="m 10.41315,99.912895 v -0.899664 q 0,-0.146497 -0.06205,-0.270589 -0.06205,-0.124092 -0.172349,-0.196478 -0.108581,-0.07239 -0.2430133,-0.07239 -0.1327091,0 -0.2378423,0.07239 -0.1034097,0.07239 -0.1620085,0.196478 -0.056875,0.122368 -0.056875,0.270589 v 0.899664 H 9.1343165 V 98.1894 h 0.344699 v 0.239566 q 0.093069,-0.136156 0.2223309,-0.21199 0.1309856,-0.07583 0.2878237,-0.07583 0.2240539,0 0.3981269,0.117198 0.174073,0.115474 0.270589,0.313676 0.09652,0.198202 0.09996,0.434321 v 0.906558 z" />
    <path
       id="path2117"
       style="font-weight:bold;font-size:3.44699px;font-family:Urbanist;font-variant-ligatures:normal;font-variant-caps:normal;font-variant-numeric:normal;font-feature-settings:normal;text-align:center;text-anchor:middle;fill:#e6ebef;stroke-width:0.0861801"
       d="m 12.793942,99.912895 h -0.344699 v -0.261971 q -0.08962,0.141327 -0.229225,0.224054 -0.139603,0.08273 -0.318846,0.08273 -0.24646,0 -0.455003,-0.122368 -0.206819,-0.122368 -0.329188,-0.329188 -0.122368,-0.208543 -0.122368,-0.455002 0,-0.248184 0.122368,-0.456726 0.122369,-0.208543 0.329188,-0.330912 0.208543,-0.122368 0.455003,-0.122368 0.179243,0 0.318846,0.08273 0.139603,0.081 0.229225,0.224054 V 98.1894 h 0.344699 z m -0.889323,-0.287823 q 0.151667,0 0.268865,-0.07756 0.117198,-0.07756 0.180967,-0.208543 0.06549,-0.130985 0.06549,-0.287823 0,-0.160285 -0.06549,-0.291271 -0.06377,-0.130986 -0.182691,-0.206819 -0.117197,-0.07756 -0.267141,-0.07756 -0.151668,0 -0.279207,0.07756 -0.127538,0.07756 -0.203372,0.210266 -0.07411,0.130986 -0.07411,0.287824 0,0.156838 0.07583,0.289547 0.07583,0.130985 0.203372,0.208543 0.129262,0.07583 0.277483,0.07583 z" />
    <path
       id="path2119"
       style="font-weight:bold;font-size:3.44699px;font-family:Urbanist;font-variant-ligatures:normal;font-variant-caps:normal;font-variant-numeric:normal;font-feature-settings:normal;text-align:center;text-anchor:middle;fill:#e6ebef;stroke-width:0.0861801"
       d="m 14.452591,99.912895 v -0.899664 q 0,-0.146497 -0.06205,-0.270589 -0.06205,-0.124092 -0.172349,-0.196478 -0.108581,-0.07239 -0.243013,-0.07239 -0.132709,0 -0.237842,0.07239 -0.10341,0.07239 -0.162009,0.196478 -0.05687,0.122368 -0.05687,0.270589 v 0.899664 h -0.3447 V 98.1894 h 0.344699 v 0.239566 q 0.09307,-0.136156 0.22233,-0.21199 0.130986,-0.07583 0.287824,-0.07583 0.224055,0 0.398128,0.117198 0.174073,0.115474 0.270588,0.313676 0.09652,0.198202 0.09996,0.434321 v 0.906558 z" />
    <path
       id="path2121"
       style="font-weight:bold;font-size:3.44699px;font-family:Urbanist;font-variant-ligatures:normal;font-variant-caps:normal;font-variant-numeric:normal;font-feature-settings:normal;text-align:center;text-anchor:middle;fill:#e6ebef;stroke-width:0.0861801"
       d="m 16.566242,99.597496 q -0.120644,0.167179 -0.301611,0.263694 -0.179244,0.09652 -0.386063,0.09652 -0.234395,0 -0.432597,-0.122368 -0.196479,-0.122368 -0.313676,-0.329188 -0.115475,-0.208543 -0.115475,-0.455002 0,-0.248184 0.115475,-0.456726 0.117197,-0.208543 0.313676,-0.330912 0.198202,-0.122368 0.432597,-0.122368 0.206819,0 0.387786,0.09652 0.180967,0.09652 0.299888,0.265418 l -0.308505,0.167179 q -0.07239,-0.0879 -0.174073,-0.136156 -0.09996,-0.04826 -0.205096,-0.04826 -0.14305,0 -0.261971,0.07756 -0.118921,0.07756 -0.187861,0.208543 -0.06722,0.129262 -0.06722,0.279206 0,0.149944 0.06894,0.279206 0.06894,0.129262 0.187861,0.206819 0.118921,0.07583 0.260248,0.07583 0.10858,0 0.208543,-0.04998 0.09996,-0.04998 0.170626,-0.132709 z" />
    <path
       id="path2123"
       style="font-weight:bold;font-size:3.44699px;font-family:Urbanist;font-variant-ligatures:normal;font-variant-caps:normal;font-variant-numeric:normal;font-feature-settings:normal;text-align:center;text-anchor:middle;fill:#e6ebef;stroke-width:0.0861801"
       d="m 17.588598,99.957706 q -0.234395,0 -0.432597,-0.122368 -0.196478,-0.122368 -0.313676,-0.330911 -0.115474,-0.208543 -0.115474,-0.455003 0,-0.24646 0.115474,-0.455002 0.117198,-0.208543 0.313676,-0.330912 0.198202,-0.122368 0.432597,-0.122368 0.24129,0 0.436045,0.124092 0.196478,0.124092 0.308505,0.336082 0.112027,0.210266 0.112027,0.46362 0,0.0517 -0.0052,0.106856 h -1.344326 q 0.0224,0.125815 0.08962,0.225778 0.06722,0.09996 0.172349,0.158562 0.105133,0.05687 0.230948,0.05687 0.134433,0.0017 0.244737,-0.06549 0.112027,-0.06894 0.184414,-0.191308 l 0.351593,0.08101 q -0.07066,0.153391 -0.189585,0.272312 -0.117197,0.117197 -0.270588,0.18269 -0.151668,0.06549 -0.320571,0.06549 z m 0.503261,-1.049608 q -0.01723,-0.125816 -0.08962,-0.230949 -0.07066,-0.106856 -0.179243,-0.168902 -0.10858,-0.06205 -0.234396,-0.06205 -0.125815,0 -0.234395,0.06205 -0.106857,0.06032 -0.179243,0.165455 -0.07066,0.105133 -0.08962,0.234396 z" />
  </g>
</svg>
