<svg width="20.32mm" height="128.5mm" version="1.1" viewBox="0 0 20.32 128.5" xmlns="http://www.w3.org/2000/svg">
 <rect x="4.109e-7" y="2.598e-6" width="20.32" height="128.5" fill="#979799" style="paint-order:markers stroke fill"/>
 <g transform="translate(-.001215 -6.382)" stroke-width="3.615">
  <rect transform="scale(1,-1)" x="5.369" y="-134.9" width=".2448" height="128.5" fill="#90a2a8" style="paint-order:markers stroke fill"/>
  <rect transform="scale(1,-1)" x="5.614" y="-134.9" width=".2448" height="128.5" fill="#919699" style="paint-order:markers stroke fill"/>
  <rect transform="scale(1,-1)" x="5.858" y="-134.9" width=".2448" height="128.5" fill="#959698" style="paint-order:markers stroke fill"/>
  <rect transform="scale(1,-1)" x="6.103" y="-134.9" width=".2448" height="128.5" fill="#99989a" style="paint-order:markers stroke fill"/>
  <rect transform="scale(1,-1)" x="6.348" y="-134.9" width=".2448" height="128.5" fill="#95989a" style="paint-order:markers stroke fill"/>
  <rect transform="scale(1,-1)" x="6.593" y="-134.9" width=".2448" height="128.5" fill="#929596" style="paint-order:markers stroke fill"/>
  <rect transform="scale(1,-1)" x="6.838" y="-134.9" width=".2448" height="128.5" fill="#9c9c9d" style="paint-order:markers stroke fill"/>
  <rect transform="scale(1,-1)" x="7.082" y="-134.9" width=".2448" height="128.5" fill="#a4a2a4" style="paint-order:markers stroke fill"/>
  <rect transform="scale(1,-1)" x="7.327" y="-134.9" width=".2448" height="128.5" fill="#9fa1a3" style="paint-order:markers stroke fill"/>
  <rect transform="scale(1,-1)" x="7.573" y="-134.9" width=".2448" height="128.5" fill="#9a9c9e" style="paint-order:markers stroke fill"/>
  <rect transform="scale(1,-1)" x="7.818" y="-134.9" width=".2448" height="128.5" fill="#929294" style="paint-order:markers stroke fill"/>
  <rect transform="scale(1,-1)" x="8.062" y="-134.9" width=".2448" height="128.5" fill="#9b9c9e" style="paint-order:markers stroke fill"/>
  <rect transform="scale(1,-1)" x="8.307" y="-134.9" width=".2448" height="128.5" fill="#9c9c9d" style="paint-order:markers stroke fill"/>
  <rect transform="scale(1,-1)" x="8.552" y="-134.9" width=".2448" height="128.5" fill="#a0a1a3" style="paint-order:markers stroke fill"/>
  <rect transform="scale(1,-1)" x="8.797" y="-134.9" width=".2448" height="128.5" fill="#a2a1a3" style="paint-order:markers stroke fill"/>
  <rect transform="scale(1,-1)" x="9.042" y="-134.9" width=".2448" height="128.5" fill="#a2a0a1" style="paint-order:markers stroke fill"/>
  <rect transform="scale(1,-1)" x="9.286" y="-134.9" width=".2448" height="128.5" fill="#8f9395" style="paint-order:markers stroke fill"/>
  <rect transform="scale(1,-1)" x="9.531" y="-134.9" width=".2448" height="128.5" fill="#93999b" style="paint-order:markers stroke fill"/>
  <rect transform="scale(1,-1)" x="9.776" y="-134.9" width=".2448" height="128.5" fill="#a6a1a1" style="paint-order:markers stroke fill"/>
  <rect transform="scale(1,-1)" x="10.02" y="-134.9" width=".2448" height="128.5" fill="#9b9a9b" style="paint-order:markers stroke fill"/>
  <rect transform="scale(1,-1)" x="10.27" y="-134.9" width=".2448" height="128.5" fill="#a4a1a2" style="paint-order:markers stroke fill"/>
  <rect transform="scale(1,-1)" x="10.51" y="-134.9" width=".2448" height="128.5" fill="#969a9c" style="paint-order:markers stroke fill"/>
  <rect transform="scale(1,-1)" x="10.76" y="-134.9" width=".2448" height="128.5" fill="#8d8d8f" style="paint-order:markers stroke fill"/>
  <rect transform="scale(1,-1)" x="11" y="-134.9" width=".2448" height="128.5" fill="#939395" style="paint-order:markers stroke fill"/>
  <rect transform="scale(1,-1)" x="11.24" y="-134.9" width=".2448" height="128.5" fill="#909092" style="paint-order:markers stroke fill"/>
  <rect transform="scale(1,-1)" x="11.49" y="-134.9" width=".2448" height="128.5" fill="#9b9a9c" style="paint-order:markers stroke fill"/>
  <rect transform="scale(1,-1)" x="11.73" y="-134.9" width=".2448" height="128.5" fill="#959395" style="paint-order:markers stroke fill"/>
  <rect transform="scale(1,-1)" x="11.98" y="-134.9" width=".2448" height="128.5" fill="#8e8f90" style="paint-order:markers stroke fill"/>
  <rect transform="scale(1,-1)" x="12.22" y="-134.9" width=".2448" height="128.5" fill="#909092" style="paint-order:markers stroke fill"/>
  <rect transform="scale(1,-1)" x="12.47" y="-134.9" width=".2448" height="128.5" fill="#9b9b9c" style="paint-order:markers stroke fill"/>
  <rect transform="scale(1,-1)" x="12.71" y="-134.9" width=".2448" height="128.5" fill="#a29fa0" style="paint-order:markers stroke fill"/>
  <rect transform="scale(1,-1)" x="12.96" y="-134.9" width=".2448" height="128.5" fill="#96999b" style="paint-order:markers stroke fill"/>
  <rect transform="scale(1,-1)" x="13.2" y="-134.9" width=".2448" height="128.5" fill="#8e9395" style="paint-order:markers stroke fill"/>
  <rect transform="scale(1,-1)" x="13.45" y="-134.9" width=".2448" height="128.5" fill="#a5a1a1" style="paint-order:markers stroke fill"/>
  <rect transform="scale(1,-1)" x="13.69" y="-134.9" width=".2448" height="128.5" fill="#9b999b" style="paint-order:markers stroke fill"/>
  <rect transform="scale(1,-1)" x="13.94" y="-134.9" width=".2448" height="128.5" fill="#8d9294" style="paint-order:markers stroke fill"/>
  <rect transform="scale(1,-1)" x="14.18" y="-134.9" width=".2448" height="128.5" fill="#a5a3a4" style="paint-order:markers stroke fill"/>
  <rect transform="scale(1,-1)" x="14.43" y="-134.9" width=".2448" height="128.5" fill="#a1a2a4" style="paint-order:markers stroke fill"/>
  <rect transform="scale(1,-1)" x="14.67" y="-134.9" width=".2448" height="128.5" fill="#95989b" style="paint-order:markers stroke fill"/>
  <rect transform="scale(1,-1)" x="14.92" y="-134.9" width=".2448" height="128.5" fill="#969798" style="paint-order:markers stroke fill"/>
  <rect transform="scale(1,-1)" x="15.16" y="-134.9" width=".2448" height="128.5" fill="#929395" style="paint-order:markers stroke fill"/>
  <rect transform="scale(1,-1)" x="15.41" y="-134.9" width=".2448" height="128.5" fill="#999b9c" style="paint-order:markers stroke fill"/>
  <rect transform="scale(1,-1)" x="15.65" y="-134.9" width=".2448" height="128.5" fill="#a2a2a3" style="paint-order:markers stroke fill"/>
  <rect transform="scale(1,-1)" x="15.9" y="-134.9" width=".2448" height="128.5" fill="#a0a3a5" style="paint-order:markers stroke fill"/>
  <rect transform="scale(1,-1)" x="16.14" y="-134.9" width=".2448" height="128.5" fill="#919395" style="paint-order:markers stroke fill"/>
  <rect transform="scale(1,-1)" x="16.39" y="-134.9" width=".2448" height="128.5" fill="#a19d9e" style="paint-order:markers stroke fill"/>
  <rect transform="scale(1,-1)" x="16.63" y="-134.9" width=".2448" height="128.5" fill="#8d8f91" style="paint-order:markers stroke fill"/>
  <rect transform="scale(1,-1)" x="16.88" y="-134.9" width=".2448" height="128.5" fill="#8e8f90" style="paint-order:markers stroke fill"/>
  <rect transform="scale(1,-1)" x="17.12" y="-134.9" width=".2448" height="128.5" fill="#929597" style="paint-order:markers stroke fill"/>
  <rect transform="scale(1,-1)" x="17.37" y="-134.9" width=".2448" height="128.5" fill="#9b9a9c" style="paint-order:markers stroke fill"/>
  <rect transform="scale(1,-1)" x="17.61" y="-134.9" width=".2448" height="128.5" fill="#999698" style="paint-order:markers stroke fill"/>
  <rect transform="scale(1,-1)" x="17.86" y="-134.9" width=".2448" height="128.5" fill="#8f9293" style="paint-order:markers stroke fill"/>
  <rect transform="scale(1,-1)" x="18.1" y="-134.9" width=".2448" height="128.5" fill="#8f9293" style="paint-order:markers stroke fill"/>
  <rect transform="scale(1,-1)" x="18.35" y="-134.9" width=".2448" height="128.5" fill="#a09c9c" style="paint-order:markers stroke fill"/>
  <rect transform="scale(1,-1)" x="18.59" y="-134.9" width=".2448" height="128.5" fill="#919496" style="paint-order:markers stroke fill"/>
  <rect transform="scale(1,-1)" x="18.84" y="-134.9" width=".2448" height="128.5" fill="#919496" style="paint-order:markers stroke fill"/>
  <rect transform="scale(1,-1)" x="19.08" y="-134.9" width=".2448" height="128.5" fill="#8d9092" style="paint-order:markers stroke fill"/>
  <rect transform="scale(1,-1)" x="19.33" y="-134.9" width=".2448" height="128.5" fill="#9b9a9c" style="paint-order:markers stroke fill"/>
  <rect transform="scale(1,-1)" x="19.58" y="-134.9" width=".2448" height="128.5" fill="#9d9d9f" style="paint-order:markers stroke fill"/>
  <rect transform="scale(1,-1)" x="19.82" y="-134.9" width=".2448" height="128.5" fill="#949799" style="paint-order:markers stroke fill"/>
  <rect transform="scale(1,-1)" x="20.1" y="-134.9" width=".2448" height="128.5" fill="#999d9f" style="paint-order:markers stroke fill"/>
  <rect transform="scale(1,-1)" x="-.02239" y="-134.9" width=".2448" height="128.5" fill="#babcbd" style="paint-order:markers stroke fill"/>
  <rect transform="scale(1,-1)" x=".2224" y="-134.9" width=".2448" height="128.5" fill="#93999b" style="paint-order:markers stroke fill"/>
  <rect transform="scale(1,-1)" x=".4728" y="-134.9" width=".2448" height="128.5" fill="#a6a1a1" style="paint-order:markers stroke fill"/>
  <rect transform="scale(1,-1)" x=".7176" y="-134.9" width=".2448" height="128.5" fill="#9b9a9b" style="paint-order:markers stroke fill"/>
  <rect transform="scale(1,-1)" x=".9624" y="-134.9" width=".2448" height="128.5" fill="#a4a1a2" style="paint-order:markers stroke fill"/>
  <rect transform="scale(1,-1)" x="1.207" y="-134.9" width=".2448" height="128.5" fill="#969a9c" style="paint-order:markers stroke fill"/>
  <rect transform="scale(1,-1)" x="1.452" y="-134.9" width=".2448" height="128.5" fill="#8d8d8f" style="paint-order:markers stroke fill"/>
  <rect transform="scale(1,-1)" x="1.697" y="-134.9" width=".2448" height="128.5" fill="#939395" style="paint-order:markers stroke fill"/>
  <rect transform="scale(1,-1)" x="1.942" y="-134.9" width=".2448" height="128.5" fill="#909092" style="paint-order:markers stroke fill"/>
  <rect transform="scale(1,-1)" x="2.186" y="-134.9" width=".2448" height="128.5" fill="#9b9a9c" style="paint-order:markers stroke fill"/>
  <rect transform="scale(1,-1)" x="2.431" y="-134.9" width=".2448" height="128.5" fill="#959395" style="paint-order:markers stroke fill"/>
  <rect transform="scale(1,-1)" x="2.676" y="-134.9" width=".2448" height="128.5" fill="#8e8f90" style="paint-order:markers stroke fill"/>
  <rect transform="scale(1,-1)" x="2.921" y="-134.9" width=".2448" height="128.5" fill="#909092" style="paint-order:markers stroke fill"/>
  <rect transform="scale(1,-1)" x="3.166" y="-134.9" width=".2448" height="128.5" fill="#9b9b9c" style="paint-order:markers stroke fill"/>
  <rect transform="scale(1,-1)" x="3.41" y="-134.9" width=".2448" height="128.5" fill="#a29fa0" style="paint-order:markers stroke fill"/>
  <rect transform="scale(1,-1)" x="3.655" y="-134.9" width=".2448" height="128.5" fill="#96999b" style="paint-order:markers stroke fill"/>
  <rect transform="scale(1,-1)" x="3.9" y="-134.9" width=".2448" height="128.5" fill="#8e9395" style="paint-order:markers stroke fill"/>
  <rect transform="scale(1,-1)" x="4.145" y="-134.9" width=".2448" height="128.5" fill="#a5a1a1" style="paint-order:markers stroke fill"/>
  <rect transform="scale(1,-1)" x="4.39" y="-134.9" width=".2448" height="128.5" fill="#9b999b" style="paint-order:markers stroke fill"/>
  <rect transform="scale(1,-1)" x="4.634" y="-134.9" width=".2448" height="128.5" fill="#8d9294" style="paint-order:markers stroke fill"/>
  <rect transform="scale(1,-1)" x="4.879" y="-134.9" width=".2448" height="128.5" fill="#a5a3a4" style="paint-order:markers stroke fill"/>
  <rect transform="scale(1,-1)" x="5.124" y="-134.9" width=".2448" height="128.5" fill="#a1a2a4" style="paint-order:markers stroke fill"/>
 </g>
 <rect x="2.503" y="11.01" width="15.31" height="106.5" rx="0" ry="0" fill="#e6ebef" stroke-width=".4998" style="paint-order:stroke fill markers"/>
 <path d="m10.16 59.11a5.143 5.143 0 0 0-5.142 5.142 5.143 5.143 0 0 0 5.142 5.143 5.143 5.143 0 0 0 5.143-5.143 5.143 5.143 0 0 0-5.143-5.142zm0.0085 0.471 0.8172 2.554 2.275-1.421-1.016 2.482 2.657 0.3733-2.374 1.249 1.794 1.994-2.621-0.5699 0.09279 2.68-1.642-2.12-1.652 2.113 0.1049-2.68-2.623 0.5576 1.804-1.986-2.368-1.26 2.658-0.361-1.005-2.487 2.269 1.432zm0.7999 2.552-0.8147 0.6552-0.8172-0.6515-0.2026 1.026-1.046 0.0261 0.5044 0.9161-0.7838 0.6923 0.9742 0.3783-0.1546 1.034 0.9903-0.3362 0.5452 0.8913 0.5415-0.8938 0.9915 0.3325-0.1606-1.034 0.973-0.3833-0.7863-0.6886 0.4995-0.9186-1.045-0.0216z" fill="#263741" style="paint-order:markers fill stroke"/>
</svg>
