<svg width="20.32mm" height="128.5mm" version="1.1" viewBox="0 0 20.32 128.5" xmlns="http://www.w3.org/2000/svg">
 <rect y="9.155e-8" width="20.32" height="128.5" fill="#979799" style="paint-order:markers stroke fill"/>
 <g transform="translate(-34.08 2.8)" stroke-width="3.615">
  <rect transform="scale(1,-1)" x="34.57" y="-125.7" width=".2448" height="128.5" fill="#90a2a8" style="paint-order:markers stroke fill"/>
  <rect transform="scale(1,-1)" x="34.82" y="-125.7" width=".2448" height="128.5" fill="#919699" style="paint-order:markers stroke fill"/>
  <rect transform="scale(1,-1)" x="35.06" y="-125.7" width=".2448" height="128.5" fill="#959698" style="paint-order:markers stroke fill"/>
  <rect transform="scale(1,-1)" x="35.31" y="-125.7" width=".2448" height="128.5" fill="#99989a" style="paint-order:markers stroke fill"/>
  <rect transform="scale(1,-1)" x="35.8" y="-125.7" width=".2448" height="128.5" fill="#95989a" style="paint-order:markers stroke fill"/>
  <rect transform="scale(1,-1)" x="36.29" y="-125.7" width=".2448" height="128.5" fill="#929596" style="paint-order:markers stroke fill"/>
  <rect transform="scale(1,-1)" x="36.77" y="-125.7" width=".2448" height="128.5" fill="#9c9c9d" style="paint-order:markers stroke fill"/>
  <rect transform="scale(1,-1)" x="37.26" y="-125.7" width=".2448" height="128.5" fill="#a4a2a4" style="paint-order:markers stroke fill"/>
  <rect transform="scale(1,-1)" x="37.75" y="-125.7" width=".2448" height="128.5" fill="#9fa1a3" style="paint-order:markers stroke fill"/>
  <rect transform="scale(1,-1)" x="38.24" y="-125.7" width=".2448" height="128.5" fill="#9a9c9e" style="paint-order:markers stroke fill"/>
  <rect transform="scale(1,-1)" x="38.73" y="-125.7" width=".2448" height="128.5" fill="#929294" style="paint-order:markers stroke fill"/>
  <rect transform="scale(1,-1)" x="39.22" y="-125.7" width=".2448" height="128.5" fill="#9b9c9e" style="paint-order:markers stroke fill"/>
  <rect transform="scale(1,-1)" x="39.71" y="-125.7" width=".2448" height="128.5" fill="#9c9c9d" style="paint-order:markers stroke fill"/>
  <rect transform="scale(1,-1)" x="40.2" y="-125.7" width=".2448" height="128.5" fill="#a0a1a3" style="paint-order:markers stroke fill"/>
  <rect transform="scale(1,-1)" x="40.69" y="-125.7" width=".2448" height="128.5" fill="#a2a1a3" style="paint-order:markers stroke fill"/>
  <rect transform="scale(1,-1)" x="41.18" y="-125.7" width=".2448" height="128.5" fill="#a2a0a1" style="paint-order:markers stroke fill"/>
  <rect transform="scale(1,-1)" x="41.67" y="-125.7" width=".2448" height="128.5" fill="#8f9395" style="paint-order:markers stroke fill"/>
  <rect transform="scale(1,-1)" x="42.16" y="-125.7" width=".2448" height="128.5" fill="#93999b" style="paint-order:markers stroke fill"/>
  <rect transform="scale(1,-1)" x="42.65" y="-125.7" width=".2448" height="128.5" fill="#a6a1a1" style="paint-order:markers stroke fill"/>
  <rect transform="scale(1,-1)" x="43.14" y="-125.7" width=".2448" height="128.5" fill="#9b9a9b" style="paint-order:markers stroke fill"/>
  <rect transform="scale(1,-1)" x="43.63" y="-125.7" width=".2448" height="128.5" fill="#a4a1a2" style="paint-order:markers stroke fill"/>
  <rect transform="scale(1,-1)" x="43.87" y="-125.7" width=".2448" height="128.5" fill="#969a9c" style="paint-order:markers stroke fill"/>
  <rect transform="scale(1,-1)" x="44.36" y="-125.7" width=".2448" height="128.5" fill="#8d8d8f" style="paint-order:markers stroke fill"/>
  <rect transform="scale(1,-1)" x="44.85" y="-125.7" width=".2448" height="128.5" fill="#939395" style="paint-order:markers stroke fill"/>
  <rect transform="scale(1,-1)" x="45.34" y="-125.7" width=".2448" height="128.5" fill="#909092" style="paint-order:markers stroke fill"/>
  <rect transform="scale(1,-1)" x="45.59" y="-125.7" width=".2448" height="128.5" fill="#9b9a9c" style="paint-order:markers stroke fill"/>
  <rect transform="scale(1,-1)" x="45.83" y="-125.7" width=".2448" height="128.5" fill="#959395" style="paint-order:markers stroke fill"/>
  <rect transform="scale(1,-1)" x="46.08" y="-125.7" width=".2448" height="128.5" fill="#8e8f90" style="paint-order:markers stroke fill"/>
  <rect transform="scale(1,-1)" x="46.32" y="-125.7" width=".2448" height="128.5" fill="#909092" style="paint-order:markers stroke fill"/>
  <rect transform="scale(1,-1)" x="46.57" y="-125.7" width=".2448" height="128.5" fill="#9b9b9c" style="paint-order:markers stroke fill"/>
  <rect transform="scale(1,-1)" x="46.81" y="-125.7" width=".2448" height="128.5" fill="#a29fa0" style="paint-order:markers stroke fill"/>
  <rect transform="scale(1,-1)" x="47.06" y="-125.7" width=".2448" height="128.5" fill="#96999b" style="paint-order:markers stroke fill"/>
  <rect transform="scale(1,-1)" x="47.3" y="-125.7" width=".2448" height="128.5" fill="#8e9395" style="paint-order:markers stroke fill"/>
  <rect transform="scale(1,-1)" x="47.55" y="-125.7" width=".2448" height="128.5" fill="#a5a1a1" style="paint-order:markers stroke fill"/>
  <rect transform="scale(1,-1)" x="47.79" y="-125.7" width=".2448" height="128.5" fill="#9b999b" style="paint-order:markers stroke fill"/>
  <rect transform="scale(1,-1)" x="48.04" y="-125.7" width=".2448" height="128.5" fill="#8d9294" style="paint-order:markers stroke fill"/>
  <rect transform="scale(1,-1)" x="48.28" y="-125.7" width=".2448" height="128.5" fill="#a5a3a4" style="paint-order:markers stroke fill"/>
  <rect transform="scale(1,-1)" x="48.53" y="-125.7" width=".2448" height="128.5" fill="#a1a2a4" style="paint-order:markers stroke fill"/>
  <rect transform="scale(1,-1)" x="48.77" y="-125.7" width=".2448" height="128.5" fill="#95989b" style="paint-order:markers stroke fill"/>
  <rect transform="scale(1,-1)" x="49.01" y="-125.7" width=".2448" height="128.5" fill="#969798" style="paint-order:markers stroke fill"/>
  <rect transform="scale(1,-1)" x="49.26" y="-125.7" width=".2448" height="128.5" fill="#929395" style="paint-order:markers stroke fill"/>
  <rect transform="scale(1,-1)" x="49.5" y="-125.7" width=".2448" height="128.5" fill="#999b9c" style="paint-order:markers stroke fill"/>
  <rect transform="scale(1,-1)" x="49.75" y="-125.7" width=".2448" height="128.5" fill="#a2a2a3" style="paint-order:markers stroke fill"/>
  <rect transform="scale(1,-1)" x="49.99" y="-125.7" width=".2448" height="128.5" fill="#a0a3a5" style="paint-order:markers stroke fill"/>
  <rect transform="scale(1,-1)" x="50.24" y="-125.7" width=".2448" height="128.5" fill="#919395" style="paint-order:markers stroke fill"/>
  <rect transform="scale(1,-1)" x="50.48" y="-125.7" width=".2448" height="128.5" fill="#a19d9e" style="paint-order:markers stroke fill"/>
  <rect transform="scale(1,-1)" x="50.73" y="-125.7" width=".2448" height="128.5" fill="#8d8f91" style="paint-order:markers stroke fill"/>
  <rect transform="scale(1,-1)" x="50.97" y="-125.7" width=".2448" height="128.5" fill="#8e8f90" style="paint-order:markers stroke fill"/>
  <rect transform="scale(1,-1)" x="51.22" y="-125.7" width=".2448" height="128.5" fill="#929597" style="paint-order:markers stroke fill"/>
  <rect transform="scale(1,-1)" x="51.46" y="-125.7" width=".2448" height="128.5" fill="#9b9a9c" style="paint-order:markers stroke fill"/>
  <rect transform="scale(1,-1)" x="51.71" y="-125.7" width=".2448" height="128.5" fill="#999698" style="paint-order:markers stroke fill"/>
  <rect transform="scale(1,-1)" x="51.95" y="-125.7" width=".2448" height="128.5" fill="#8f9293" style="paint-order:markers stroke fill"/>
  <rect transform="scale(1,-1)" x="52.2" y="-125.7" width=".2448" height="128.5" fill="#8f9293" style="paint-order:markers stroke fill"/>
  <rect transform="scale(1,-1)" x="52.44" y="-125.7" width=".2448" height="128.5" fill="#a09c9c" style="paint-order:markers stroke fill"/>
  <rect transform="scale(1,-1)" x="52.69" y="-125.7" width=".2448" height="128.5" fill="#919496" style="paint-order:markers stroke fill"/>
  <rect transform="scale(1,-1)" x="52.93" y="-125.7" width=".2448" height="128.5" fill="#919496" style="paint-order:markers stroke fill"/>
  <rect transform="scale(1,-1)" x="53.18" y="-125.7" width=".2448" height="128.5" fill="#8d9092" style="paint-order:markers stroke fill"/>
  <rect transform="scale(1,-1)" x="53.42" y="-125.7" width=".2448" height="128.5" fill="#9b9a9c" style="paint-order:markers stroke fill"/>
  <rect transform="scale(1,-1)" x="53.67" y="-125.7" width=".2448" height="128.5" fill="#9d9d9f" style="paint-order:markers stroke fill"/>
  <rect transform="scale(1,-1)" x="53.91" y="-125.7" width=".2448" height="128.5" fill="#949799" style="paint-order:markers stroke fill"/>
  <rect transform="scale(1,-1)" x="54.16" y="-125.7" width=".2448" height="128.5" fill="#999d9f" style="paint-order:markers stroke fill"/>
  <rect transform="scale(1,-1)" x="35.55" y="-125.7" width=".2448" height="128.5" fill="#939395" style="paint-order:markers stroke fill"/>
  <rect transform="scale(1,-1)" x="36.04" y="-125.7" width=".2448" height="128.5" fill="#93999b" style="paint-order:markers stroke fill"/>
  <rect transform="scale(1,-1)" x="36.53" y="-125.7" width=".2448" height="128.5" fill="#a6a1a1" style="paint-order:markers stroke fill"/>
  <rect transform="scale(1,-1)" x="37.02" y="-125.7" width=".2448" height="128.5" fill="#9b9a9b" style="paint-order:markers stroke fill"/>
  <rect transform="scale(1,-1)" x="37.51" y="-125.7" width=".2448" height="128.5" fill="#a4a1a2" style="paint-order:markers stroke fill"/>
  <rect transform="scale(1,-1)" x="38" y="-125.7" width=".2448" height="128.5" fill="#969a9c" style="paint-order:markers stroke fill"/>
  <rect transform="scale(1,-1)" x="38.49" y="-125.7" width=".2448" height="128.5" fill="#8d8d8f" style="paint-order:markers stroke fill"/>
  <rect transform="scale(1,-1)" x="38.98" y="-125.7" width=".2448" height="128.5" fill="#939395" style="paint-order:markers stroke fill"/>
  <rect transform="scale(1,-1)" x="39.47" y="-125.7" width=".2448" height="128.5" fill="#909092" style="paint-order:markers stroke fill"/>
  <rect transform="scale(1,-1)" x="39.96" y="-125.7" width=".2448" height="128.5" fill="#9b9a9c" style="paint-order:markers stroke fill"/>
  <rect transform="scale(1,-1)" x="40.45" y="-125.7" width=".2448" height="128.5" fill="#959395" style="paint-order:markers stroke fill"/>
  <rect transform="scale(1,-1)" x="40.94" y="-125.7" width=".2448" height="128.5" fill="#8e8f90" style="paint-order:markers stroke fill"/>
  <rect transform="scale(1,-1)" x="41.43" y="-125.7" width=".2448" height="128.5" fill="#909092" style="paint-order:markers stroke fill"/>
  <rect transform="scale(1,-1)" x="41.92" y="-125.7" width=".2448" height="128.5" fill="#9b9b9c" style="paint-order:markers stroke fill"/>
  <rect transform="scale(1,-1)" x="42.41" y="-125.7" width=".2448" height="128.5" fill="#a29fa0" style="paint-order:markers stroke fill"/>
  <rect transform="scale(1,-1)" x="42.89" y="-125.7" width=".2448" height="128.5" fill="#96999b" style="paint-order:markers stroke fill"/>
  <rect transform="scale(1,-1)" x="43.38" y="-125.7" width=".2448" height="128.5" fill="#8e9395" style="paint-order:markers stroke fill"/>
  <rect transform="scale(1,-1)" x="44.12" y="-125.7" width=".2448" height="128.5" fill="#a5a1a1" style="paint-order:markers stroke fill"/>
  <rect transform="scale(1,-1)" x="44.61" y="-125.7" width=".2448" height="128.5" fill="#9b999b" style="paint-order:markers stroke fill"/>
  <rect transform="scale(1,-1)" x="45.1" y="-125.7" width=".2448" height="128.5" fill="#8d9294" style="paint-order:markers stroke fill"/>
  <rect transform="scale(1,-1)" x="34.08" y="-125.7" width=".2448" height="128.5" fill="#a5a3a4" style="paint-order:markers stroke fill"/>
  <rect transform="scale(1,-1)" x="34.33" y="-125.7" width=".2448" height="128.5" fill="#a1a2a4" style="paint-order:markers stroke fill"/>
 </g>
 <rect y="11.01" width="20.32" height="106.5" rx="0" ry="0" fill="#28727b" stroke-width=".5757" style="paint-order:stroke fill markers"/>
 <path d="m10.1 118.4a2.15 2.15 0 0 0-2.149 2.149 2.15 2.15 0 0 0 2.149 2.15 2.15 2.15 0 0 0 2.15-2.15 2.15 2.15 0 0 0-2.15-2.149zm4e-3 0.1969 0.3416 1.068 0.9508-0.5938-0.4248 1.038 1.111 0.1561-0.9922 0.5219 0.7498 0.8335-1.096-0.2382 0.0388 1.12-0.6863-0.8862-0.6904 0.8832 0.0439-1.12-1.097 0.2331 0.754-0.8299-0.9896-0.5266 1.111-0.1509-0.4201-1.04 0.9483 0.5984zm0.3344 1.067-0.3406 0.2739-0.3416-0.2723-0.0847 0.4289-0.4372 0.0109 0.2108 0.3829-0.3276 0.2894 0.4072 0.1581-0.0646 0.432 0.4139-0.1406 0.2279 0.3726 0.2264-0.3736 0.4144 0.139-0.0672-0.432 0.4067-0.1602-0.3287-0.2878 0.2088-0.384-0.4367-9e-3z" fill="#ccc" style="paint-order:markers fill stroke"/>
 <path d="m10.1 118.5a2.15 2.15 0 0 0-2.149 2.149 2.15 2.15 0 0 0 2.149 2.15 2.15 2.15 0 0 0 2.15-2.15 2.15 2.15 0 0 0-2.15-2.149zm4e-3 0.1969 0.3416 1.068 0.9508-0.5938-0.4248 1.038 1.111 0.1561-0.9922 0.5219 0.7498 0.8335-1.096-0.2382 0.0388 1.12-0.6863-0.8862-0.6904 0.8832 0.0439-1.12-1.097 0.2331 0.754-0.8299-0.9896-0.5266 1.111-0.1509-0.4201-1.04 0.9483 0.5984zm0.3344 1.067-0.3406 0.2739-0.3416-0.2723-0.0847 0.4289-0.4372 0.0109 0.2108 0.3829-0.3276 0.2894 0.4072 0.1581-0.0646 0.432 0.4139-0.1406 0.2279 0.3726 0.2264-0.3736 0.4144 0.139-0.0672-0.432 0.4067-0.1602-0.3287-0.2878 0.2088-0.384-0.4367-9e-3z" fill="#333" style="paint-order:markers fill stroke"/>
 <text x="10.059921" y="9.4699144" fill="#cccccc" font-family="Urbanist" font-size="5.514px" font-weight="800" letter-spacing="0px" stroke-width=".1378" word-spacing="0px" style="font-feature-settings:normal;font-variant-caps:normal;font-variant-ligatures:normal;font-variant-numeric:normal;line-height:1.25" xml:space="preserve"><tspan x="10.059921" y="9.4699144" fill="#cccccc" font-family="Urbanist" font-size="5.514px" font-weight="800" stroke-width=".1378" text-align="center" text-anchor="middle" style="font-feature-settings:normal;font-variant-caps:normal;font-variant-ligatures:normal;font-variant-numeric:normal">HEAD</tspan></text>
 <text x="10.059921" y="9.545084" fill="#333333" font-family="Urbanist" font-size="5.514px" font-weight="800" letter-spacing="0px" stroke-width=".1378" text-align="center" text-anchor="middle" word-spacing="0px" style="font-feature-settings:normal;font-variant-caps:normal;font-variant-ligatures:normal;font-variant-numeric:normal;line-height:1.25" xml:space="preserve"><tspan x="10.059921" y="9.545084" fill="#333333" font-family="Urbanist" font-size="5.514px" font-weight="800" stroke-width=".1378" text-align="center" text-anchor="middle" style="font-feature-settings:normal;font-variant-caps:normal;font-variant-ligatures:normal;font-variant-numeric:normal">HEAD</tspan></text>
 <text x="10.12326" y="65.43399" fill="#e6ebef" font-family="Urbanist" font-size="3.447px" font-weight="bold" letter-spacing="0px" stroke-width=".08618" word-spacing="0px" style="font-feature-settings:normal;font-variant-caps:normal;font-variant-ligatures:normal;font-variant-numeric:normal;line-height:1.25" xml:space="preserve"><tspan x="10.12326" y="65.43399" fill="#e6ebef" font-family="Urbanist" font-size="3.447px" font-weight="bold" stroke-width=".08618" text-align="center" text-anchor="middle" style="font-feature-settings:normal;font-variant-caps:normal;font-variant-ligatures:normal;font-variant-numeric:normal">Text</tspan></text>
</svg>
