<svg width="14.69mm" height="14.69mm" version="1.1" viewBox="0 0 14.69 14.69" xmlns="http://www.w3.org/2000/svg">
 <g transform="translate(-136.3 -158.1)">
  <path transform="scale(.2646)" d="m542.9 597.6a27.76 27.76 0 0 0-27.76 27.76 27.76 27.76 0 0 0 27.76 27.76 27.76 27.76 0 0 0 27.76-27.76 27.76 27.76 0 0 0-27.76-27.76zm0 2.979a24.78 24.78 0 0 1 24.78 24.78 24.78 24.78 0 0 1-24.78 24.78 24.78 24.78 0 0 1-24.78-24.78 24.78 24.78 0 0 1 24.78-24.78z" fill="#d4d8dc" style="paint-order:markers stroke fill"/>
 </g>
</svg>
