<svg width="6mm" height="6mm" version="1.1" viewBox="0 0 6 6" xmlns="http://www.w3.org/2000/svg" xmlns:xlink="http://www.w3.org/1999/xlink">
 <defs>
  <linearGradient id="linearGradient3502">
   <stop stop-color="#edeff0" offset="0"/>
   <stop stop-color="#4d4d4d" offset="1"/>
  </linearGradient>
  <linearGradient id="linearGradient3114">
   <stop stop-color="#edeff0" offset="0"/>
   <stop stop-color="#d4d8dc" offset="1"/>
  </linearGradient>
  <linearGradient id="linearGradient4507" x1="-224.8" x2="-289.9" y1="113.9" y2="40.86" gradientTransform="matrix(.03048 0 0 .03048 9.862 290.5)" gradientUnits="userSpaceOnUse">
   <stop stop-color="#4d4d4d" offset="0"/>
   <stop stop-color="#808080" offset="1"/>
  </linearGradient>
  <linearGradient id="linearGradient4509" x1="304.8" x2="306.7" y1="164.6" y2="163.6" gradientTransform="matrix(1.041 0 0 1.041 -12.47 -6.55)" gradientUnits="userSpaceOnUse" xlink:href="#linearGradient3502"/>
  <linearGradient id="linearGradient4511" x1="304.8" x2="306.7" y1="164.6" y2="163.6" gradientTransform="matrix(1.041 0 0 1.041 -621.1 -6.55)" gradientUnits="userSpaceOnUse" xlink:href="#linearGradient3502"/>
  <linearGradient id="linearGradient4513" x1="304.8" x2="306.7" y1="164.6" y2="163.6" gradientTransform="matrix(1.041 0 0 1.041 -12.47 -6.55)" gradientUnits="userSpaceOnUse">
   <stop stop-color="#edeff0" offset="0"/>
   <stop stop-color="#5f5f5f" offset="1"/>
  </linearGradient>
  <linearGradient id="linearGradient4517" x1="304.8" x2="306.7" y1="164.6" y2="163.6" gradientTransform="matrix(1.041 0 0 1.041 -12.47 -6.55)" gradientUnits="userSpaceOnUse">
   <stop stop-color="#edeff0" offset="0"/>
   <stop stop-color="#676767" offset="1"/>
  </linearGradient>
  <linearGradient id="linearGradient4519" x1="304.8" x2="306.7" y1="164.6" y2="163.6" gradientTransform="matrix(1.041 0 0 1.041 -621.1 -6.55)" gradientUnits="userSpaceOnUse">
   <stop stop-color="#edeff0" offset="0"/>
   <stop stop-color="#767676" offset="1"/>
  </linearGradient>
  <linearGradient id="linearGradient4521" x1="304.8" x2="306.7" y1="164.6" y2="163.6" gradientTransform="matrix(1.041 0 0 1.041 -12.47 -6.55)" gradientUnits="userSpaceOnUse" xlink:href="#linearGradient3114"/>
  <linearGradient id="linearGradient4523" x1="304.8" x2="306.7" y1="164.6" y2="163.6" gradientTransform="matrix(1.041 0 0 1.041 -621.1 -6.55)" gradientUnits="userSpaceOnUse" xlink:href="#linearGradient3114"/>
  <linearGradient id="linearGradient4525" x1="533.1" x2="509.7" y1="191.4" y2="155.1" gradientTransform="matrix(.1514 0 0 .1514 -76.24 267.7)" gradientUnits="userSpaceOnUse">
   <stop stop-color="#4d4d4d" offset="0"/>
   <stop stop-color="#333" stop-opacity="0" offset="1"/>
  </linearGradient>
 </defs>
 <g transform="translate(0,-291)">
  <circle cx="2.999" cy="294" r="2.999" fill="url(#linearGradient4507)" stroke-width=".8668" style="paint-order:stroke fill markers"/>
  <circle cx="3.001" cy="294" r="2.999" opacity="0" stroke-width=".8668" style="paint-order:stroke fill markers"/>
  <g transform="matrix(.622 0 0 .6195 -186.3 195.1)" opacity=".27">
   <g>
    <path d="m307 163.6a4.76 4.76 0 0 1-2.64 0.7992v-4.76z" fill="url(#linearGradient4509)" opacity="1" style="paint-order:markers stroke fill"/>
    <path transform="scale(-1,1)" d="m-301.7 163.6a4.76 4.76 0 0 1-2.64 0.7992v-4.76z" fill="url(#linearGradient4511)" opacity="1" style="paint-order:markers stroke fill"/>
   </g>
   <g transform="rotate(240 304.3 159.7)">
    <path d="m307 163.6a4.76 4.76 0 0 1-2.64 0.7992v-4.76z" fill="url(#linearGradient4513)" opacity="1" style="paint-order:markers stroke fill"/>
    <path transform="scale(-1,1)" d="m-301.7 163.6a4.76 4.76 0 0 1-2.64 0.7992v-4.76z" fill="url(#linearGradient4511)" opacity="1" style="paint-order:markers stroke fill"/>
   </g>
   <g transform="rotate(120 304.3 159.7)">
    <path d="m307 163.6a4.76 4.76 0 0 1-2.64 0.7992v-4.76z" fill="url(#linearGradient4517)" opacity="1" style="paint-order:markers stroke fill"/>
    <path transform="scale(-1,1)" d="m-301.7 163.6a4.76 4.76 0 0 1-2.64 0.7992v-4.76z" fill="url(#linearGradient4519)" opacity="1" style="paint-order:markers stroke fill"/>
   </g>
  </g>
  <path d="m2.999 291.6c0.08392 0 0.1667 5e-3 0.2485 0.0127 0.1633 0.0166 0.3218 0.0494 0.4739 0.0966 0.2283 0.0709 0.4421 0.1748 0.636 0.3058 0.1293 0.0874 0.2498 0.1867 0.3597 0.2967 0.2748 0.2748 0.4841 0.6153 0.6024 0.9957 0.04726 0.1521 0.08 0.3106 0.0966 0.4739 0.00764 0.0817 0.0127 0.1646 0.0127 0.2485 9.5e-6 0.0839-0.00477 0.1668-0.0127 0.2485-0.01652 0.1634-0.04926 0.322-0.0966 0.4742-0.02358 0.0761-0.05098 0.1505-0.08172 0.2232-0.06148 0.1454-0.1367 0.2835-0.224 0.4128-0.08735 0.1293-0.1867 0.2498-0.2967 0.3597-0.08649 0.0865-0.181 0.164-0.2796 0.2367-0.06492 0.0478-0.1321 0.0927-0.2017 0.134-0.02635 0.0156-0.05155 0.0329-0.07838 0.0476-1.145e-4 6e-5 -1.336e-4 2.9e-4 -2.768e-4 2.9e-4 -0.06874 0.0373-0.1396 0.0714-0.2122 0.1021-0.1454 0.0615-0.2981 0.1094-0.4563 0.1417-0.1582 0.0324-0.3218 0.0493-0.4896 0.0493s-0.3314-0.0169-0.4896-0.0493c-9.55e-5 -2e-5 -1.432e-4 2e-5 -2.769e-4 0-0.1582-0.0324-0.3107-0.0803-0.456-0.1417-0.1454-0.0615-0.2835-0.1367-0.4128-0.224-0.1293-0.0874-0.2495-0.1867-0.3594-0.2967-0.05499-0.055-0.1074-0.1126-0.1569-0.1726-0.09904-0.12-0.1869-0.2498-0.2617-0.3875-0.07485-0.1377-0.1365-0.2835-0.1838-0.4357-0.02368-0.0762-0.04382-0.1539-0.06005-0.2331-0.03236-0.1582-0.04926-0.3218-0.04926-0.4896 9.6e-6 -0.1677 0.0169-0.3314 0.04926-0.4896 0.03236-0.1582 0.08019-0.3109 0.1417-0.4563 0.00993-0.0236 0.02263-0.0455 0.03322-0.0687 0.05518-0.1198 0.1175-0.2354 0.1907-0.3437 0.08735-0.1293 0.1868-0.2498 0.2967-0.3597 0.08649-0.0865 0.181-0.164 0.2796-0.2367 0.2311-0.1703 0.4924-0.3009 0.7758-0.3812 0.134-0.0379 0.2719-0.0667 0.4142-0.0812 0.08162-9e-3 0.1646-0.0127 0.2485-0.0127z" fill="#d4d8dc" style="paint-order:markers stroke fill"/>
  <g transform="matrix(.5015 0 0 .5015 -149.6 213.9)">
   <path d="m307 163.6a4.76 4.76 0 0 1-2.64 0.7992v-4.76z" fill="url(#linearGradient4521)" style="paint-order:markers stroke fill"/>
   <path transform="scale(-1,1)" d="m-301.7 163.6a4.76 4.76 0 0 1-2.64 0.7992v-4.76z" fill="url(#linearGradient4523)" style="paint-order:markers stroke fill"/>
  </g>
  <path d="m3 291c-1.657 7e-5 -3 1.343-3 3-9.33e-5 1.657 1.343 3 3 3 1.657-7e-5 3-1.343 3-3-7.25e-5 -1.657-1.343-3-3-3zm0 0.7131c1.263 5e-5 2.287 1.024 2.287 2.287 7.25e-5 1.263-1.024 2.287-2.287 2.287-1.263-5e-5 -2.287-1.024-2.287-2.287 5.18e-5 -1.263 1.024-2.287 2.287-2.287z" fill="url(#linearGradient4525)" style="paint-order:markers stroke fill"/>
  <path d="m3 291.6a2.388 2.388 0 0 0-2.388 2.388 2.388 2.388 0 0 0 2.388 2.388 2.388 2.388 0 0 0 2.388-2.388 2.388 2.388 0 0 0-2.388-2.388zm0 0.101c1.263 6e-5 2.287 1.024 2.287 2.287 6.22e-5 1.263-1.024 2.287-2.287 2.287-1.263-6e-5 -2.287-1.024-2.287-2.287 4.15e-5 -1.263 1.024-2.287 2.287-2.287z" fill="#a8aaac" style="paint-order:markers stroke fill"/>
  <circle cx="3.001" cy="294" r="2.999" opacity="0" stroke-width=".8668" style="paint-order:stroke fill markers"/>
 </g>
</svg>
