<svg width="12mm" height="12mm" version="1.1" viewBox="0 0 12 12" xmlns="http://www.w3.org/2000/svg" xmlns:xlink="http://www.w3.org/1999/xlink">
 <defs>
  <linearGradient id="linearGradient5501" x1="-224.8" x2="-279.3" y1="113.9" y2="33.55" gradientTransform="matrix(.061 0 0 .061 19.73 -298)" gradientUnits="userSpaceOnUse">
   <stop stop-color="#1a1a1a" offset="0"/>
   <stop stop-color="#4d4d4d" offset="1"/>
  </linearGradient>
  <linearGradient id="linearGradient5503" x1="-224.8" x2="-289.9" y1="113.9" y2="40.86" gradientTransform="matrix(.05946 0 0 .05946 19.34 284.2)" gradientUnits="userSpaceOnUse">
   <stop stop-color="#4d4d4d" offset="0"/>
   <stop stop-color="#808080" offset="1"/>
  </linearGradient>
  <linearGradient id="linearGradient5505" x1="304.8" x2="306.7" y1="164.6" y2="163.6" gradientTransform="matrix(1.279 0 0 1.279 -383.2 86.74)" gradientUnits="userSpaceOnUse" xlink:href="#linearGradient3502"/>
  <linearGradient id="linearGradient3502">
   <stop stop-color="#edeff0" offset="0"/>
   <stop stop-color="#4d4d4d" offset="1"/>
  </linearGradient>
  <linearGradient id="linearGradient1000" x1="304.8" x2="306.7" y1="164.6" y2="163.6" gradientTransform="matrix(1.279 0 0 1.279 -134.3 -344.5)" gradientUnits="userSpaceOnUse" xlink:href="#linearGradient3502"/>
  <linearGradient id="linearGradient5509" x1="304.8" x2="306.7" y1="164.6" y2="163.6" gradientTransform="matrix(1.279 0 0 1.279 -644.2 -344.5)" gradientUnits="userSpaceOnUse">
   <stop stop-color="#edeff0" offset="0"/>
   <stop stop-color="#5f5f5f" offset="1"/>
  </linearGradient>
  <linearGradient id="linearGradient5513" x1="304.8" x2="306.7" y1="164.6" y2="163.6" gradientTransform="matrix(1.279 0 0 1.279 -140.3 -354.9)" gradientUnits="userSpaceOnUse">
   <stop stop-color="#edeff0" offset="0"/>
   <stop stop-color="#676767" offset="1"/>
  </linearGradient>
  <linearGradient id="linearGradient5515" x1="304.8" x2="306.7" y1="164.6" y2="163.6" gradientTransform="matrix(1.279 0 0 1.279 -638.2 -354.9)" gradientUnits="userSpaceOnUse">
   <stop stop-color="#edeff0" offset="0"/>
   <stop stop-color="#767676" offset="1"/>
  </linearGradient>
  <linearGradient id="linearGradient1002" x1="304.8" x2="306.7" y1="164.6" y2="163.6" gradientTransform="matrix(1.007 0 0 1.007 -57.52 -311.5)" gradientUnits="userSpaceOnUse" xlink:href="#linearGradient3114"/>
  <linearGradient id="linearGradient3114">
   <stop stop-color="#edeff0" offset="0"/>
   <stop stop-color="#d4d8dc" offset="1"/>
  </linearGradient>
  <linearGradient id="linearGradient1004" x1="304.8" x2="306.7" y1="164.6" y2="163.6" gradientTransform="matrix(1.007 0 0 1.007 -555.6 -311.5)" gradientUnits="userSpaceOnUse" xlink:href="#linearGradient3114"/>
  <linearGradient id="linearGradient2437" x1="304.8" x2="306.7" y1="164.6" y2="163.6" gradientTransform="matrix(1.279 0 0 1.279 -395.2 86.74)" gradientUnits="userSpaceOnUse" xlink:href="#linearGradient3502"/>
  <linearGradient id="linearGradient2439" x1="304.8" x2="306.7" y1="164.6" y2="163.6" gradientTransform="matrix(1.007 0 0 1.007 -300.5 130.2)" gradientUnits="userSpaceOnUse" xlink:href="#linearGradient3114"/>
  <linearGradient id="linearGradient2441" x1="304.8" x2="306.7" y1="164.6" y2="163.6" gradientTransform="matrix(1.007 0 0 1.007 -312.5 130.2)" gradientUnits="userSpaceOnUse" xlink:href="#linearGradient3114"/>
  <linearGradient id="linearGradient2443" x1="304.8" x2="306.7" y1="164.6" y2="163.6" gradientTransform="matrix(1.007 0 0 1.007 -561.6 -301.1)" gradientUnits="userSpaceOnUse" xlink:href="#linearGradient3114"/>
  <linearGradient id="linearGradient2445" x1="304.8" x2="306.7" y1="164.6" y2="163.6" gradientTransform="matrix(1.007 0 0 1.007 -51.52 -301.1)" gradientUnits="userSpaceOnUse" xlink:href="#linearGradient3114"/>
 </defs>
 <g transform="translate(0,-285)">
  <path transform="scale(1,-1)" d="m12-291a6 6 0 0 1-6 6 6 6 0 0 1-6-6 6 6 0 0 1 6-6 6 6 0 0 1 6 6z" fill="url(#linearGradient5501)" stroke-width=".6439" style="paint-order:stroke fill markers"/>
  <path d="m11.85 291a5.848 5.848 0 0 1-5.848 5.848 5.848 5.848 0 0 1-5.848-5.848 5.848 5.848 0 0 1 5.848-5.848 5.848 5.848 0 0 1 5.848 5.848z" fill="url(#linearGradient5503)" stroke-width=".6439" style="paint-order:stroke fill markers"/>
  <path d="m9.244 295.8a5.848 5.848 0 0 1-3.243 0.9819l-2e-7 -5.848z" fill="url(#linearGradient5505)" opacity=".25" style="paint-order:markers stroke fill"/>
  <path transform="scale(-1,1)" d="m-2.756 295.8a5.848 5.848 0 0 1-3.243 0.9819l-1e-7 -5.848z" fill="url(#linearGradient2437)" opacity=".25" style="paint-order:markers stroke fill"/>
  <path transform="rotate(240)" d="m-251.7-135.4a5.848 5.848 0 0 1-3.243 0.9819v-5.848z" fill="url(#linearGradient5509)" opacity=".25" style="paint-order:markers stroke fill"/>
  <path transform="matrix(.5 .866 .866 -.5 0 0)" d="m258.2-135.4a5.848 5.848 0 0 1-3.243 0.9819v-5.848z" fill="url(#linearGradient1000)" opacity=".25" style="paint-order:markers stroke fill"/>
  <path transform="rotate(120)" d="m252.2-145.8a5.848 5.848 0 0 1-3.243 0.9819v-5.848z" fill="url(#linearGradient5513)" opacity=".25" style="paint-order:markers stroke fill"/>
  <path transform="matrix(.5 -.866 -.866 -.5 0 0)" d="m-245.7-145.8a5.848 5.848 0 0 1-3.243 0.9819v-5.848z" fill="url(#linearGradient5515)" opacity=".25" style="paint-order:markers stroke fill"/>
  <path d="m6 286.4c0.1589 1e-5 0.3156 8e-3 0.4703 0.024 0.309 0.0315 0.6091 0.0934 0.8969 0.1828 0.432 0.1344 0.8367 0.3307 1.204 0.5786 0.2446 0.1653 0.4727 0.3534 0.6807 0.5615 0.5201 0.5201 0.9162 1.164 1.14 1.884 0.0895 0.2878 0.1514 0.5879 0.1828 0.8969 0.01567 0.1548 0.024 0.3114 0.024 0.4703 1e-5 0.1587-0.0077 0.3157-0.024 0.4703-0.03135 0.3092-0.09328 0.6094-0.1828 0.8974-0.0447 0.144-0.09657 0.2848-0.1547 0.4224-0.1163 0.2751-0.2587 0.5366-0.424 0.7813-0.1653 0.2447-0.3534 0.4727-0.5615 0.6807-0.1636 0.1636-0.3426 0.3104-0.5292 0.4479-0.1229 0.0906-0.25 0.1754-0.3818 0.2536-0.04983 0.0295-0.09746 0.0624-0.1484 0.0901-2.032e-4 1.1e-4 -2.613e-4 5.3e-4 -5.322e-4 5.3e-4 -0.1301 0.0706-0.2642 0.1351-0.4016 0.1932-0.2751 0.1164-0.5642 0.207-0.8635 0.2682-0.2994 0.0612-0.6091 0.0933-0.9266 0.0933-0.3175-1e-5 -0.6272-0.0319-0.9266-0.0933-1.645e-4 -3e-5 -2.612e-4 3e-5 -5.225e-4 0-0.2994-0.0613-0.5879-0.1519-0.863-0.2682-0.2751-0.1164-0.5366-0.2587-0.7813-0.424-0.2446-0.1653-0.4722-0.3534-0.6802-0.5615-0.104-0.104-0.2032-0.213-0.2969-0.3266-0.1874-0.2271-0.3537-0.4727-0.4953-0.7334-0.1416-0.2606-0.2584-0.5365-0.3479-0.8245-0.0449-0.1442-0.08292-0.2913-0.1135-0.4412-0.06125-0.2994-0.09318-0.6091-0.09318-0.9266 1.93e-5 -0.3175 0.03193-0.6272 0.09318-0.9266 0.06125-0.2995 0.1518-0.5884 0.2682-0.8636 0.01887-0.0446 0.04286-0.0863 0.06299-0.1302 0.1045-0.2267 0.2225-0.4456 0.3609-0.6505 0.1653-0.2446 0.3534-0.4727 0.5615-0.6807 0.1636-0.1636 0.3426-0.3104 0.5292-0.4479 0.4373-0.3223 0.9319-0.5695 1.468-0.7214 0.2536-0.0718 0.5145-0.1263 0.7839-0.1537 0.1546-0.0158 0.3116-0.024 0.4703-0.024z" fill="#d4d8dc" style="paint-order:markers stroke fill"/>
  <path d="m8.555 294.8a4.606 4.606 0 0 1-2.554 0.7733l-2e-7 -4.606z" fill="url(#linearGradient2439)" style="paint-order:markers stroke fill"/>
  <path transform="scale(-1,1)" d="m-3.445 294.8a4.606 4.606 0 0 1-2.554 0.7733l-2e-7 -4.606z" fill="url(#linearGradient2441)" style="paint-order:markers stroke fill"/>
  <path transform="rotate(240)" d="m-252.5-136.5a4.606 4.606 0 0 1-2.554 0.7733v-4.606z" fill="url(#linearGradient2443)" style="paint-order:markers stroke fill"/>
  <path transform="matrix(.5 .866 .866 -.5 0 0)" d="m257.6-136.5a4.606 4.606 0 0 1-2.554 0.7733v-4.606z" fill="url(#linearGradient2445)" style="paint-order:markers stroke fill"/>
  <path transform="rotate(120)" d="m251.6-146.9a4.606 4.606 0 0 1-2.554 0.7733v-4.606z" fill="url(#linearGradient1002)" style="paint-order:markers stroke fill"/>
  <path transform="matrix(.5 -.866 -.866 -.5 0 0)" d="m-246.5-146.9a4.606 4.606 0 0 1-2.554 0.7733v-4.606z" fill="url(#linearGradient1004)" style="paint-order:markers stroke fill"/>
 </g>
</svg>
