<svg width="12mm" height="12mm" version="1.1" viewBox="0 0 12 12" xmlns="http://www.w3.org/2000/svg">
 <g transform="translate(0,-285)">
  <circle transform="scale(1,-1)" cx="6" cy="-291" r="6" fill-opacity=".003922" stroke-width=".6439" style="paint-order:stroke fill markers"/>
  <path d="m6.003 285.4c-1.427-4e-3 -0.9221 0.2651-2.21 0.8811-1.287 0.6154-1.18 0.0533-2.072 1.167-0.8925 1.114-0.3672 0.8865-0.6883 2.277-0.3212 1.391-0.6938 0.9552-0.3798 2.348 0.3134 1.392 0.4641 0.8408 1.351 1.959 0.8868 1.118 0.3154 1.139 1.599 1.761 1.285 0.6222 0.946 0.1605 2.373 0.1643 1.427 4e-3 1.086 0.4636 2.373-0.1524 1.288-0.6163 0.7158-0.6393 1.609-1.753 0.8929-1.114 1.039-0.5604 1.361-1.951v2e-3c0.321-1.391-0.05341-0.9573-0.3674-2.35-0.3141-1.392 0.2098-1.164-0.677-2.282-0.8875-1.118-0.7825-0.5554-2.067-1.178-1.285-0.6226-0.778-0.8886-2.205-0.8924zm-0.00259 0.7772c2.657-6e-5 4.811 2.154 4.811 4.811 6.5e-5 2.657-2.154 4.811-4.811 4.811-2.657 6e-5 -4.811-2.154-4.811-4.811-6.4e-5 -2.657 2.154-4.811 4.811-4.811z" fill="#d4d8dc" stroke-width=".0561" style="paint-order:stroke fill markers"/>
  <path d="m6 286.7c0.1058 0 0.191 0.0851 0.191 0.191v3.858c0 0.1058-0.08515 0.191-0.191 0.191-0.1058 0-0.191-0.0851-0.191-0.191v-3.858c0-0.1058 0.08515-0.191 0.191-0.191z" fill="#4a4a4a" stroke-width=".0561" style="paint-order:stroke fill markers"/>
  <path d="m6.003 285.4c-1.427-4e-3 -0.9221 0.2651-2.21 0.8811-1.287 0.6154-1.18 0.0533-2.072 1.167-0.8925 1.114-0.3672 0.8865-0.6883 2.277-0.3212 1.391-0.6938 0.9552-0.3798 2.348 0.3134 1.392 0.4641 0.8408 1.351 1.959 0.8868 1.118 0.3154 1.139 1.599 1.761 1.285 0.6222 0.946 0.1605 2.373 0.1643 1.427 4e-3 1.086 0.4636 2.373-0.1524 1.288-0.6163 0.7158-0.6393 1.609-1.753 0.8929-1.114 1.039-0.5604 1.361-1.951v2e-3c0.321-1.391-0.05341-0.9573-0.3674-2.35-0.3141-1.392 0.2098-1.164-0.677-2.282-0.8875-1.118-0.7825-0.5554-2.067-1.178-1.285-0.6226-0.778-0.8886-2.205-0.8924zm-0.00259 0.7772c2.657-6e-5 4.811 2.154 4.811 4.811 6.5e-5 2.657-2.154 4.811-4.811 4.811-2.657 6e-5 -4.811-2.154-4.811-4.811-6.4e-5 -2.657 2.154-4.811 4.811-4.811z" fill="#d4d8dc" stroke-width=".0561" style="paint-order:stroke fill markers"/>
  <path d="m6.003 285.4c-1.427-4e-3 -0.9221 0.2651-2.21 0.8811-1.287 0.6154-1.18 0.0533-2.072 1.167-0.8925 1.114-0.3672 0.8865-0.6883 2.277-0.3212 1.391-0.6938 0.9552-0.3798 2.348 0.3134 1.392 0.4641 0.8408 1.351 1.959 0.8868 1.118 0.3154 1.139 1.599 1.761 1.285 0.6222 0.946 0.1605 2.373 0.1643 1.427 4e-3 1.086 0.4636 2.373-0.1524 1.288-0.6163 0.7158-0.6393 1.609-1.753 0.8929-1.114 1.039-0.5604 1.361-1.951v2e-3c0.321-1.391-0.05341-0.9573-0.3674-2.35-0.3141-1.392 0.2098-1.164-0.677-2.282-0.8875-1.118-0.7825-0.5554-2.067-1.178-1.285-0.6226-0.778-0.8886-2.205-0.8924zm-0.00259 0.7772c2.657-6e-5 4.811 2.154 4.811 4.811 6.5e-5 2.657-2.154 4.811-4.811 4.811-2.657 6e-5 -4.811-2.154-4.811-4.811-6.4e-5 -2.657 2.154-4.811 4.811-4.811z" fill="#d4d8dc" stroke-width=".0561" style="paint-order:stroke fill markers"/>
 </g>
</svg>
