<svg width="6.931mm" height="6.932mm" version="1.1" viewBox="0 0 6.931 6.932" xmlns="http://www.w3.org/2000/svg" xmlns:xlink="http://www.w3.org/1999/xlink">
 <defs>
  <linearGradient id="linearGradient2648" x1="64.63" x2="66.83" y1="275.1" y2="277.6" gradientTransform="matrix(.9755 0 0 .9755 27.71 -81.64)" gradientUnits="userSpaceOnUse" xlink:href="#linearGradient975"/>
  <linearGradient id="linearGradient975">
   <stop stop-color="#e6e6e6" offset="0"/>
   <stop stop-color="#b9b9b9" offset="1"/>
  </linearGradient>
  <linearGradient id="linearGradient2650" x1="42.11" x2="43.18" y1="124.7" y2="127.8" gradientTransform="matrix(1.789 0 0 1.789 16.76 -36.64)" gradientUnits="userSpaceOnUse" xlink:href="#linearGradient975"/>
  <linearGradient id="linearGradient2652" x1="251.7" x2="251.6" y1="415" y2="411.5" gradientTransform="matrix(.2646 0 0 .2646 26.07 80.01)" gradientUnits="userSpaceOnUse" xlink:href="#linearGradient975"/>
  <linearGradient id="linearGradient2654" x1="124.4" x2="128.3" y1="-226.5" y2="-230.7" gradientTransform="matrix(.9676 0 0 .9676 -29.31 32.04)" gradientUnits="userSpaceOnUse">
   <stop stop-color="#b3b3b3" offset="0"/>
   <stop stop-color="#666" offset="1"/>
  </linearGradient>
  <linearGradient id="linearGradient2656" x1="-224.8" x2="-298" y1="113.9" y2="178.2" gradientTransform="matrix(.02789 0 0 .02789 99.23 -205.9)" gradientUnits="userSpaceOnUse">
   <stop stop-color="#1a1a1a" offset="0"/>
   <stop stop-color="#4d4d4d" offset="1"/>
  </linearGradient>
  <linearGradient id="linearGradient2658" x1="66.84" x2="65.11" y1="277.7" y2="276.1" gradientTransform="matrix(.9819 0 0 .9819 27.28 -69.9)" gradientUnits="userSpaceOnUse" xlink:href="#linearGradient2560"/>
  <linearGradient id="linearGradient2560">
   <stop stop-color="#4d4d4d" offset="0"/>
   <stop stop-color="#808080" offset="1"/>
  </linearGradient>
  <linearGradient id="linearGradient2660" x1="66.84" x2="65.11" y1="277.7" y2="276.1" gradientTransform="matrix(.7961 0 0 -.7961 39.71 423.9)" gradientUnits="userSpaceOnUse" xlink:href="#linearGradient2560"/>
 </defs>
 <g transform="translate(-106.1 -116.6)">
  <g transform="translate(16.65 -82.64)">
   <g transform="translate(0 13.56)">
    <path d="m95.97 190.9c-0.0333 0.0577-0.0963 0.0938-0.1329 0.1496-0.0366 0.0557-0.0446 0.1278-0.0843 0.1814-0.0397 0.0536-0.1063 0.0822-0.149 0.1335-0.0427 0.0512-0.0589 0.1219-0.1045 0.1706s-0.115 0.0696-0.1633 0.1156-0.0724 0.1144-0.1232 0.1576c-0.0508 0.0432-0.1222 0.056-0.1754 0.0962s-0.085 0.1054-0.1404 0.1425-0.1278 0.0417-0.1852 0.0756-0.0965 0.095-0.1557 0.1256c-0.0593 0.0306-0.1317 0.0269-0.1926 0.054s-0.1067 0.0834-0.169 0.107c-0.0624 0.0236-0.1339 0.0117-0.1975 0.0317s-0.1155 0.0707-0.1801 0.0871c-0.0647 0.0163-0.1344-4e-3 -0.1999 9e-3 -0.0655 0.0126-0.1228 0.0571-0.1889 0.066-0.0661 9e-3 -0.1331-0.019-0.1996-0.0139-0.0665 5e-3 -0.1285 0.0427-0.1952 0.044-0.0667 1e-3 -0.1301-0.034-0.1967-0.0365-0.0666-3e-3 -0.1325 0.0278-0.1989 0.0215-0.0664-6e-3 -0.1253-0.0486-0.1913-0.0587-0.0659-0.0101-0.1348 0.0125-0.2001-1e-3 -0.0652-0.0139-0.119-0.0626-0.1833-0.0801-0.0643-0.0176-0.1354-3e-3 -0.1986-0.0241-0.0632-0.0212-0.1111-0.0757-0.173-0.1005s-0.1342-0.0183-0.1946-0.0466-0.1017-0.0879-0.1604-0.1196-0.1312-0.0335-0.188-0.0685-0.091-0.0989-0.1457-0.1371-0.1265-0.0483-0.1789-0.0895-0.0792-0.1086-0.1291-0.1528c-0.05-0.0442-0.1202-0.0624-0.1676-0.1093s-0.0663-0.117-0.1109-0.1665c-0.0446-0.0496-0.1123-0.0757-0.154-0.1277s-0.0525-0.1238-0.0912-0.1781-0.1029-0.088-0.1385-0.1444c-0.0355-0.0564-0.038-0.1289-0.0703-0.1873-0.0322-0.0584-0.0922-0.0991-0.1211-0.1592s-0.0231-0.1324-0.0485-0.1941-0.0803-0.109-0.1022-0.172c-0.0218-0.063-8e-3 -0.1342-0.026-0.1984-0.0182-0.0642-0.0674-0.1174-0.0819-0.1826s7e-3 -0.1342-3e-3 -0.2c-0.0108-0.0658-0.0536-0.1244-0.0605-0.1907-7e-3 -0.0663 0.0227-0.1325 0.0196-0.1991-3e-3 -0.0666-0.039-0.1297-0.0384-0.1964 6.3e-4 -0.0667 0.0377-0.129 0.0421-0.1956 4e-3 -0.0665-0.024-0.1333-0.0158-0.1994 8e-3 -0.0662 0.0522-0.1239 0.0641-0.1895 0.012-0.0656-9e-3 -0.1351 7e-3 -0.1999 0.0157-0.0648 0.0659-0.1172 0.0853-0.181s7e-3 -0.1352 0.0298-0.1978c0.023-0.0626 0.0789-0.1089 0.1054-0.17 0.0265-0.0612 0.0222-0.1336 0.0522-0.1931 0.03-0.0596 0.0908-0.0992 0.1241-0.1569 0.0333-0.0578 0.0373-0.1302 0.0738-0.1859 0.0366-0.0558 0.1015-0.0882 0.1412-0.1418s0.0519-0.1251 0.0946-0.1763 0.1109-0.076 0.1564-0.1247c0.0456-0.0487 0.0658-0.1184 0.114-0.1644 0.0483-0.046 0.1188-0.0629 0.1696-0.1061s0.0788-0.1101 0.132-0.1503 0.1252-0.0489 0.1806-0.0861c0.0554-0.0371 0.0909-0.1004 0.1483-0.1343s0.13-0.0344 0.1892-0.0649c0.0593-0.0306 0.1017-0.0894 0.1626-0.1165s0.133-0.0193 0.1954-0.0429 0.1112-0.0772 0.1749-0.0972c0.0636-0.02 0.1344-4e-3 0.199-0.0204 0.0647-0.0163 0.1193-0.064 0.1848-0.0766s0.134 0.0113 0.2001 2e-3c0.0661-9e-3 0.1258-0.05 0.1923-0.0551 0.0665-5e-3 0.1318 0.0265 0.1985 0.0253 0.0667-1e-3 0.1307-0.0353 0.1974-0.0328 0.0666 3e-3 0.1279 0.0414 0.1943 0.0477 0.0664 6e-3 0.1339-0.0202 0.1998-0.0101s0.1224 0.0557 0.1876 0.0695c0.0652 0.0139 0.1353-5e-3 0.1997 0.0128 0.0643 0.0176 0.1152 0.0693 0.1784 0.0905s0.135 0.0107 0.1969 0.0355 0.1066 0.0819 0.167 0.1102 0.1329 0.026 0.1916 0.0577 0.0965 0.0935 0.1533 0.1285 0.1291 0.041 0.1838 0.0791c0.0547 0.0382 0.0852 0.104 0.1377 0.1452 0.0524 0.0412 0.1236 0.0554 0.1735 0.0996 0.05 0.0442 0.0728 0.113 0.1202 0.1599s0.1164 0.0691 0.1611 0.1187c0.0446 0.0496 0.0595 0.1206 0.1012 0.1726s0.1078 0.082 0.1465 0.1363 0.0453 0.1266 0.0809 0.183c0.0355 0.0564 0.0978 0.0937 0.13 0.1521s0.0306 0.1309 0.0595 0.191c0.0288 0.0601 0.0864 0.1042 0.1118 0.1659s0.0155 0.1335 0.0373 0.1966c0.0218 0.063 0.074 0.1134 0.0922 0.1776s1.8e-4 0.1344 0.0147 0.1995c0.0145 0.0651 0.0606 0.1211 0.0713 0.1869 0.0108 0.0658-0.0151 0.1336-8e-3 0.1999 7e-3 0.0663 0.0464 0.1272 0.0495 0.1938 3e-3 0.0666-0.0303 0.131-0.0309 0.1977-6.4e-4 0.0667 0.0316 0.1317 0.0271 0.1982-4e-3 0.0665-0.045 0.1267-0.0532 0.1928-8e-3 0.0662 0.0164 0.1344 4e-3 0.2-0.012 0.0656-0.0592 0.1207-0.0749 0.1855s9.3e-4 0.1354-0.0185 0.1992c-0.0194 0.0638-0.0725 0.1132-0.0955 0.1758s-0.0145 0.1346-0.0411 0.1958c-0.0265 0.0612-0.085 0.1042-0.1149 0.1638-0.03 0.0596-0.0298 0.1321-0.0631 0.1898z" fill="url(#linearGradient2648)" style="paint-order:normal"/>
    <path d="m92.97 185.9c-1.803 8e-3 -3.243 1.451-3.255 3.261 9e-3 1.813 1.449 3.26 3.255 3.268 1.796-5e-3 3.249-1.462 3.247-3.268-1e-3 -1.803-1.454-3.256-3.247-3.261z" clip-rule="evenodd" fill="url(#linearGradient2650)" fill-rule="evenodd" stroke-linejoin="round" stroke-miterlimit="1.414" stroke-width=".4734"/>
    <path d="m89.77 188.6c-0.0349 0.1897-0.056 0.3843-0.0574 0.5845 1e-3 0.2025 0.0221 0.3993 0.0574 0.5912h6.39c0.0347-0.1919 0.055-0.389 0.0548-0.5912-1.6e-4 -0.1999-0.021-0.3946-0.0553-0.5845z" clip-rule="evenodd" fill="url(#linearGradient2652)" fill-rule="evenodd" stroke-linejoin="round" stroke-miterlimit="1.414" stroke-width=".4734"/>
    <path d="m89.74 188.9c-0.0131 0.1135-0.0224 0.2281-0.0233 0.3452 5.3e-4 0.1194 0.01 0.2363 0.0233 0.3519h6.457c0.0129-0.1158 0.0218-0.2326 0.0217-0.3519-1e-4 -0.117-9e-3 -0.2317-0.0217-0.3452z" fill="#e6e6e6" style="paint-order:stroke fill markers"/>
    <circle transform="scale(1,-1)" cx="92.96" cy="-189.2" r="2.78" fill="url(#linearGradient2654)" stroke-width=".9944" style="paint-order:stroke fill markers"/>
   </g>
   <circle transform="scale(1,-1)" cx="92.97" cy="-202.7" r="2.743" fill="url(#linearGradient2656)" stroke-width=".9812" style="paint-order:stroke fill markers"/>
   <path d="m90.61 202.7c0-1.302 1.055-2.359 2.36-2.359 1.303 0 2.36 1.057 2.36 2.359 0 1.304-1.057 2.361-2.36 2.361-1.304 0-2.36-1.057-2.36-2.361" fill="url(#linearGradient2658)"/>
   <path d="m91.05 202.7c0 1.056 0.8558 1.913 1.913 1.913 1.056 0 1.913-0.8568 1.913-1.913 0-1.057-0.8571-1.914-1.913-1.914-1.058 0-1.913 0.8568-1.913 1.914" fill="url(#linearGradient2660)"/>
   <path d="m91.22 202.7c0-0.9657 0.7827-1.749 1.75-1.749 0.9661 0 1.75 0.7837 1.75 1.749 0 0.9669-0.7839 1.751-1.75 1.751-0.9673 0-1.75-0.7836-1.75-1.751"/>
  </g>
 </g>
</svg>
