<svg width="5.017mm" height="13.29mm" version="1.1" viewBox="0 0 5.017 13.29" xmlns="http://www.w3.org/2000/svg" xmlns:xlink="http://www.w3.org/1999/xlink">
 <defs>
  <linearGradient id="linearGradient4738" x1="-224.8" x2="-289.9" y1="113.9" y2="40.86" gradientTransform="matrix(.02209 0 0 .02209 371.9 162.4)" gradientUnits="userSpaceOnUse">
   <stop stop-color="#4d4d4d" offset="0"/>
   <stop stop-color="#808080" offset="1"/>
  </linearGradient>
  <linearGradient id="linearGradient4752" x1="533.1" x2="509.7" y1="191.4" y2="155.1" gradientTransform="matrix(.1097 0 0 .1097 309.5 145.8)" gradientUnits="userSpaceOnUse">
   <stop stop-color="#4d4d4d" offset="0"/>
   <stop stop-color="#333" stop-opacity="0" offset="1"/>
  </linearGradient>
  <linearGradient id="linearGradient4754" x1="304.8" x2="306.7" y1="164.6" y2="163.6" gradientTransform="matrix(1.041 0 0 1.041 -12.47 -6.55)" gradientUnits="userSpaceOnUse" xlink:href="#linearGradient3114"/>
  <linearGradient id="linearGradient3114">
   <stop stop-color="#edeff0" offset="0"/>
   <stop stop-color="#d4d8dc" offset="1"/>
  </linearGradient>
  <linearGradient id="linearGradient4756" x1="304.8" x2="306.7" y1="164.6" y2="163.6" gradientTransform="matrix(1.041 0 0 1.041 -621.1 -6.55)" gradientUnits="userSpaceOnUse" xlink:href="#linearGradient3114"/>
  <linearGradient id="linearGradient4632" x1="326.9" x2="326.7" y1="140.3" y2="156.8" gradientTransform="matrix(1.033 0 0 .8461 -218.8 -19.86)" gradientUnits="userSpaceOnUse">
   <stop stop-color="#bababa" offset="0"/>
   <stop stop-color="#e6e6e6" offset="1"/>
  </linearGradient>
 </defs>
 <g transform="translate(-116.2 -99.1)">
  <rect x="116.2" y="99.1" width="5.017" height="13.29" rx="2.508" ry="2.508" fill="url(#linearGradient4632)" style="paint-order:markers stroke fill"/>
  <path d="m118.4 103.7 2.77 2.241-8e-3 -4.738-0.6706-0.9024z" fill="#1a1a1a" fill-opacity=".4509"/>
  <rect x="116.7" y="99.74" width="4" height="12" rx="2" ry="1.833" fill="#333" style="paint-order:markers stroke fill"/>
  <circle cx="118.7" cy="101.5" r="2.174" opacity="0" stroke-width=".6283" style="paint-order:stroke fill markers"/>
  <g transform="matrix(1.081 0 0 1.081 -277.8 -76.46)">
   <circle cx="366.9" cy="164.9" r="2.174" fill="url(#linearGradient4738)" stroke-width=".6283" style="paint-order:stroke fill markers"/>
   <path d="m366.9 162.7c-1.201 6e-5 -2.174 0.9736-2.175 2.175-6e-5 1.201 0.9735 2.175 2.175 2.175 1.201-5e-5 2.175-0.9737 2.174-2.175-5e-5 -1.201-0.9736-2.174-2.174-2.175zm0 0.5169c0.9155 4e-5 1.658 0.7422 1.658 1.658 5e-5 0.9155-0.7421 1.658-1.658 1.658-0.9155-4e-5 -1.658-0.7423-1.658-1.658 5e-5 -0.9155 0.7422-1.658 1.658-1.658z" fill="url(#linearGradient4752)" style="paint-order:markers stroke fill"/>
   <g transform="matrix(.6761 0 0 .6761 127.7 46.79)">
    <path d="m353.8 172.3c0.0839 0 0.1667 5e-3 0.2485 0.0127 0.1633 0.0166 0.3218 0.0494 0.4739 0.0966 0.2282 0.0709 0.4421 0.1748 0.636 0.3058 0.1293 0.0874 0.2498 0.1867 0.3597 0.2967 0.2748 0.2748 0.4841 0.6153 0.6024 0.9957 0.0473 0.1521 0.08 0.3106 0.0966 0.4739 8e-3 0.0817 0.0127 0.1646 0.0127 0.2485 1e-5 0.0839-5e-3 0.1668-0.0127 0.2485-0.0165 0.1634-0.0493 0.322-0.0966 0.4742-0.0236 0.0761-0.051 0.1505-0.0817 0.2232-0.0615 0.1454-0.1367 0.2835-0.224 0.4128-0.0874 0.1293-0.1867 0.2498-0.2967 0.3597-0.0865 0.0865-0.181 0.164-0.2796 0.2367-0.0649 0.0478-0.1321 0.0927-0.2017 0.134-0.0263 0.0156-0.0516 0.0329-0.0784 0.0476-1.2e-4 6e-5 -1.4e-4 2.9e-4 -2.8e-4 2.9e-4 -0.0687 0.0373-0.1396 0.0714-0.2122 0.1021-0.1454 0.0615-0.2981 0.1094-0.4563 0.1417-0.1582 0.0324-0.3218 0.0493-0.4896 0.0493-0.1678 0-0.3314-0.0169-0.4896-0.0493-1e-4 -2e-5 -1.4e-4 2e-5 -2.8e-4 0-0.1582-0.0324-0.3107-0.0803-0.456-0.1417-0.1454-0.0615-0.2835-0.1367-0.4128-0.224-0.1293-0.0874-0.2495-0.1867-0.3594-0.2967-0.055-0.055-0.1074-0.1126-0.1569-0.1726-0.099-0.12-0.1869-0.2498-0.2617-0.3875-0.0748-0.1377-0.1365-0.2835-0.1838-0.4357-0.0237-0.0762-0.0438-0.1539-0.06-0.2331-0.0324-0.1582-0.0493-0.3218-0.0493-0.4896 1e-5 -0.1677 0.0169-0.3314 0.0493-0.4896 0.0324-0.1582 0.0802-0.3109 0.1417-0.4563 0.01-0.0236 0.0226-0.0455 0.0332-0.0687 0.0552-0.1198 0.1176-0.2354 0.1907-0.3437 0.0874-0.1293 0.1868-0.2498 0.2967-0.3597 0.0865-0.0865 0.181-0.164 0.2796-0.2367 0.2311-0.1703 0.4924-0.3009 0.7758-0.3812 0.134-0.0379 0.2719-0.0667 0.4142-0.0812 0.0816-9e-3 0.1646-0.0127 0.2485-0.0127z" fill="#d4d8dc" style="paint-order:markers stroke fill"/>
    <g transform="matrix(.5015 0 0 .5015 201.2 94.65)">
     <path d="m307 163.6a4.76 4.76 0 0 1-2.64 0.7992v-4.76z" fill="url(#linearGradient4754)" style="paint-order:markers stroke fill"/>
     <path transform="scale(-1,1)" d="m-301.7 163.6a4.76 4.76 0 0 1-2.64 0.7992v-4.76z" fill="url(#linearGradient4756)" style="paint-order:markers stroke fill"/>
    </g>
    <path d="m353.8 172.3a2.388 2.388 0 0 0-2.388 2.388 2.388 2.388 0 0 0 2.388 2.388 2.388 2.388 0 0 0 2.388-2.388 2.388 2.388 0 0 0-2.388-2.388zm0 0.101c1.263 5e-5 2.287 1.024 2.287 2.287 7e-5 1.263-1.024 2.287-2.287 2.287-1.263-6e-5 -2.287-1.024-2.287-2.287 4e-5 -1.263 1.024-2.287 2.287-2.287z" fill="#a8aaac" style="paint-order:markers stroke fill"/>
   </g>
  </g>
 </g>
</svg>
